<svg width="2076" height="579" viewBox="0 0 2076 579" fill="none" xmlns="http://www.w3.org/2000/svg">
<path fill-rule="evenodd" clip-rule="evenodd" d="M48 0V95H68V112H117V294.165L194 274.489V43H378V302V335V351V366V639H117H92H0V128V112V105V95V0H48Z" fill="#103162"/>
<rect x="224" y="74" width="73" height="10" fill="white"/>
<rect x="224" y="92" width="73" height="9" fill="white"/>
<rect x="224" y="158" width="73" height="10" fill="white"/>
<rect x="224" y="176" width="73" height="9" fill="white"/>
<rect x="224" y="242" width="73" height="10" fill="white"/>
<rect x="224" y="260" width="73" height="9" fill="white"/>
<rect x="224" y="326" width="73" height="10" fill="white"/>
<rect x="224" y="344" width="73" height="9" fill="white"/>
<rect y="151" width="17" height="30" fill="white"/>
<rect x="48" y="151" width="20" height="30" fill="white"/>
<rect y="241" width="17" height="30" fill="white"/>
<rect x="48" y="241" width="20" height="30" fill="white"/>
<rect y="342" width="17" height="30" fill="white"/>
<rect x="48" y="342" width="20" height="30" fill="white"/>
<rect y="432" width="17" height="30" fill="white"/>
<rect x="48" y="432" width="20" height="30" fill="white"/>
<rect y="536" width="17" height="30" fill="white"/>
<rect x="48" y="536" width="20" height="30" fill="white"/>
<rect x="322" y="69" width="20" height="38" fill="white"/>
<rect x="322" y="153" width="20" height="38" fill="white"/>
<rect x="322" y="237" width="20" height="38" fill="white"/>
<rect x="322" y="321" width="20" height="38" fill="white"/>
<rect x="322" y="405" width="20" height="38" fill="white"/>
<rect x="273" y="405" width="20" height="38" fill="white"/>
<rect x="228" y="405" width="20" height="38" fill="white"/>
<rect x="273" y="523" width="20" height="38" fill="white"/>
<rect x="228" y="523" width="20" height="38" fill="white"/>
<rect x="322" y="523" width="20" height="38" fill="white"/>
<rect y="37" width="17" height="76" fill="white"/>
<rect x="1725.5" y="430" width="210.144" height="234" fill="#B8B8B8"/>
<rect x="1935.64" y="517" width="58.4257" height="147" fill="#B8B8B8"/>
<path d="M1931.35 517.838L1930.54 450.383L1994.91 518.697L1931.35 517.838Z" fill="#B8B8B8"/>
<rect x="1725.5" y="216" width="210.144" height="218" fill="#B8B8B8"/>
<rect x="1959.2" y="126" width="128.16" height="538" fill="#B8B8B8"/>
<rect x="1981.82" y="92" width="80.0998" height="91" fill="#B8B8B8"/>
<rect x="2005.38" y="126" width="35.8093" height="42" fill="white"/>
<ellipse cx="2023.28" cy="128.5" rx="17.9047" ry="15.5" fill="white"/>
<rect x="1973.34" y="186" width="99.8891" height="9" fill="white"/>
<rect x="1973.34" y="230" width="14.1353" height="56" fill="white"/>
<rect x="2001.61" y="230" width="14.1353" height="56" fill="white"/>
<rect x="2029.88" y="230" width="14.1353" height="56" fill="white"/>
<rect x="2058.15" y="230" width="14.1353" height="56" fill="white"/>
<rect x="1973.34" y="328" width="14.1353" height="56" fill="white"/>
<rect x="2001.61" y="328" width="14.1353" height="56" fill="white"/>
<rect x="2029.88" y="328" width="14.1353" height="56" fill="white"/>
<rect x="2058.15" y="328" width="14.1353" height="56" fill="white"/>
<rect x="1973.34" y="420" width="183.758" height="7" fill="white"/>
<rect x="1973.34" y="460" width="23.5588" height="25" fill="white"/>
<rect x="1973.34" y="513" width="23.5588" height="25" fill="white"/>
<rect x="2019.51" y="513" width="23.5588" height="25" fill="white"/>
<rect x="2019.51" y="566" width="23.5588" height="25" fill="white"/>
<rect x="1973.34" y="566" width="23.5588" height="25" fill="white"/>
<rect x="2019.51" y="460" width="23.5588" height="25" fill="white"/>
<rect x="1778.27" y="249" width="28.2705" height="35" fill="white"/>
<rect x="1826.33" y="249" width="28.2705" height="35" fill="white"/>
<rect x="1874.39" y="249" width="28.2705" height="35" fill="white"/>
<rect x="1778.27" y="330" width="28.2705" height="35" fill="white"/>
<rect x="1826.33" y="330" width="28.2705" height="35" fill="white"/>
<rect x="1874.39" y="330" width="28.2705" height="35" fill="white"/>
<rect x="1778.27" y="415" width="28.2705" height="35" fill="white"/>
<rect x="1826.33" y="415" width="28.2705" height="35" fill="white"/>
<rect x="1874.39" y="415" width="28.2705" height="35" fill="white"/>
<rect x="1778.27" y="496" width="28.2705" height="35" fill="white"/>
<rect x="1826.33" y="496" width="28.2705" height="35" fill="white"/>
<rect x="1874.39" y="496" width="28.2705" height="35" fill="white"/>
<rect x="1750" y="191" width="124.39" height="30" fill="#B8B8B8"/>
</svg>
