<svg width="1070" height="116" viewBox="0 0 1070 116" fill="none" xmlns="http://www.w3.org/2000/svg">
<rect y="57" width="1100" height="59" fill="#0E769E"/>
<path d="M77.47 87V24H92.05V75.12H123.64V87H77.47ZM131.786 87V24H146.366V87H131.786ZM182.018 88.08C176.978 88.08 172.148 87.42 167.528 86.1C162.908 84.72 159.188 82.95 156.368 80.79L161.318 69.81C164.018 71.73 167.198 73.32 170.858 74.58C174.578 75.78 178.328 76.38 182.108 76.38C184.988 76.38 187.298 76.11 189.038 75.57C190.838 74.97 192.158 74.16 192.998 73.14C193.838 72.12 194.258 70.95 194.258 69.63C194.258 67.95 193.598 66.63 192.278 65.67C190.958 64.65 189.218 63.84 187.058 63.24C184.898 62.58 182.498 61.98 179.858 61.44C177.278 60.84 174.668 60.12 172.028 59.28C169.448 58.44 167.078 57.36 164.918 56.04C162.758 54.72 160.988 52.98 159.608 50.82C158.288 48.66 157.628 45.9 157.628 42.54C157.628 38.94 158.588 35.67 160.508 32.73C162.488 29.73 165.428 27.36 169.328 25.62C173.288 23.82 178.238 22.92 184.178 22.92C188.138 22.92 192.038 23.4 195.878 24.36C199.718 25.26 203.108 26.64 206.048 28.5L201.548 39.57C198.608 37.89 195.668 36.66 192.728 35.88C189.788 35.04 186.908 34.62 184.088 34.62C181.268 34.62 178.958 34.95 177.158 35.61C175.358 36.27 174.068 37.14 173.288 38.22C172.508 39.24 172.118 40.44 172.118 41.82C172.118 43.44 172.778 44.76 174.098 45.78C175.418 46.74 177.158 47.52 179.318 48.12C181.478 48.72 183.848 49.32 186.428 49.92C189.068 50.52 191.678 51.21 194.258 51.99C196.898 52.77 199.298 53.82 201.458 55.14C203.618 56.46 205.358 58.2 206.678 60.36C208.058 62.52 208.748 65.25 208.748 68.55C208.748 72.09 207.758 75.33 205.778 78.27C203.798 81.21 200.828 83.58 196.868 85.38C192.968 87.18 188.018 88.08 182.018 88.08ZM230.881 87V35.88H210.721V24H265.621V35.88H245.461V87H230.881ZM286.876 49.38H317.206V60.72H286.876V49.38ZM287.956 75.3H322.246V87H273.466V24H321.076V35.7H287.956V75.3ZM359.335 87V24H387.955C394.795 24 400.825 25.32 406.045 27.96C411.265 30.54 415.345 34.17 418.285 38.85C421.225 43.53 422.695 49.08 422.695 55.5C422.695 61.86 421.225 67.41 418.285 72.15C415.345 76.83 411.265 80.49 406.045 83.13C400.825 85.71 394.795 87 387.955 87H359.335ZM373.915 75.03H387.235C391.435 75.03 395.065 74.25 398.125 72.69C401.245 71.07 403.645 68.79 405.325 65.85C407.065 62.91 407.935 59.46 407.935 55.5C407.935 51.48 407.065 48.03 405.325 45.15C403.645 42.21 401.245 39.96 398.125 38.4C395.065 36.78 391.435 35.97 387.235 35.97H373.915V75.03ZM447.101 49.38H477.431V60.72H447.101V49.38ZM448.181 75.3H482.471V87H433.691V24H481.301V35.7H448.181V75.3ZM540.26 88.08C535.22 88.08 530.39 87.42 525.77 86.1C521.15 84.72 517.43 82.95 514.61 80.79L519.56 69.81C522.26 71.73 525.44 73.32 529.1 74.58C532.82 75.78 536.57 76.38 540.35 76.38C543.23 76.38 545.54 76.11 547.28 75.57C549.08 74.97 550.4 74.16 551.24 73.14C552.08 72.12 552.5 70.95 552.5 69.63C552.5 67.95 551.84 66.63 550.52 65.67C549.2 64.65 547.46 63.84 545.3 63.24C543.14 62.58 540.74 61.98 538.1 61.44C535.52 60.84 532.91 60.12 530.27 59.28C527.69 58.44 525.32 57.36 523.16 56.04C521 54.72 519.23 52.98 517.85 50.82C516.53 48.66 515.87 45.9 515.87 42.54C515.87 38.94 516.83 35.67 518.75 32.73C520.73 29.73 523.67 27.36 527.57 25.62C531.53 23.82 536.48 22.92 542.42 22.92C546.38 22.92 550.28 23.4 554.12 24.36C557.96 25.26 561.35 26.64 564.29 28.5L559.79 39.57C556.85 37.89 553.91 36.66 550.97 35.88C548.03 35.04 545.15 34.62 542.33 34.62C539.51 34.62 537.2 34.95 535.4 35.61C533.6 36.27 532.31 37.14 531.53 38.22C530.75 39.24 530.36 40.44 530.36 41.82C530.36 43.44 531.02 44.76 532.34 45.78C533.66 46.74 535.4 47.52 537.56 48.12C539.72 48.72 542.09 49.32 544.67 49.92C547.31 50.52 549.92 51.21 552.5 51.99C555.14 52.77 557.54 53.82 559.7 55.14C561.86 56.46 563.6 58.2 564.92 60.36C566.3 62.52 566.99 65.25 566.99 68.55C566.99 72.09 566 75.33 564.02 78.27C562.04 81.21 559.07 83.58 555.11 85.38C551.21 87.18 546.26 88.08 540.26 88.08ZM590.362 49.38H620.692V60.72H590.362V49.38ZM591.442 75.3H625.732V87H576.952V24H624.562V35.7H591.442V75.3ZM637.333 87V24H664.603C670.243 24 675.103 24.93 679.183 26.79C683.263 28.59 686.413 31.2 688.633 34.62C690.853 38.04 691.963 42.12 691.963 46.86C691.963 51.54 690.853 55.59 688.633 59.01C686.413 62.37 683.263 64.95 679.183 66.75C675.103 68.55 670.243 69.45 664.603 69.45H645.433L651.913 63.06V87H637.333ZM677.383 87L661.633 64.14H677.203L693.133 87H677.383ZM651.913 64.68L645.433 57.84H663.793C668.293 57.84 671.653 56.88 673.873 54.96C676.093 52.98 677.203 50.28 677.203 46.86C677.203 43.38 676.093 40.68 673.873 38.76C671.653 36.84 668.293 35.88 663.793 35.88H645.433L651.913 28.95V64.68ZM722.415 87L695.235 24H710.985L734.745 79.8H725.475L749.595 24H764.085L736.815 87H722.415ZM769.345 87V24H783.925V87H769.345ZM829.026 88.08C824.166 88.08 819.636 87.3 815.436 85.74C811.296 84.12 807.696 81.84 804.636 78.9C801.576 75.96 799.176 72.51 797.436 68.55C795.756 64.59 794.916 60.24 794.916 55.5C794.916 50.76 795.756 46.41 797.436 42.45C799.176 38.49 801.576 35.04 804.636 32.1C807.756 29.16 811.386 26.91 815.526 25.35C819.666 23.73 824.196 22.92 829.116 22.92C834.576 22.92 839.496 23.88 843.876 25.8C848.316 27.66 852.036 30.42 855.036 34.08L845.676 42.72C843.516 40.26 841.116 38.43 838.476 37.23C835.836 35.97 832.956 35.34 829.836 35.34C826.896 35.34 824.196 35.82 821.736 36.78C819.276 37.74 817.146 39.12 815.346 40.92C813.546 42.72 812.136 44.85 811.116 47.31C810.156 49.77 809.676 52.5 809.676 55.5C809.676 58.5 810.156 61.23 811.116 63.69C812.136 66.15 813.546 68.28 815.346 70.08C817.146 71.88 819.276 73.26 821.736 74.22C824.196 75.18 826.896 75.66 829.836 75.66C832.956 75.66 835.836 75.06 838.476 73.86C841.116 72.6 843.516 70.71 845.676 68.19L855.036 76.83C852.036 80.49 848.316 83.28 843.876 85.2C839.496 87.12 834.546 88.08 829.026 88.08ZM878.292 49.38H908.622V60.72H878.292V49.38ZM879.372 75.3H913.662V87H864.882V24H912.492V35.7H879.372V75.3ZM945.963 88.08C940.923 88.08 936.093 87.42 931.473 86.1C926.853 84.72 923.133 82.95 920.313 80.79L925.263 69.81C927.963 71.73 931.143 73.32 934.803 74.58C938.523 75.78 942.273 76.38 946.053 76.38C948.933 76.38 951.243 76.11 952.983 75.57C954.783 74.97 956.103 74.16 956.943 73.14C957.783 72.12 958.203 70.95 958.203 69.63C958.203 67.95 957.543 66.63 956.223 65.67C954.903 64.65 953.163 63.84 951.003 63.24C948.843 62.58 946.443 61.98 943.803 61.44C941.223 60.84 938.613 60.12 935.973 59.28C933.393 58.44 931.023 57.36 928.863 56.04C926.703 54.72 924.933 52.98 923.553 50.82C922.233 48.66 921.573 45.9 921.573 42.54C921.573 38.94 922.533 35.67 924.453 32.73C926.433 29.73 929.373 27.36 933.273 25.62C937.233 23.82 942.183 22.92 948.123 22.92C952.083 22.92 955.983 23.4 959.823 24.36C963.663 25.26 967.053 26.64 969.993 28.5L965.493 39.57C962.553 37.89 959.613 36.66 956.673 35.88C953.733 35.04 950.853 34.62 948.033 34.62C945.213 34.62 942.903 34.95 941.103 35.61C939.303 36.27 938.013 37.14 937.233 38.22C936.453 39.24 936.063 40.44 936.063 41.82C936.063 43.44 936.723 44.76 938.043 45.78C939.363 46.74 941.103 47.52 943.263 48.12C945.423 48.72 947.793 49.32 950.373 49.92C953.013 50.52 955.623 51.21 958.203 51.99C960.843 52.77 963.243 53.82 965.403 55.14C967.563 56.46 969.303 58.2 970.623 60.36C972.003 62.52 972.693 65.25 972.693 68.55C972.693 72.09 971.703 75.33 969.723 78.27C967.743 81.21 964.773 83.58 960.813 85.38C956.913 87.18 951.963 88.08 945.963 88.08Z" fill="white"/>
</svg>
