<svg width="1100" height="119" viewBox="0 0 1100 119" fill="none" xmlns="http://www.w3.org/2000/svg">
<rect y="60" width="1100" height="59" fill="#92C096"/>
<path d="M155.47 87V24H184.09C190.93 24 196.96 25.32 202.18 27.96C207.4 30.54 211.48 34.17 214.42 38.85C217.36 43.53 218.83 49.08 218.83 55.5C218.83 61.86 217.36 67.41 214.42 72.15C211.48 76.83 207.4 80.49 202.18 83.13C196.96 85.71 190.93 87 184.09 87H155.47ZM170.05 75.03H183.37C187.57 75.03 191.2 74.25 194.26 72.69C197.38 71.07 199.78 68.79 201.46 65.85C203.2 62.91 204.07 59.46 204.07 55.5C204.07 51.48 203.2 48.03 201.46 45.15C199.78 42.21 197.38 39.96 194.26 38.4C191.2 36.78 187.57 35.97 183.37 35.97H170.05V75.03ZM243.235 49.38H273.565V60.72H243.235V49.38ZM244.315 75.3H278.605V87H229.825V24H277.435V35.7H244.315V75.3ZM310.906 88.08C305.866 88.08 301.036 87.42 296.416 86.1C291.796 84.72 288.076 82.95 285.256 80.79L290.206 69.81C292.906 71.73 296.086 73.32 299.746 74.58C303.466 75.78 307.216 76.38 310.996 76.38C313.876 76.38 316.186 76.11 317.926 75.57C319.726 74.97 321.046 74.16 321.886 73.14C322.726 72.12 323.146 70.95 323.146 69.63C323.146 67.95 322.486 66.63 321.166 65.67C319.846 64.65 318.106 63.84 315.946 63.24C313.786 62.58 311.386 61.98 308.746 61.44C306.166 60.84 303.556 60.12 300.916 59.28C298.336 58.44 295.966 57.36 293.806 56.04C291.646 54.72 289.876 52.98 288.496 50.82C287.176 48.66 286.516 45.9 286.516 42.54C286.516 38.94 287.476 35.67 289.396 32.73C291.376 29.73 294.316 27.36 298.216 25.62C302.176 23.82 307.126 22.92 313.066 22.92C317.026 22.92 320.926 23.4 324.766 24.36C328.606 25.26 331.996 26.64 334.936 28.5L330.436 39.57C327.496 37.89 324.556 36.66 321.616 35.88C318.676 35.04 315.796 34.62 312.976 34.62C310.156 34.62 307.846 34.95 306.046 35.61C304.246 36.27 302.956 37.14 302.176 38.22C301.396 39.24 301.006 40.44 301.006 41.82C301.006 43.44 301.666 44.76 302.986 45.78C304.306 46.74 306.046 47.52 308.206 48.12C310.366 48.72 312.736 49.32 315.316 49.92C317.956 50.52 320.566 51.21 323.146 51.99C325.786 52.77 328.186 53.82 330.346 55.14C332.506 56.46 334.246 58.2 335.566 60.36C336.946 62.52 337.636 65.25 337.636 68.55C337.636 72.09 336.646 75.33 334.666 78.27C332.686 81.21 329.716 83.58 325.756 85.38C321.856 87.18 316.906 88.08 310.906 88.08ZM377.749 88.08C372.889 88.08 368.359 87.3 364.159 85.74C360.019 84.12 356.419 81.84 353.359 78.9C350.299 75.96 347.899 72.51 346.159 68.55C344.479 64.59 343.639 60.24 343.639 55.5C343.639 50.76 344.479 46.41 346.159 42.45C347.899 38.49 350.299 35.04 353.359 32.1C356.479 29.16 360.109 26.91 364.249 25.35C368.389 23.73 372.919 22.92 377.839 22.92C383.299 22.92 388.219 23.88 392.599 25.8C397.039 27.66 400.759 30.42 403.759 34.08L394.399 42.72C392.239 40.26 389.839 38.43 387.199 37.23C384.559 35.97 381.679 35.34 378.559 35.34C375.619 35.34 372.919 35.82 370.459 36.78C367.999 37.74 365.869 39.12 364.069 40.92C362.269 42.72 360.859 44.85 359.839 47.31C358.879 49.77 358.399 52.5 358.399 55.5C358.399 58.5 358.879 61.23 359.839 63.69C360.859 66.15 362.269 68.28 364.069 70.08C365.869 71.88 367.999 73.26 370.459 74.22C372.919 75.18 375.619 75.66 378.559 75.66C381.679 75.66 384.559 75.06 387.199 73.86C389.839 72.6 392.239 70.71 394.399 68.19L403.759 76.83C400.759 80.49 397.039 83.28 392.599 85.2C388.219 87.12 383.269 88.08 377.749 88.08ZM413.605 87V24H440.875C446.515 24 451.375 24.93 455.455 26.79C459.535 28.59 462.685 31.2 464.905 34.62C467.125 38.04 468.235 42.12 468.235 46.86C468.235 51.54 467.125 55.59 464.905 59.01C462.685 62.37 459.535 64.95 455.455 66.75C451.375 68.55 446.515 69.45 440.875 69.45H421.705L428.185 63.06V87H413.605ZM453.655 87L437.905 64.14H453.475L469.405 87H453.655ZM428.185 64.68L421.705 57.84H440.065C444.565 57.84 447.925 56.88 450.145 54.96C452.365 52.98 453.475 50.28 453.475 46.86C453.475 43.38 452.365 40.68 450.145 38.76C447.925 36.84 444.565 35.88 440.065 35.88H421.705L428.185 28.95V64.68ZM479.786 87V24H494.366V87H479.786ZM509.318 87V24H536.588C542.228 24 547.088 24.93 551.168 26.79C555.248 28.59 558.398 31.2 560.618 34.62C562.838 38.04 563.948 42.12 563.948 46.86C563.948 51.54 562.838 55.59 560.618 59.01C558.398 62.43 555.248 65.07 551.168 66.93C547.088 68.73 542.228 69.63 536.588 69.63H517.418L523.898 63.06V87H509.318ZM523.898 64.68L517.418 57.75H535.778C540.278 57.75 543.638 56.79 545.858 54.87C548.078 52.95 549.188 50.28 549.188 46.86C549.188 43.38 548.078 40.68 545.858 38.76C543.638 36.84 540.278 35.88 535.778 35.88H517.418L523.898 28.95V64.68ZM585.737 87V35.88H565.577V24H620.477V35.88H600.317V87H585.737ZM628.322 87V24H642.902V87H628.322ZM688.453 88.08C683.473 88.08 678.853 87.27 674.593 85.65C670.393 84.03 666.733 81.75 663.613 78.81C660.553 75.87 658.153 72.42 656.413 68.46C654.733 64.5 653.893 60.18 653.893 55.5C653.893 50.82 654.733 46.5 656.413 42.54C658.153 38.58 660.583 35.13 663.703 32.19C666.823 29.25 670.483 26.97 674.683 25.35C678.883 23.73 683.443 22.92 688.363 22.92C693.343 22.92 697.903 23.73 702.043 25.35C706.243 26.97 709.873 29.25 712.933 32.19C716.053 35.13 718.483 38.58 720.223 42.54C721.963 46.44 722.833 50.76 722.833 55.5C722.833 60.18 721.963 64.53 720.223 68.55C718.483 72.51 716.053 75.96 712.933 78.9C709.873 81.78 706.243 84.03 702.043 85.65C697.903 87.27 693.373 88.08 688.453 88.08ZM688.363 75.66C691.183 75.66 693.763 75.18 696.103 74.22C698.503 73.26 700.603 71.88 702.403 70.08C704.203 68.28 705.583 66.15 706.543 63.69C707.563 61.23 708.073 58.5 708.073 55.5C708.073 52.5 707.563 49.77 706.543 47.31C705.583 44.85 704.203 42.72 702.403 40.92C700.663 39.12 698.593 37.74 696.193 36.78C693.793 35.82 691.183 35.34 688.363 35.34C685.543 35.34 682.933 35.82 680.533 36.78C678.193 37.74 676.123 39.12 674.323 40.92C672.523 42.72 671.113 44.85 670.093 47.31C669.133 49.77 668.653 52.5 668.653 55.5C668.653 58.44 669.133 61.17 670.093 63.69C671.113 66.15 672.493 68.28 674.233 70.08C676.033 71.88 678.133 73.26 680.533 74.22C682.933 75.18 685.543 75.66 688.363 75.66ZM733.79 87V24H745.85L783.02 69.36H777.17V24H791.57V87H779.6L742.34 41.64H748.19V87H733.79Z" fill="white"/>
</svg>
