<svg width="1035" height="190" viewBox="0 0 1035 190" fill="none" xmlns="http://www.w3.org/2000/svg">
<rect x="0.5" y="0.5" width="1034" height="189" fill="white"/>
<rect x="0.5" y="0.5" width="1034" height="189" stroke="black"/>
<rect x="21" y="60" width="524" height="64" fill="#59B1D3"/>
<rect x="389" y="101" width="446" height="64" fill="#A8EDAD"/>
<path d="M429.97 112.35H460.21V124.05H429.97V112.35ZM431.05 147H416.47V84H464.08V95.7H431.05V147ZM473.95 147V84H488.53V135.12H520.12V147H473.95ZM571.467 84H586.047V147H571.467V84ZM542.847 147H528.267V84H542.847V147ZM572.547 121.17H541.767V108.84H572.547V121.17ZM600.952 147V84H615.532V135.12H647.122V147H600.952ZM655.269 147V84H667.329L694.149 128.46H687.759L714.129 84H726.099L726.279 147H712.599L712.509 104.97H715.029L693.969 140.34H687.399L665.889 104.97H668.949V147H655.269ZM771.736 148.08C766.816 148.08 762.226 147.27 757.966 145.65C753.766 144.03 750.106 141.75 746.986 138.81C743.926 135.87 741.526 132.42 739.786 128.46C738.106 124.5 737.266 120.18 737.266 115.5C737.266 110.82 738.106 106.5 739.786 102.54C741.526 98.58 743.956 95.13 747.076 92.19C750.196 89.25 753.856 86.97 758.056 85.35C762.256 83.73 766.816 82.92 771.736 82.92C776.716 82.92 781.276 83.73 785.416 85.35C789.616 86.97 793.246 89.25 796.306 92.19C799.426 95.07 801.856 98.49 803.596 102.45C805.336 106.41 806.206 110.76 806.206 115.5C806.206 120.18 805.336 124.53 803.596 128.55C801.856 132.51 799.426 135.96 796.306 138.9C793.246 141.78 789.616 144.03 785.416 145.65C781.276 147.27 776.716 148.08 771.736 148.08ZM792.346 161.49C789.886 161.49 787.546 161.22 785.326 160.68C783.166 160.14 781.006 159.27 778.846 158.07C776.746 156.87 774.526 155.25 772.186 153.21C769.906 151.17 767.416 148.65 764.716 145.65L780.016 141.78C781.636 144 783.136 145.77 784.516 147.09C785.896 148.41 787.216 149.34 788.476 149.88C789.796 150.42 791.176 150.69 792.616 150.69C796.456 150.69 799.876 149.13 802.876 146.01L809.356 153.75C805.096 158.91 799.426 161.49 792.346 161.49ZM771.736 135.66C774.556 135.66 777.136 135.18 779.476 134.22C781.876 133.26 783.976 131.88 785.776 130.08C787.576 128.28 788.956 126.15 789.916 123.69C790.936 121.17 791.446 118.44 791.446 115.5C791.446 112.5 790.936 109.77 789.916 107.31C788.956 104.85 787.576 102.72 785.776 100.92C783.976 99.12 781.876 97.74 779.476 96.78C777.136 95.82 774.556 95.34 771.736 95.34C768.916 95.34 766.306 95.82 763.906 96.78C761.506 97.74 759.406 99.12 757.606 100.92C755.866 102.72 754.486 104.85 753.466 107.31C752.506 109.77 752.026 112.5 752.026 115.5C752.026 118.44 752.506 121.17 753.466 123.69C754.486 126.15 755.866 128.28 757.606 130.08C759.406 131.88 761.506 133.26 763.906 134.22C766.306 135.18 768.916 135.66 771.736 135.66Z" fill="black"/>
<path d="M45.32 106V78H57.44C59.9467 78 62.1067 78.4133 63.92 79.24C65.7333 80.04 67.1333 81.2 68.12 82.72C69.1067 84.24 69.6 86.0533 69.6 88.16C69.6 90.24 69.1067 92.04 68.12 93.56C67.1333 95.08 65.7333 96.2533 63.92 97.08C62.1067 97.88 59.9467 98.28 57.44 98.28H48.92L51.8 95.36V106H45.32ZM51.8 96.08L48.92 93H57.08C59.08 93 60.5733 92.5733 61.56 91.72C62.5467 90.8667 63.04 89.68 63.04 88.16C63.04 86.6133 62.5467 85.4133 61.56 84.56C60.5733 83.7067 59.08 83.28 57.08 83.28H48.92L51.8 80.2V96.08ZM74.2263 106V78H86.3463C88.8529 78 91.0129 78.4133 92.8263 79.24C94.6396 80.04 96.0396 81.2 97.0263 82.72C98.0129 84.24 98.5063 86.0533 98.5063 88.16C98.5063 90.24 98.0129 92.04 97.0263 93.56C96.0396 95.0533 94.6396 96.2 92.8263 97C91.0129 97.8 88.8529 98.2 86.3463 98.2H77.8263L80.7063 95.36V106H74.2263ZM92.0262 106L85.0263 95.84H91.9463L99.0263 106H92.0262ZM80.7063 96.08L77.8263 93.04H85.9863C87.9863 93.04 89.4796 92.6133 90.4663 91.76C91.4529 90.88 91.9463 89.68 91.9463 88.16C91.9463 86.6133 91.4529 85.4133 90.4663 84.56C89.4796 83.7067 87.9863 83.28 85.9863 83.28H77.8263L80.7063 80.2V96.08ZM109.6 89.28H123.08V94.32H109.6V89.28ZM110.08 100.8H125.32V106H103.64V78H124.8V83.2H110.08V100.8ZM139.676 106.48C137.436 106.48 135.29 106.187 133.236 105.6C131.183 104.987 129.53 104.2 128.276 103.24L130.476 98.36C131.676 99.2133 133.09 99.92 134.716 100.48C136.37 101.013 138.036 101.28 139.716 101.28C140.996 101.28 142.023 101.16 142.796 100.92C143.596 100.653 144.183 100.293 144.556 99.84C144.93 99.3867 145.116 98.8667 145.116 98.28C145.116 97.5333 144.823 96.9467 144.236 96.52C143.65 96.0667 142.876 95.7067 141.916 95.44C140.956 95.1467 139.89 94.88 138.716 94.64C137.57 94.3733 136.41 94.0533 135.236 93.68C134.09 93.3067 133.036 92.8267 132.076 92.24C131.116 91.6533 130.33 90.88 129.716 89.92C129.13 88.96 128.836 87.7333 128.836 86.24C128.836 84.64 129.263 83.1867 130.116 81.88C130.996 80.5467 132.303 79.4933 134.036 78.72C135.796 77.92 137.996 77.52 140.636 77.52C142.396 77.52 144.13 77.7333 145.836 78.16C147.543 78.56 149.05 79.1733 150.356 80L148.356 84.92C147.05 84.1733 145.743 83.6267 144.436 83.28C143.13 82.9067 141.85 82.72 140.596 82.72C139.343 82.72 138.316 82.8667 137.516 83.16C136.716 83.4533 136.143 83.84 135.796 84.32C135.45 84.7733 135.276 85.3067 135.276 85.92C135.276 86.64 135.57 87.2267 136.156 87.68C136.743 88.1067 137.516 88.4533 138.476 88.72C139.436 88.9867 140.49 89.2533 141.636 89.52C142.81 89.7867 143.97 90.0933 145.116 90.44C146.29 90.7867 147.356 91.2533 148.316 91.84C149.276 92.4267 150.05 93.2 150.636 94.16C151.25 95.12 151.556 96.3333 151.556 97.8C151.556 99.3733 151.116 100.813 150.236 102.12C149.356 103.427 148.036 104.48 146.276 105.28C144.543 106.08 142.343 106.48 139.676 106.48ZM161.944 89.28H175.424V94.32H161.944V89.28ZM162.424 100.8H177.664V106H155.984V78H177.144V83.2H162.424V100.8ZM182.82 106V78H188.18L204.7 98.16H202.1V78H208.5V106H203.18L186.62 85.84H189.22V106H182.82ZM220.925 106V83.28H211.965V78H236.365V83.28H227.405V106H220.925ZM234.765 106L247.245 78H253.645L266.165 106H259.365L249.125 81.28H251.685L241.405 106H234.765ZM241.005 100L242.725 95.08H257.125L258.885 100H241.005ZM273.464 106V83.28H264.504V78H288.904V83.28H279.944V106H273.464ZM292.39 106V78H298.87V106H292.39ZM319.115 106.48C316.902 106.48 314.849 106.12 312.955 105.4C311.089 104.68 309.462 103.667 308.075 102.36C306.715 101.053 305.649 99.52 304.875 97.76C304.129 96 303.755 94.08 303.755 92C303.755 89.92 304.129 88 304.875 86.24C305.649 84.48 306.729 82.9467 308.115 81.64C309.502 80.3333 311.129 79.32 312.995 78.6C314.862 77.88 316.889 77.52 319.075 77.52C321.289 77.52 323.315 77.88 325.155 78.6C327.022 79.32 328.635 80.3333 329.995 81.64C331.382 82.9467 332.462 84.48 333.235 86.24C334.009 87.9733 334.395 89.8933 334.395 92C334.395 94.08 334.009 96.0133 333.235 97.8C332.462 99.56 331.382 101.093 329.995 102.4C328.635 103.68 327.022 104.68 325.155 105.4C323.315 106.12 321.302 106.48 319.115 106.48ZM319.075 100.96C320.329 100.96 321.475 100.747 322.515 100.32C323.582 99.8933 324.515 99.28 325.315 98.48C326.115 97.68 326.729 96.7333 327.155 95.64C327.609 94.5467 327.835 93.3333 327.835 92C327.835 90.6667 327.609 89.4533 327.155 88.36C326.729 87.2667 326.115 86.32 325.315 85.52C324.542 84.72 323.622 84.1067 322.555 83.68C321.489 83.2533 320.329 83.04 319.075 83.04C317.822 83.04 316.662 83.2533 315.595 83.68C314.555 84.1067 313.635 84.72 312.835 85.52C312.035 86.32 311.409 87.2667 310.955 88.36C310.529 89.4533 310.315 90.6667 310.315 92C310.315 93.3067 310.529 94.52 310.955 95.64C311.409 96.7333 312.022 97.68 312.795 98.48C313.595 99.28 314.529 99.8933 315.595 100.32C316.662 100.747 317.822 100.96 319.075 100.96ZM339.265 106V78H344.625L361.145 98.16H358.545V78H364.945V106H359.625L343.065 85.84H345.665V106H339.265Z" fill="black"/>
<rect x="946.121" y="115.36" width="13.3055" height="13" transform="rotate(-43.9744 946.121 115.36)" fill="#59B1D3" stroke="#24395C" stroke-width="3"/>
<circle cx="912" cy="71" r="54.5" fill="#59B1D3" stroke="#24395C" stroke-width="3"/>
<circle cx="912.5" cy="70.5" r="40" fill="white" stroke="#24395C" stroke-width="3"/>
<path d="M956.245 130.989C954.52 129.201 954.571 126.352 956.359 124.626L965.046 116.245C966.835 114.52 969.683 114.571 971.409 116.359L1004.94 151.111C1008.98 155.299 1008.86 161.968 1004.67 166.008C1000.48 170.048 993.815 169.929 989.775 165.742L956.245 130.989Z" fill="#59B1D3" stroke="#24395C" stroke-width="3"/>
<rect x="932" y="48" width="14" height="6" rx="3" fill="#A8EDAD"/>
<rect x="879" y="48" width="14" height="6" rx="3" fill="#A8EDAD"/>
<rect x="890.769" y="32" width="14" height="6" rx="3" transform="rotate(38.9055 890.769 32)" fill="#A8EDAD"/>
<rect x="937.633" y="34.8828" width="14" height="6" rx="3" transform="rotate(130.315 937.633 34.8828)" fill="#A8EDAD"/>
<path d="M920.5 88H905C905 84 901.5 76 898 71.5C895.5 68.2863 894.833 62.1667 895 59.5C896.6 48.3 906.666 44.5 911.5 44C914.333 43.6666 921.2 44.2 926 49C932 55 933 65.5 927 73C922.2 79 920.167 85.5 920.5 88Z" fill="#59B1D3" stroke="#24395C" stroke-width="3" stroke-linejoin="round"/>
<rect x="916" y="24" width="14" height="6" rx="3" transform="rotate(89.3704 916 24)" fill="#A8EDAD"/>
<circle cx="913.5" cy="78.5" r="3.5" fill="#24395C"/>
<rect x="911" y="51" width="5" height="21" fill="#24395C"/>
<path d="M920.941 98C920.445 102.141 916.903 105 913.028 105C909.276 105 906.429 102.256 906.044 98H920.941Z" fill="#92C996" stroke="#24395C" stroke-width="2"/>
<rect x="905" y="93" width="17" height="6" rx="1" fill="#92C996" stroke="#24395C" stroke-width="2"/>
<rect x="903" y="88" width="20" height="6" rx="1" fill="#92C996" stroke="#24395C" stroke-width="2"/>
</svg>
