<svg width="2076" height="676" viewBox="0 0 2076 676" fill="none" xmlns="http://www.w3.org/2000/svg">
<rect width="320.932" height="162.944" transform="matrix(-1 0 0 1 1401.67 631.056)" fill="#59B1D3"/>
<rect width="257.299" height="302.362" transform="matrix(-1 0 0 1 1338.03 449.813)" fill="#59B1D3"/>
<path d="M1311.75 563.09L1221.9 631.056H1401.6L1311.75 563.09Z" fill="#59B1D3"/>
<rect width="391.021" height="214.354" transform="matrix(-1 0 0 1 1184.02 579.646)" fill="#59B1D3"/>
<rect x="814.211" y="558.733" width="237.933" height="28.7549" fill="#59B1D3"/>
<rect x="834.5" y="604.915" width="110.666" height="28.7549" fill="white"/>
<rect x="970.988" y="603.172" width="56.2554" height="30.4976" fill="white"/>
<rect x="834.5" y="665.039" width="110.666" height="28.7549" fill="white"/>
<rect x="970.988" y="663.296" width="56.2554" height="30.4976" fill="white"/>
<rect x="1122.23" y="475" width="31.3555" height="44" fill="white"/>
<rect x="1175.72" y="475" width="31.3555" height="44" fill="white"/>
<rect x="1229.21" y="475" width="31.3555" height="44" fill="white"/>
<rect x="1122.23" y="545" width="31.3555" height="43" fill="white"/>
<rect x="1175.72" y="545" width="31.3555" height="43" fill="white"/>
<rect x="1229.21" y="545" width="31.3555" height="43" fill="white"/>
<rect x="1122.23" y="624.085" width="213.033" height="20.0413" fill="white"/>
<rect x="1122.23" y="658.939" width="213.033" height="20.0413" fill="white"/>
<rect x="1114.85" y="435" width="223.177" height="20.0413" fill="#59B1D3"/>
</svg>
