<svg width="1244" height="210" viewBox="0 0 1244 210" fill="none" xmlns="http://www.w3.org/2000/svg">
<rect width="1244" height="210" fill="white"/>
<rect y="53" width="604" height="74" fill="#59B1D3"/>
<rect x="234" y="93" width="699" height="64" fill="#A8EDAD"/>
<path d="M47.064 110.576C44.472 110.576 42.056 110.16 39.816 109.328C37.608 108.464 35.688 107.248 34.056 105.68C32.424 104.112 31.144 102.272 30.216 100.16C29.32 98.048 28.872 95.728 28.872 93.2C28.872 90.672 29.32 88.352 30.216 86.24C31.144 84.128 32.424 82.288 34.056 80.72C35.72 79.152 37.656 77.952 39.864 77.12C42.072 76.256 44.488 75.824 47.112 75.824C50.024 75.824 52.648 76.336 54.984 77.36C57.352 78.352 59.336 79.824 60.936 81.776L55.944 86.384C54.792 85.072 53.512 84.096 52.104 83.456C50.696 82.784 49.16 82.448 47.496 82.448C45.928 82.448 44.488 82.704 43.176 83.216C41.864 83.728 40.728 84.464 39.768 85.424C38.808 86.384 38.056 87.52 37.512 88.832C37 90.144 36.744 91.6 36.744 93.2C36.744 94.8 37 96.256 37.512 97.568C38.056 98.88 38.808 100.016 39.768 100.976C40.728 101.936 41.864 102.672 43.176 103.184C44.488 103.696 45.928 103.952 47.496 103.952C49.16 103.952 50.696 103.632 52.104 102.992C53.512 102.32 54.792 101.312 55.944 99.968L60.936 104.576C59.336 106.528 57.352 108.016 54.984 109.04C52.648 110.064 50.008 110.576 47.064 110.576ZM81.804 110.576C79.148 110.576 76.684 110.144 74.412 109.28C72.172 108.416 70.22 107.2 68.556 105.632C66.924 104.064 65.644 102.224 64.716 100.112C63.82 98 63.372 95.696 63.372 93.2C63.372 90.704 63.82 88.4 64.716 86.288C65.644 84.176 66.94 82.336 68.604 80.768C70.268 79.2 72.22 77.984 74.46 77.12C76.7 76.256 79.132 75.824 81.756 75.824C84.412 75.824 86.844 76.256 89.052 77.12C91.292 77.984 93.228 79.2 94.86 80.768C96.524 82.336 97.82 84.176 98.748 86.288C99.676 88.368 100.14 90.672 100.14 93.2C100.14 95.696 99.676 98.016 98.748 100.16C97.82 102.272 96.524 104.112 94.86 105.68C93.228 107.216 91.292 108.416 89.052 109.28C86.844 110.144 84.428 110.576 81.804 110.576ZM81.756 103.952C83.26 103.952 84.636 103.696 85.884 103.184C87.164 102.672 88.284 101.936 89.244 100.976C90.204 100.016 90.94 98.88 91.452 97.568C91.996 96.256 92.268 94.8 92.268 93.2C92.268 91.6 91.996 90.144 91.452 88.832C90.94 87.52 90.204 86.384 89.244 85.424C88.316 84.464 87.212 83.728 85.932 83.216C84.652 82.704 83.26 82.448 81.756 82.448C80.252 82.448 78.86 82.704 77.58 83.216C76.332 83.728 75.228 84.464 74.268 85.424C73.308 86.384 72.556 87.52 72.012 88.832C71.5 90.144 71.244 91.6 71.244 93.2C71.244 94.768 71.5 96.224 72.012 97.568C72.556 98.88 73.292 100.016 74.22 100.976C75.18 101.936 76.3 102.672 77.58 103.184C78.86 103.696 80.252 103.952 81.756 103.952ZM105.984 110V76.4H112.416L126.72 100.112H123.312L137.376 76.4H143.76L143.856 110H136.56L136.512 87.584H137.856L126.624 106.448H123.12L111.648 87.584H113.28V110H105.984ZM151.828 110V76.4H159.604V110H151.828ZM174.538 110V82.736H163.786V76.4H193.066V82.736H182.314V110H174.538ZM204.402 89.936H220.578V95.984H204.402V89.936ZM204.978 103.76H223.266V110H197.25V76.4H222.642V82.64H204.978V103.76ZM205.602 73.664L212.082 66.752H220.146L211.458 73.664H205.602Z" fill="black"/>
<path d="M295.62 140.08C290.76 140.08 286.23 139.3 282.03 137.74C277.89 136.12 274.29 133.84 271.23 130.9C268.17 127.96 265.77 124.51 264.03 120.55C262.35 116.59 261.51 112.24 261.51 107.5C261.51 102.76 262.35 98.41 264.03 94.45C265.77 90.49 268.17 87.04 271.23 84.1C274.35 81.16 277.98 78.91 282.12 77.35C286.26 75.73 290.79 74.92 295.71 74.92C301.17 74.92 306.09 75.88 310.47 77.8C314.91 79.66 318.63 82.42 321.63 86.08L312.27 94.72C310.11 92.26 307.71 90.43 305.07 89.23C302.43 87.97 299.55 87.34 296.43 87.34C293.49 87.34 290.79 87.82 288.33 88.78C285.87 89.74 283.74 91.12 281.94 92.92C280.14 94.72 278.73 96.85 277.71 99.31C276.75 101.77 276.27 104.5 276.27 107.5C276.27 110.5 276.75 113.23 277.71 115.69C278.73 118.15 280.14 120.28 281.94 122.08C283.74 123.88 285.87 125.26 288.33 126.22C290.79 127.18 293.49 127.66 296.43 127.66C299.55 127.66 302.43 127.06 305.07 125.86C307.71 124.6 310.11 122.71 312.27 120.19L321.63 128.83C318.63 132.49 314.91 135.28 310.47 137.2C306.09 139.12 301.14 140.08 295.62 140.08ZM360.758 140.08C355.778 140.08 351.158 139.27 346.898 137.65C342.698 136.03 339.038 133.75 335.917 130.81C332.858 127.87 330.458 124.42 328.718 120.46C327.038 116.5 326.198 112.18 326.198 107.5C326.198 102.82 327.038 98.5 328.718 94.54C330.458 90.58 332.888 87.13 336.008 84.19C339.128 81.25 342.788 78.97 346.988 77.35C351.188 75.73 355.748 74.92 360.668 74.92C365.648 74.92 370.207 75.73 374.348 77.35C378.548 78.97 382.178 81.25 385.238 84.19C388.358 87.13 390.788 90.58 392.528 94.54C394.268 98.44 395.138 102.76 395.138 107.5C395.138 112.18 394.268 116.53 392.528 120.55C390.788 124.51 388.358 127.96 385.238 130.9C382.178 133.78 378.548 136.03 374.348 137.65C370.207 139.27 365.677 140.08 360.758 140.08ZM360.668 127.66C363.488 127.66 366.068 127.18 368.408 126.22C370.808 125.26 372.908 123.88 374.708 122.08C376.508 120.28 377.888 118.15 378.848 115.69C379.868 113.23 380.378 110.5 380.378 107.5C380.378 104.5 379.868 101.77 378.848 99.31C377.888 96.85 376.508 94.72 374.708 92.92C372.968 91.12 370.898 89.74 368.498 88.78C366.098 87.82 363.488 87.34 360.668 87.34C357.848 87.34 355.238 87.82 352.838 88.78C350.498 89.74 348.428 91.12 346.628 92.92C344.828 94.72 343.418 96.85 342.398 99.31C341.438 101.77 340.958 104.5 340.958 107.5C340.958 110.44 341.438 113.17 342.398 115.69C343.418 118.15 344.798 120.28 346.538 122.08C348.338 123.88 350.438 125.26 352.838 126.22C355.238 127.18 357.848 127.66 360.668 127.66ZM406.095 139V76H418.155L455.325 121.36H449.475V76H463.875V139H451.905L414.645 93.64H420.495V139H406.095ZM499.481 140.08C494.441 140.08 489.611 139.42 484.991 138.1C480.371 136.72 476.651 134.95 473.831 132.79L478.781 121.81C481.481 123.73 484.661 125.32 488.321 126.58C492.041 127.78 495.791 128.38 499.571 128.38C502.451 128.38 504.761 128.11 506.501 127.57C508.301 126.97 509.621 126.16 510.461 125.14C511.301 124.12 511.721 122.95 511.721 121.63C511.721 119.95 511.061 118.63 509.741 117.67C508.421 116.65 506.681 115.84 504.521 115.24C502.361 114.58 499.961 113.98 497.321 113.44C494.741 112.84 492.131 112.12 489.491 111.28C486.911 110.44 484.541 109.36 482.381 108.04C480.221 106.72 478.451 104.98 477.071 102.82C475.751 100.66 475.091 97.9 475.091 94.54C475.091 90.94 476.051 87.67 477.971 84.73C479.951 81.73 482.891 79.36 486.791 77.62C490.751 75.82 495.701 74.92 501.641 74.92C505.601 74.92 509.501 75.4 513.341 76.36C517.181 77.26 520.571 78.64 523.511 80.5L519.011 91.57C516.071 89.89 513.131 88.66 510.191 87.88C507.251 87.04 504.371 86.62 501.551 86.62C498.731 86.62 496.421 86.95 494.621 87.61C492.821 88.27 491.531 89.14 490.751 90.22C489.971 91.24 489.581 92.44 489.581 93.82C489.581 95.44 490.241 96.76 491.561 97.78C492.881 98.74 494.621 99.52 496.781 100.12C498.941 100.72 501.311 101.32 503.891 101.92C506.531 102.52 509.141 103.21 511.721 103.99C514.361 104.77 516.761 105.82 518.921 107.14C521.081 108.46 522.821 110.2 524.141 112.36C525.521 114.52 526.211 117.25 526.211 120.55C526.211 124.09 525.221 127.33 523.241 130.27C521.261 133.21 518.291 135.58 514.331 137.38C510.431 139.18 505.481 140.08 499.481 140.08ZM564.163 140.08C555.223 140.08 548.233 137.59 543.193 132.61C538.153 127.63 535.633 120.52 535.633 111.28V76H550.213V110.74C550.213 116.74 551.443 121.06 553.903 123.7C556.363 126.34 559.813 127.66 564.253 127.66C568.693 127.66 572.143 126.34 574.603 123.7C577.063 121.06 578.293 116.74 578.293 110.74V76H592.693V111.28C592.693 120.52 590.173 127.63 585.133 132.61C580.093 137.59 573.103 140.08 564.163 140.08ZM607.101 139V76H621.681V127.12H653.271V139H607.101ZM668.579 139V87.88H648.419V76H703.319V87.88H683.159V139H668.579ZM699.719 139L727.799 76H742.199L770.369 139H755.069L732.029 83.38H737.789L714.659 139H699.719ZM713.759 125.5L717.629 114.43H750.029L753.989 125.5H713.759ZM786.791 139V87.88H766.631V76H821.531V87.88H801.371V139H786.791ZM829.376 139V76H843.956V139H829.376ZM872.408 104.35H902.648V116.05H872.408V104.35ZM873.488 139H858.908V76H906.518V87.7H873.488V139Z" fill="black"/>
<circle cx="1163.6" cy="47.7973" r="31.7973" fill="white" stroke="#88EC92" stroke-width="8"/>
<path d="M1219.01 156.663C1175.86 178.24 1127.8 165.654 1109.17 156.663V122.337C1109.17 88.5005 1146.44 83.7591 1164.58 83.5977C1208.91 83.2054 1219.34 112.203 1219.01 126.751V156.663Z" fill="white" stroke="#88EC92" stroke-width="8"/>
<circle cx="1019.43" cy="47.7973" r="31.7973" fill="white" stroke="#579DF8" stroke-width="8"/>
<path d="M1074.84 156.663C1031.69 178.24 983.634 165.654 965 156.663V122.337C965 88.5005 1002.27 83.7591 1020.41 83.5977C1064.74 83.2054 1075.17 112.203 1074.84 126.751V156.663Z" fill="white" stroke="#579DF8" stroke-width="8"/>
<circle cx="1094.95" cy="77.2191" r="31.7973" fill="white" stroke="#24395C" stroke-width="8"/>
<path d="M1150.36 186.087C1107.21 207.664 1059.15 195.077 1040.52 186.087V151.761C1040.52 117.924 1077.79 113.183 1095.93 113.022C1140.26 112.629 1150.69 141.627 1150.36 156.174V186.087Z" fill="white" stroke="#24395C" stroke-width="8"/>
</svg>
