<svg width="2076" height="639" viewBox="0 0 2076 639" fill="none" xmlns="http://www.w3.org/2000/svg">
<rect width="320.932" height="162.944" transform="matrix(-1 0 0 1 234.665 277.056)" fill="#59B1D3"/>
<rect width="257.299" height="302.362" transform="matrix(-1 0 0 1 171.031 95.8135)" fill="#59B1D3"/>
<path d="M144.748 209.09L54.8985 277.056H234.598L144.748 209.09Z" fill="#59B1D3"/>
<rect width="391.021" height="214.354" transform="matrix(-1 0 0 1 17.0215 225.646)" fill="#59B1D3"/>
<rect x="8.7207" y="121" width="31.3555" height="44" fill="white"/>
<rect x="62.21" y="121" width="31.3555" height="44" fill="white"/>
<rect x="8.7207" y="191" width="31.3555" height="43" fill="white"/>
<rect x="62.21" y="191" width="31.3555" height="43" fill="white"/>
<rect x="-44.7676" y="270.085" width="213.033" height="20.0413" fill="white"/>
<rect x="-44.7676" y="304.939" width="213.033" height="20.0413" fill="white"/>
<rect x="-44.7676" y="343.279" width="213.033" height="20.0413" fill="white"/>
<rect x="-44.7676" y="379.877" width="213.033" height="20.0413" fill="white"/>
<rect x="-52.1455" y="81" width="223.177" height="20.0413" fill="#59B1D3"/>
<path fill-rule="evenodd" clip-rule="evenodd" d="M2023.56 0V95H2001.7V112H1948.17V294.165L1864.04 274.489V43H1663V302V335V351V366V639H1948.17H1975.48H2076V128V112L2076 105V0H2023.56Z" fill="#103162"/>
<rect width="79.7593" height="10" transform="matrix(-1 0 0 1 1831.26 74)" fill="white"/>
<rect width="79.7593" height="9" transform="matrix(-1 0 0 1 1831.26 92)" fill="white"/>
<rect width="79.7593" height="10" transform="matrix(-1 0 0 1 1831.26 158)" fill="white"/>
<rect width="79.7593" height="9" transform="matrix(-1 0 0 1 1831.26 176)" fill="white"/>
<rect width="79.7593" height="10" transform="matrix(-1 0 0 1 1831.26 242)" fill="white"/>
<rect width="79.7593" height="9" transform="matrix(-1 0 0 1 1831.26 260)" fill="white"/>
<rect width="79.7593" height="10" transform="matrix(-1 0 0 1 1831.26 326)" fill="white"/>
<rect width="79.7593" height="9" transform="matrix(-1 0 0 1 1831.26 344)" fill="white"/>
<rect width="18.5741" height="30" transform="matrix(-1 0 0 1 2076 151)" fill="white"/>
<rect width="21.8519" height="30" transform="matrix(-1 0 0 1 2023.56 151)" fill="white"/>
<rect width="18.5741" height="30" transform="matrix(-1 0 0 1 2076 241)" fill="white"/>
<rect width="21.8519" height="30" transform="matrix(-1 0 0 1 2023.56 241)" fill="white"/>
<rect width="18.5741" height="30" transform="matrix(-1 0 0 1 2076 342)" fill="white"/>
<rect width="21.8519" height="30" transform="matrix(-1 0 0 1 2023.56 342)" fill="white"/>
<rect width="18.5741" height="30" transform="matrix(-1 0 0 1 2076 432)" fill="white"/>
<rect width="21.8519" height="30" transform="matrix(-1 0 0 1 2023.56 432)" fill="white"/>
<rect width="18.5741" height="30" transform="matrix(-1 0 0 1 2076 536)" fill="white"/>
<rect width="21.8519" height="30" transform="matrix(-1 0 0 1 2023.56 536)" fill="white"/>
<rect width="21.8519" height="38" transform="matrix(-1 0 0 1 1724.19 69)" fill="white"/>
<rect width="21.8519" height="38" transform="matrix(-1 0 0 1 1724.19 153)" fill="white"/>
<rect width="21.8519" height="38" transform="matrix(-1 0 0 1 1724.19 237)" fill="white"/>
<rect width="21.8519" height="38" transform="matrix(-1 0 0 1 1724.19 321)" fill="white"/>
<rect width="21.8519" height="38" transform="matrix(-1 0 0 1 1724.19 405)" fill="white"/>
<rect width="21.8519" height="38" transform="matrix(-1 0 0 1 1777.72 405)" fill="white"/>
<rect width="21.8519" height="38" transform="matrix(-1 0 0 1 1826.89 405)" fill="white"/>
<rect width="21.8519" height="38" transform="matrix(-1 0 0 1 1777.72 523)" fill="white"/>
<rect width="21.8519" height="38" transform="matrix(-1 0 0 1 1826.89 523)" fill="white"/>
<rect width="21.8519" height="38" transform="matrix(-1 0 0 1 1724.19 523)" fill="white"/>
<rect width="18.5741" height="76" transform="matrix(-1 0 0 1 2076 37)" fill="white"/>
</svg>
