<svg width="1405" height="525" viewBox="0 0 1405 525" fill="none" xmlns="http://www.w3.org/2000/svg">
<path fill-rule="evenodd" clip-rule="evenodd" d="M459.5 79L510.282 113H519V253H563V273H598V716H550H399H193V314H346.02L399 259.643V113H408.718L459.5 79Z" fill="#8AE190"/>
<rect x="207" y="358" width="139" height="10" fill="white"/>
<rect x="207" y="380" width="139" height="10" fill="white"/>
<rect x="207" y="433" width="20" height="35" fill="white"/>
<rect x="266" y="433" width="20" height="35" fill="white"/>
<rect x="326" y="433" width="20" height="35" fill="white"/>
<rect x="411" y="339" width="20" height="35" fill="white"/>
<rect x="470" y="339" width="20" height="35" fill="white"/>
<rect x="530" y="339" width="20" height="35" fill="white"/>
<rect x="411" y="413" width="20" height="35" fill="white"/>
<rect x="470" y="413" width="20" height="35" fill="white"/>
<rect x="530" y="413" width="20" height="35" fill="white"/>
<rect x="411" y="489" width="20" height="35" fill="white"/>
<rect x="470" y="489" width="20" height="35" fill="white"/>
<rect x="530" y="489" width="20" height="35" fill="white"/>
<rect x="207" y="498" width="20" height="35" fill="white"/>
<rect x="266" y="498" width="20" height="35" fill="white"/>
<rect x="326" y="498" width="20" height="35" fill="white"/>
<rect x="453" y="59" width="10" height="43" fill="#8AE190"/>
<rect x="422" y="128" width="23" height="54" fill="white"/>
<rect x="422" y="202" width="23" height="54" fill="white"/>
<rect x="471" y="128" width="23" height="54" fill="white"/>
<rect x="471" y="202" width="23" height="54" fill="white"/>
<rect y="445" width="223" height="234" fill="#B8B8B8"/>
<path d="M218.441 532.837L217.582 465.382L285.896 533.696L218.441 532.837Z" fill="#B8B8B8"/>
<rect y="231" width="223" height="218" fill="#B8B8B8"/>
<rect x="248" y="141" width="136" height="538" fill="#B8B8B8"/>
<rect x="379" y="398" width="98" height="281" fill="#B8B8B8"/>
<rect x="272" y="107" width="85" height="91" fill="#B8B8B8"/>
<rect x="297" y="141" width="38" height="42" fill="white"/>
<ellipse cx="316" cy="143.5" rx="19" ry="15.5" fill="white"/>
<rect x="263" y="201" width="106" height="9" fill="white"/>
<rect x="263" y="245" width="15" height="56" fill="white"/>
<rect x="293" y="245" width="15" height="56" fill="white"/>
<rect x="323" y="245" width="15" height="56" fill="white"/>
<rect x="353" y="245" width="15" height="56" fill="white"/>
<rect x="263" y="343" width="15" height="56" fill="white"/>
<rect x="293" y="343" width="15" height="56" fill="white"/>
<rect x="323" y="343" width="15" height="56" fill="white"/>
<rect x="353" y="343" width="15" height="56" fill="white"/>
<rect x="263" y="435" width="195" height="7" fill="white"/>
<rect x="379" y="475" width="25" height="25" fill="white"/>
<rect x="428" y="475" width="25" height="25" fill="white"/>
<rect x="263" y="475" width="25" height="25" fill="white"/>
<rect x="312" y="475" width="25" height="25" fill="white"/>
<rect x="56" y="264" width="30" height="35" fill="white"/>
<rect x="107" y="264" width="30" height="35" fill="white"/>
<rect x="158" y="264" width="30" height="35" fill="white"/>
<rect x="56" y="345" width="30" height="35" fill="white"/>
<rect x="107" y="345" width="30" height="35" fill="white"/>
<rect x="158" y="345" width="30" height="35" fill="white"/>
<rect x="56" y="430" width="30" height="35" fill="white"/>
<rect x="107" y="430" width="30" height="35" fill="white"/>
<rect x="158" y="430" width="30" height="35" fill="white"/>
<rect x="56" y="511" width="30" height="35" fill="white"/>
<rect x="107" y="511" width="30" height="35" fill="white"/>
<rect x="158" y="511" width="30" height="35" fill="white"/>
<rect x="26" y="206" width="132" height="30" fill="#B8B8B8"/>
<path fill-rule="evenodd" clip-rule="evenodd" d="M1266.5 20L1317.28 54H1326V194H1370V214H1405V657H1357H1206H1000V255H1153.02L1206 200.643V54H1215.72L1266.5 20Z" fill="#8AE190"/>
<rect x="1014" y="299" width="139" height="10" fill="white"/>
<rect x="1014" y="321" width="139" height="10" fill="white"/>
<rect x="1014" y="374" width="20" height="35" fill="white"/>
<rect x="1073" y="374" width="20" height="35" fill="white"/>
<rect x="1133" y="374" width="20" height="35" fill="white"/>
<rect x="1218" y="280" width="20" height="35" fill="white"/>
<rect x="1277" y="280" width="20" height="35" fill="white"/>
<rect x="1337" y="280" width="20" height="35" fill="white"/>
<rect x="1218" y="354" width="20" height="35" fill="white"/>
<rect x="1277" y="354" width="20" height="35" fill="white"/>
<rect x="1337" y="354" width="20" height="35" fill="white"/>
<rect x="1218" y="430" width="20" height="35" fill="white"/>
<rect x="1277" y="430" width="20" height="35" fill="white"/>
<rect x="1337" y="430" width="20" height="35" fill="white"/>
<rect x="1218" y="503" width="20" height="35" fill="white"/>
<rect x="1277" y="503" width="20" height="35" fill="white"/>
<rect x="1337" y="503" width="20" height="35" fill="white"/>
<rect x="1014" y="439" width="20" height="35" fill="white"/>
<rect x="1073" y="439" width="20" height="35" fill="white"/>
<rect x="1133" y="439" width="20" height="35" fill="white"/>
<rect x="1014" y="508" width="20" height="35" fill="white"/>
<rect x="1073" y="508" width="20" height="35" fill="white"/>
<rect x="1133" y="508" width="20" height="35" fill="white"/>
<rect x="1260" width="10" height="43" fill="#8AE190"/>
<rect x="1229" y="69" width="23" height="54" fill="white"/>
<rect x="1229" y="143" width="23" height="54" fill="white"/>
<rect x="1278" y="69" width="23" height="54" fill="white"/>
<rect x="1278" y="143" width="23" height="54" fill="white"/>
</svg>
