<svg width="1440" height="7375" viewBox="0 0 1440 7375" fill="none" xmlns="http://www.w3.org/2000/svg">
<path d="M1044.82 5435.72H1087.83V5452.36H1044.82V5435.72ZM1046.36 5485H1025.62V5395.4H1093.34V5412.04H1046.36V5485ZM1107.37 5485V5395.4H1128.11V5468.1H1173.04V5485H1107.37ZM1246.06 5395.4H1266.8V5485H1246.06V5395.4ZM1205.36 5485H1184.62V5395.4H1205.36V5485ZM1247.6 5448.26H1203.82V5430.73H1247.6V5448.26ZM1288 5485V5395.4H1308.74V5468.1H1353.66V5485H1288ZM1365.25 5485V5395.4H1382.4L1420.55 5458.63H1411.46L1448.96 5395.4H1465.99L1466.24 5485H1446.79L1446.66 5425.22H1450.24L1420.29 5475.53H1410.95L1380.35 5425.22H1384.71V5485H1365.25ZM1530.89 5486.54C1523.89 5486.54 1517.37 5485.38 1511.31 5483.08C1505.33 5480.78 1500.13 5477.53 1495.69 5473.35C1491.34 5469.17 1487.93 5464.26 1485.45 5458.63C1483.06 5453 1481.87 5446.86 1481.87 5440.2C1481.87 5433.54 1483.06 5427.4 1485.45 5421.77C1487.93 5416.14 1491.38 5411.23 1495.82 5407.05C1500.26 5402.87 1505.46 5399.62 1511.44 5397.32C1517.41 5395.02 1523.89 5393.86 1530.89 5393.86C1537.97 5393.86 1544.46 5395.02 1550.35 5397.32C1556.32 5399.62 1561.48 5402.87 1565.84 5407.05C1570.27 5411.14 1573.73 5416.01 1576.2 5421.64C1578.68 5427.27 1579.92 5433.46 1579.92 5440.2C1579.92 5446.86 1578.68 5453.04 1576.2 5458.76C1573.73 5464.39 1570.27 5469.3 1565.84 5473.48C1561.48 5477.58 1556.32 5480.78 1550.35 5483.08C1544.46 5485.38 1537.97 5486.54 1530.89 5486.54ZM1560.2 5505.61C1556.7 5505.61 1553.38 5505.22 1550.22 5504.46C1547.15 5503.69 1544.08 5502.45 1541 5500.74C1538.02 5499.04 1534.86 5496.73 1531.53 5493.83C1528.29 5490.93 1524.75 5487.35 1520.91 5483.08L1542.67 5477.58C1544.97 5480.73 1547.1 5483.25 1549.07 5485.13C1551.03 5487.01 1552.91 5488.33 1554.7 5489.1C1556.58 5489.86 1558.54 5490.25 1560.59 5490.25C1566.05 5490.25 1570.91 5488.03 1575.18 5483.59L1584.4 5494.6C1578.34 5501.94 1570.27 5505.61 1560.2 5505.61ZM1530.89 5468.87C1534.9 5468.87 1538.57 5468.19 1541.9 5466.82C1545.31 5465.46 1548.3 5463.5 1550.86 5460.94C1553.42 5458.38 1555.38 5455.35 1556.75 5451.85C1558.2 5448.26 1558.92 5444.38 1558.92 5440.2C1558.92 5435.93 1558.2 5432.05 1556.75 5428.55C1555.38 5425.05 1553.42 5422.02 1550.86 5419.46C1548.3 5416.9 1545.31 5414.94 1541.9 5413.58C1538.57 5412.21 1534.9 5411.53 1530.89 5411.53C1526.88 5411.53 1523.17 5412.21 1519.76 5413.58C1516.34 5414.94 1513.36 5416.9 1510.8 5419.46C1508.32 5422.02 1506.36 5425.05 1504.91 5428.55C1503.54 5432.05 1502.86 5435.93 1502.86 5440.2C1502.86 5444.38 1503.54 5448.26 1504.91 5451.85C1506.36 5455.35 1508.32 5458.38 1510.8 5460.94C1513.36 5463.5 1516.34 5465.46 1519.76 5466.82C1523.17 5468.19 1526.88 5468.87 1530.89 5468.87Z" fill="white"/>
<path d="M948.824 2712.72H991.832V2729.36H948.824V2712.72ZM950.36 2762H929.624V2672.4H997.336V2689.04H950.36V2762ZM1011.37 2762V2672.4H1032.11V2745.1H1077.04V2762H1011.37ZM1150.06 2672.4H1170.8V2762H1150.06V2672.4ZM1109.36 2762H1088.62V2672.4H1109.36V2762ZM1151.6 2725.26H1107.82V2707.73H1151.6V2725.26ZM1192 2762V2672.4H1212.74V2745.1H1257.66V2762H1192ZM1269.25 2762V2672.4H1286.4L1324.55 2735.63H1315.46L1352.96 2672.4H1369.99L1370.24 2762H1350.79L1350.66 2702.22H1354.24L1324.29 2752.53H1314.95L1284.35 2702.22H1288.71V2762H1269.25ZM1434.89 2763.54C1427.89 2763.54 1421.37 2762.38 1415.31 2760.08C1409.33 2757.78 1404.13 2754.53 1399.69 2750.35C1395.34 2746.17 1391.93 2741.26 1389.45 2735.63C1387.06 2730 1385.87 2723.86 1385.87 2717.2C1385.87 2710.54 1387.06 2704.4 1389.45 2698.77C1391.93 2693.14 1395.38 2688.23 1399.82 2684.05C1404.26 2679.87 1409.46 2676.62 1415.44 2674.32C1421.41 2672.02 1427.89 2670.86 1434.89 2670.86C1441.97 2670.86 1448.46 2672.02 1454.35 2674.32C1460.32 2676.62 1465.48 2679.87 1469.84 2684.05C1474.27 2688.14 1477.73 2693.01 1480.2 2698.64C1482.68 2704.27 1483.92 2710.46 1483.92 2717.2C1483.92 2723.86 1482.68 2730.04 1480.2 2735.76C1477.73 2741.39 1474.27 2746.3 1469.84 2750.48C1465.48 2754.58 1460.32 2757.78 1454.35 2760.08C1448.46 2762.38 1441.97 2763.54 1434.89 2763.54ZM1464.2 2782.61C1460.7 2782.61 1457.38 2782.22 1454.22 2781.46C1451.15 2780.69 1448.08 2779.45 1445 2777.74C1442.02 2776.04 1438.86 2773.73 1435.53 2770.83C1432.29 2767.93 1428.75 2764.35 1424.91 2760.08L1446.67 2754.58C1448.97 2757.73 1451.1 2760.25 1453.07 2762.13C1455.03 2764.01 1456.91 2765.33 1458.7 2766.1C1460.58 2766.86 1462.54 2767.25 1464.59 2767.25C1470.05 2767.25 1474.91 2765.03 1479.18 2760.59L1488.4 2771.6C1482.34 2778.94 1474.27 2782.61 1464.2 2782.61ZM1434.89 2745.87C1438.9 2745.87 1442.57 2745.19 1445.9 2743.82C1449.31 2742.46 1452.3 2740.5 1454.86 2737.94C1457.42 2735.38 1459.38 2732.35 1460.75 2728.85C1462.2 2725.26 1462.92 2721.38 1462.92 2717.2C1462.92 2712.93 1462.2 2709.05 1460.75 2705.55C1459.38 2702.05 1457.42 2699.02 1454.86 2696.46C1452.3 2693.9 1449.31 2691.94 1445.9 2690.58C1442.57 2689.21 1438.9 2688.53 1434.89 2688.53C1430.88 2688.53 1427.17 2689.21 1423.76 2690.58C1420.34 2691.94 1417.36 2693.9 1414.8 2696.46C1412.32 2699.02 1410.36 2702.05 1408.91 2705.55C1407.54 2709.05 1406.86 2712.93 1406.86 2717.2C1406.86 2721.38 1407.54 2725.26 1408.91 2728.85C1410.36 2732.35 1412.32 2735.38 1414.8 2737.94C1417.36 2740.5 1420.34 2742.46 1423.76 2743.82C1427.17 2745.19 1430.88 2745.87 1434.89 2745.87Z" fill="white"/>
<path d="M3.824 3803.72H46.832V3820.36H3.824V3803.72ZM5.36 3853H-15.376V3763.4H52.336V3780.04H5.36V3853ZM66.374 3853V3763.4H87.11V3836.1H132.038V3853H66.374ZM205.064 3763.4H225.8V3853H205.064V3763.4ZM164.36 3853H143.624V3763.4H164.36V3853ZM206.6 3816.26H162.824V3798.73H206.6V3816.26ZM246.999 3853V3763.4H267.735V3836.1H312.663V3853H246.999ZM324.249 3853V3763.4H341.401L379.545 3826.63H370.457L407.961 3763.4H424.985L425.241 3853H405.785L405.657 3793.22H409.241L379.289 3843.53H369.945L339.353 3793.22H343.705V3853H324.249ZM489.891 3854.54C482.894 3854.54 476.366 3853.38 470.307 3851.08C464.334 3848.78 459.128 3845.53 454.691 3841.35C450.339 3837.17 446.926 3832.26 444.451 3826.63C442.062 3821 440.867 3814.86 440.867 3808.2C440.867 3801.54 442.062 3795.4 444.451 3789.77C446.926 3784.14 450.382 3779.23 454.819 3775.05C459.256 3770.87 464.462 3767.62 470.435 3765.32C476.408 3763.02 482.894 3761.86 489.891 3761.86C496.974 3761.86 503.459 3763.02 509.347 3765.32C515.32 3767.62 520.483 3770.87 524.835 3775.05C529.272 3779.14 532.728 3784.01 535.203 3789.64C537.678 3795.27 538.915 3801.46 538.915 3808.2C538.915 3814.86 537.678 3821.04 535.203 3826.76C532.728 3832.39 529.272 3837.3 524.835 3841.48C520.483 3845.58 515.32 3848.78 509.347 3851.08C503.459 3853.38 496.974 3854.54 489.891 3854.54ZM519.203 3873.61C515.704 3873.61 512.376 3873.22 509.219 3872.46C506.147 3871.69 503.075 3870.45 500.003 3868.74C497.016 3867.04 493.859 3864.73 490.531 3861.83C487.288 3858.93 483.747 3855.35 479.907 3851.08L501.667 3845.58C503.971 3848.73 506.104 3851.25 508.067 3853.13C510.03 3855.01 511.907 3856.33 513.699 3857.1C515.576 3857.86 517.539 3858.25 519.587 3858.25C525.048 3858.25 529.912 3856.03 534.179 3851.59L543.395 3862.6C537.336 3869.94 529.272 3873.61 519.203 3873.61ZM489.891 3836.87C493.902 3836.87 497.571 3836.19 500.899 3834.82C504.312 3833.46 507.299 3831.5 509.859 3828.94C512.419 3826.38 514.382 3823.35 515.747 3819.85C517.198 3816.26 517.923 3812.38 517.923 3808.2C517.923 3803.93 517.198 3800.05 515.747 3796.55C514.382 3793.05 512.419 3790.02 509.859 3787.46C507.299 3784.9 504.312 3782.94 500.899 3781.58C497.571 3780.21 493.902 3779.53 489.891 3779.53C485.88 3779.53 482.168 3780.21 478.755 3781.58C475.342 3782.94 472.355 3784.9 469.795 3787.46C467.32 3790.02 465.358 3793.05 463.907 3796.55C462.542 3800.05 461.859 3803.93 461.859 3808.2C461.859 3812.38 462.542 3816.26 463.907 3819.85C465.358 3823.35 467.32 3826.38 469.795 3828.94C472.355 3831.5 475.342 3833.46 478.755 3834.82C482.168 3836.19 485.88 3836.87 489.891 3836.87Z" fill="white"/>
<path d="M998.824 791.72H1041.83V808.36H998.824V791.72ZM1000.36 841H979.624V751.4H1047.34V768.04H1000.36V841ZM1061.37 841V751.4H1082.11V824.104H1127.04V841H1061.37ZM1200.06 751.4H1220.8V841H1200.06V751.4ZM1159.36 841H1138.62V751.4H1159.36V841ZM1201.6 804.264H1157.82V786.728H1201.6V804.264ZM1242 841V751.4H1262.74V824.104H1307.66V841H1242ZM1319.25 841V751.4H1336.4L1374.55 814.632H1365.46L1402.96 751.4H1419.99L1420.24 841H1400.79L1400.66 781.224H1404.24L1374.29 831.528H1364.95L1334.35 781.224H1338.71V841H1319.25ZM1484.89 842.536C1477.89 842.536 1471.37 841.384 1465.31 839.08C1459.33 836.776 1454.13 833.533 1449.69 829.352C1445.34 825.171 1441.93 820.264 1439.45 814.632C1437.06 809 1435.87 802.856 1435.87 796.2C1435.87 789.544 1437.06 783.4 1439.45 777.768C1441.93 772.136 1445.38 767.229 1449.82 763.048C1454.26 758.867 1459.46 755.624 1465.44 753.32C1471.41 751.016 1477.89 749.864 1484.89 749.864C1491.97 749.864 1498.46 751.016 1504.35 753.32C1510.32 755.624 1515.48 758.867 1519.84 763.048C1524.27 767.144 1527.73 772.008 1530.2 777.64C1532.68 783.272 1533.92 789.459 1533.92 796.2C1533.92 802.856 1532.68 809.043 1530.2 814.76C1527.73 820.392 1524.27 825.299 1519.84 829.48C1515.48 833.576 1510.32 836.776 1504.35 839.08C1498.46 841.384 1491.97 842.536 1484.89 842.536ZM1514.2 861.608C1510.7 861.608 1507.38 861.224 1504.22 860.456C1501.15 859.688 1498.08 858.451 1495 856.744C1492.02 855.037 1488.86 852.733 1485.53 849.832C1482.29 846.931 1478.75 843.347 1474.91 839.08L1496.67 833.576C1498.97 836.733 1501.1 839.251 1503.07 841.128C1505.03 843.005 1506.91 844.328 1508.7 845.096C1510.58 845.864 1512.54 846.248 1514.59 846.248C1520.05 846.248 1524.91 844.029 1529.18 839.592L1538.4 850.6C1532.34 857.939 1524.27 861.608 1514.2 861.608ZM1484.89 824.872C1488.9 824.872 1492.57 824.189 1495.9 822.824C1499.31 821.459 1502.3 819.496 1504.86 816.936C1507.42 814.376 1509.38 811.347 1510.75 807.848C1512.2 804.264 1512.92 800.381 1512.92 796.2C1512.92 791.933 1512.2 788.051 1510.75 784.552C1509.38 781.053 1507.42 778.024 1504.86 775.464C1502.3 772.904 1499.31 770.941 1495.9 769.576C1492.57 768.211 1488.9 767.528 1484.89 767.528C1480.88 767.528 1477.17 768.211 1473.76 769.576C1470.34 770.941 1467.36 772.904 1464.8 775.464C1462.32 778.024 1460.36 781.053 1458.91 784.552C1457.54 788.051 1456.86 791.933 1456.86 796.2C1456.86 800.381 1457.54 804.264 1458.91 807.848C1460.36 811.347 1462.32 814.376 1464.8 816.936C1467.36 819.496 1470.34 821.459 1473.76 822.824C1477.17 824.189 1480.88 824.872 1484.89 824.872Z" fill="white"/>
<path d="M-128.176 1250.72H-85.168V1267.36H-128.176V1250.72ZM-126.64 1300H-147.376V1210.4H-79.664V1227.04H-126.64V1300ZM-65.626 1300V1210.4H-44.89V1283.1H0.038002V1300H-65.626ZM73.064 1210.4H93.8V1300H73.064V1210.4ZM32.36 1300H11.624V1210.4H32.36V1300ZM74.6 1263.26H30.824V1245.73H74.6V1263.26ZM114.999 1300V1210.4H135.735V1283.1H180.663V1300H114.999ZM192.249 1300V1210.4H209.401L247.545 1273.63H238.457L275.961 1210.4H292.985L293.241 1300H273.785L273.657 1240.22H277.241L247.289 1290.53H237.945L207.353 1240.22H211.705V1300H192.249ZM357.891 1301.54C350.894 1301.54 344.366 1300.38 338.307 1298.08C332.334 1295.78 327.128 1292.53 322.691 1288.35C318.339 1284.17 314.926 1279.26 312.451 1273.63C310.062 1268 308.867 1261.86 308.867 1255.2C308.867 1248.54 310.062 1242.4 312.451 1236.77C314.926 1231.14 318.382 1226.23 322.819 1222.05C327.256 1217.87 332.462 1214.62 338.435 1212.32C344.408 1210.02 350.894 1208.86 357.891 1208.86C364.974 1208.86 371.459 1210.02 377.347 1212.32C383.32 1214.62 388.483 1217.87 392.835 1222.05C397.272 1226.14 400.728 1231.01 403.203 1236.64C405.678 1242.27 406.915 1248.46 406.915 1255.2C406.915 1261.86 405.678 1268.04 403.203 1273.76C400.728 1279.39 397.272 1284.3 392.835 1288.48C388.483 1292.58 383.32 1295.78 377.347 1298.08C371.459 1300.38 364.974 1301.54 357.891 1301.54ZM387.203 1320.61C383.704 1320.61 380.376 1320.22 377.219 1319.46C374.147 1318.69 371.075 1317.45 368.003 1315.74C365.016 1314.04 361.859 1311.73 358.531 1308.83C355.288 1305.93 351.747 1302.35 347.907 1298.08L369.667 1292.58C371.971 1295.73 374.104 1298.25 376.067 1300.13C378.03 1302.01 379.907 1303.33 381.699 1304.1C383.576 1304.86 385.539 1305.25 387.587 1305.25C393.048 1305.25 397.912 1303.03 402.179 1298.59L411.395 1309.6C405.336 1316.94 397.272 1320.61 387.203 1320.61ZM357.891 1283.87C361.902 1283.87 365.571 1283.19 368.899 1281.82C372.312 1280.46 375.299 1278.5 377.859 1275.94C380.419 1273.38 382.382 1270.35 383.747 1266.85C385.198 1263.26 385.923 1259.38 385.923 1255.2C385.923 1250.93 385.198 1247.05 383.747 1243.55C382.382 1240.05 380.419 1237.02 377.859 1234.46C375.299 1231.9 372.312 1229.94 368.899 1228.58C365.571 1227.21 361.902 1226.53 357.891 1226.53C353.88 1226.53 350.168 1227.21 346.755 1228.58C343.342 1229.94 340.355 1231.9 337.795 1234.46C335.32 1237.02 333.358 1240.05 331.907 1243.55C330.542 1247.05 329.859 1250.93 329.859 1255.2C329.859 1259.38 330.542 1263.26 331.907 1266.85C333.358 1270.35 335.32 1273.38 337.795 1275.94C340.355 1278.5 343.342 1280.46 346.755 1281.82C350.168 1283.19 353.88 1283.87 357.891 1283.87Z" fill="white"/>
<path d="M-190.176 501.72H-147.168V518.36H-190.176V501.72ZM-188.64 551H-209.376V461.4H-141.664V478.04H-188.64V551ZM-127.626 551V461.4H-106.89V534.104H-61.962V551H-127.626ZM11.064 461.4H31.8V551H11.064V461.4ZM-29.64 551H-50.376V461.4H-29.64V551ZM12.6 514.264H-31.176V496.728H12.6V514.264ZM52.999 551V461.4H73.735V534.104H118.663V551H52.999ZM130.249 551V461.4H147.401L185.545 524.632H176.457L213.961 461.4H230.985L231.241 551H211.785L211.657 491.224H215.241L185.289 541.528H175.945L145.353 491.224H149.705V551H130.249ZM295.891 552.536C288.894 552.536 282.366 551.384 276.307 549.08C270.334 546.776 265.128 543.533 260.691 539.352C256.339 535.171 252.926 530.264 250.451 524.632C248.062 519 246.867 512.856 246.867 506.2C246.867 499.544 248.062 493.4 250.451 487.768C252.926 482.136 256.382 477.229 260.819 473.048C265.256 468.867 270.462 465.624 276.435 463.32C282.408 461.016 288.894 459.864 295.891 459.864C302.974 459.864 309.459 461.016 315.347 463.32C321.32 465.624 326.483 468.867 330.835 473.048C335.272 477.144 338.728 482.008 341.203 487.64C343.678 493.272 344.915 499.459 344.915 506.2C344.915 512.856 343.678 519.043 341.203 524.76C338.728 530.392 335.272 535.299 330.835 539.48C326.483 543.576 321.32 546.776 315.347 549.08C309.459 551.384 302.974 552.536 295.891 552.536ZM325.203 571.608C321.704 571.608 318.376 571.224 315.219 570.456C312.147 569.688 309.075 568.451 306.003 566.744C303.016 565.037 299.859 562.733 296.531 559.832C293.288 556.931 289.747 553.347 285.907 549.08L307.667 543.576C309.971 546.733 312.104 549.251 314.067 551.128C316.03 553.005 317.907 554.328 319.699 555.096C321.576 555.864 323.539 556.248 325.587 556.248C331.048 556.248 335.912 554.029 340.179 549.592L349.395 560.6C343.336 567.939 335.272 571.608 325.203 571.608ZM295.891 534.872C299.902 534.872 303.571 534.189 306.899 532.824C310.312 531.459 313.299 529.496 315.859 526.936C318.419 524.376 320.382 521.347 321.747 517.848C323.198 514.264 323.923 510.381 323.923 506.2C323.923 501.933 323.198 498.051 321.747 494.552C320.382 491.053 318.419 488.024 315.859 485.464C313.299 482.904 310.312 480.941 306.899 479.576C303.571 478.211 299.902 477.528 295.891 477.528C291.88 477.528 288.168 478.211 284.755 479.576C281.342 480.941 278.355 482.904 275.795 485.464C273.32 488.024 271.358 491.053 269.907 494.552C268.542 498.051 267.859 501.933 267.859 506.2C267.859 510.381 268.542 514.264 269.907 517.848C271.358 521.347 273.32 524.376 275.795 526.936C278.355 529.496 281.342 531.459 284.755 532.824C288.168 534.189 291.88 534.872 295.891 534.872Z" fill="white"/>
<path d="M-40.176 2424.72H2.832V2441.36H-40.176V2424.72ZM-38.64 2474H-59.376V2384.4H8.33601V2401.04H-38.64V2474ZM22.374 2474V2384.4H43.11V2457.1H88.038V2474H22.374ZM161.064 2384.4H181.8V2474H161.064V2384.4ZM120.36 2474H99.624V2384.4H120.36V2474ZM162.6 2437.26H118.824V2419.73H162.6V2437.26ZM202.999 2474V2384.4H223.735V2457.1H268.663V2474H202.999ZM280.249 2474V2384.4H297.401L335.545 2447.63H326.457L363.961 2384.4H380.985L381.241 2474H361.785L361.657 2414.22H365.241L335.289 2464.53H325.945L295.353 2414.22H299.705V2474H280.249ZM445.891 2475.54C438.894 2475.54 432.366 2474.38 426.307 2472.08C420.334 2469.78 415.128 2466.53 410.691 2462.35C406.339 2458.17 402.926 2453.26 400.451 2447.63C398.062 2442 396.867 2435.86 396.867 2429.2C396.867 2422.54 398.062 2416.4 400.451 2410.77C402.926 2405.14 406.382 2400.23 410.819 2396.05C415.256 2391.87 420.462 2388.62 426.435 2386.32C432.408 2384.02 438.894 2382.86 445.891 2382.86C452.974 2382.86 459.459 2384.02 465.347 2386.32C471.32 2388.62 476.483 2391.87 480.835 2396.05C485.272 2400.14 488.728 2405.01 491.203 2410.64C493.678 2416.27 494.915 2422.46 494.915 2429.2C494.915 2435.86 493.678 2442.04 491.203 2447.76C488.728 2453.39 485.272 2458.3 480.835 2462.48C476.483 2466.58 471.32 2469.78 465.347 2472.08C459.459 2474.38 452.974 2475.54 445.891 2475.54ZM475.203 2494.61C471.704 2494.61 468.376 2494.22 465.219 2493.46C462.147 2492.69 459.075 2491.45 456.003 2489.74C453.016 2488.04 449.859 2485.73 446.531 2482.83C443.288 2479.93 439.747 2476.35 435.907 2472.08L457.667 2466.58C459.971 2469.73 462.104 2472.25 464.067 2474.13C466.03 2476.01 467.907 2477.33 469.699 2478.1C471.576 2478.86 473.539 2479.25 475.587 2479.25C481.048 2479.25 485.912 2477.03 490.179 2472.59L499.395 2483.6C493.336 2490.94 485.272 2494.61 475.203 2494.61ZM445.891 2457.87C449.902 2457.87 453.571 2457.19 456.899 2455.82C460.312 2454.46 463.299 2452.5 465.859 2449.94C468.419 2447.38 470.382 2444.35 471.747 2440.85C473.198 2437.26 473.923 2433.38 473.923 2429.2C473.923 2424.93 473.198 2421.05 471.747 2417.55C470.382 2414.05 468.419 2411.02 465.859 2408.46C463.299 2405.9 460.312 2403.94 456.899 2402.58C453.571 2401.21 449.902 2400.53 445.891 2400.53C441.88 2400.53 438.168 2401.21 434.755 2402.58C431.342 2403.94 428.355 2405.9 425.795 2408.46C423.32 2411.02 421.358 2414.05 419.907 2417.55C418.542 2421.05 417.859 2424.93 417.859 2429.2C417.859 2433.38 418.542 2437.26 419.907 2440.85C421.358 2444.35 423.32 2447.38 425.795 2449.94C428.355 2452.5 431.342 2454.46 434.755 2455.82C438.168 2457.19 441.88 2457.87 445.891 2457.87Z" fill="white"/>
<path d="M1157.82 1714.72H1200.83V1731.36H1157.82V1714.72ZM1159.36 1764H1138.62V1674.4H1206.34V1691.04H1159.36V1764ZM1220.37 1764V1674.4H1241.11V1747.1H1286.04V1764H1220.37ZM1359.06 1674.4H1379.8V1764H1359.06V1674.4ZM1318.36 1764H1297.62V1674.4H1318.36V1764ZM1360.6 1727.26H1316.82V1709.73H1360.6V1727.26ZM1401 1764V1674.4H1421.74V1747.1H1466.66V1764H1401ZM1478.25 1764V1674.4H1495.4L1533.55 1737.63H1524.46L1561.96 1674.4H1578.99L1579.24 1764H1559.79L1559.66 1704.22H1563.24L1533.29 1754.53H1523.95L1493.35 1704.22H1497.71V1764H1478.25ZM1643.89 1765.54C1636.89 1765.54 1630.37 1764.38 1624.31 1762.08C1618.33 1759.78 1613.13 1756.53 1608.69 1752.35C1604.34 1748.17 1600.93 1743.26 1598.45 1737.63C1596.06 1732 1594.87 1725.86 1594.87 1719.2C1594.87 1712.54 1596.06 1706.4 1598.45 1700.77C1600.93 1695.14 1604.38 1690.23 1608.82 1686.05C1613.26 1681.87 1618.46 1678.62 1624.44 1676.32C1630.41 1674.02 1636.89 1672.86 1643.89 1672.86C1650.97 1672.86 1657.46 1674.02 1663.35 1676.32C1669.32 1678.62 1674.48 1681.87 1678.84 1686.05C1683.27 1690.14 1686.73 1695.01 1689.2 1700.64C1691.68 1706.27 1692.92 1712.46 1692.92 1719.2C1692.92 1725.86 1691.68 1732.04 1689.2 1737.76C1686.73 1743.39 1683.27 1748.3 1678.84 1752.48C1674.48 1756.58 1669.32 1759.78 1663.35 1762.08C1657.46 1764.38 1650.97 1765.54 1643.89 1765.54ZM1673.2 1784.61C1669.7 1784.61 1666.38 1784.22 1663.22 1783.46C1660.15 1782.69 1657.08 1781.45 1654 1779.74C1651.02 1778.04 1647.86 1775.73 1644.53 1772.83C1641.29 1769.93 1637.75 1766.35 1633.91 1762.08L1655.67 1756.58C1657.97 1759.73 1660.1 1762.25 1662.07 1764.13C1664.03 1766.01 1665.91 1767.33 1667.7 1768.1C1669.58 1768.86 1671.54 1769.25 1673.59 1769.25C1679.05 1769.25 1683.91 1767.03 1688.18 1762.59L1697.4 1773.6C1691.34 1780.94 1683.27 1784.61 1673.2 1784.61ZM1643.89 1747.87C1647.9 1747.87 1651.57 1747.19 1654.9 1745.82C1658.31 1744.46 1661.3 1742.5 1663.86 1739.94C1666.42 1737.38 1668.38 1734.35 1669.75 1730.85C1671.2 1727.26 1671.92 1723.38 1671.92 1719.2C1671.92 1714.93 1671.2 1711.05 1669.75 1707.55C1668.38 1704.05 1666.42 1701.02 1663.86 1698.46C1661.3 1695.9 1658.31 1693.94 1654.9 1692.58C1651.57 1691.21 1647.9 1690.53 1643.89 1690.53C1639.88 1690.53 1636.17 1691.21 1632.76 1692.58C1629.34 1693.94 1626.36 1695.9 1623.8 1698.46C1621.32 1701.02 1619.36 1704.05 1617.91 1707.55C1616.54 1711.05 1615.86 1714.93 1615.86 1719.2C1615.86 1723.38 1616.54 1727.26 1617.91 1730.85C1619.36 1734.35 1621.32 1737.38 1623.8 1739.94C1626.36 1742.5 1629.34 1744.46 1632.76 1745.82C1636.17 1747.19 1639.88 1747.87 1643.89 1747.87Z" fill="white"/>
<path d="M40.824 74.72H83.832V91.36H40.824V74.72ZM42.36 124H21.624V34.4H89.336V51.04H42.36V124ZM103.374 124V34.4H124.11V107.104H169.038V124H103.374ZM242.064 34.4H262.8V124H242.064V34.4ZM201.36 124H180.624V34.4H201.36V124ZM243.6 87.264H199.824V69.728H243.6V87.264ZM283.999 124V34.4H304.735V107.104H349.663V124H283.999ZM361.249 124V34.4H378.401L416.545 97.632H407.457L444.961 34.4H461.985L462.241 124H442.785L442.657 64.224H446.241L416.289 114.528H406.945L376.353 64.224H380.705V124H361.249ZM526.891 125.536C519.894 125.536 513.366 124.384 507.307 122.08C501.334 119.776 496.128 116.533 491.691 112.352C487.339 108.171 483.926 103.264 481.451 97.632C479.062 92 477.867 85.856 477.867 79.2C477.867 72.544 479.062 66.4 481.451 60.768C483.926 55.136 487.382 50.2293 491.819 46.048C496.256 41.8667 501.462 38.624 507.435 36.32C513.408 34.016 519.894 32.864 526.891 32.864C533.974 32.864 540.459 34.016 546.347 36.32C552.32 38.624 557.483 41.8667 561.835 46.048C566.272 50.144 569.728 55.008 572.203 60.64C574.678 66.272 575.915 72.4587 575.915 79.2C575.915 85.856 574.678 92.0427 572.203 97.76C569.728 103.392 566.272 108.299 561.835 112.48C557.483 116.576 552.32 119.776 546.347 122.08C540.459 124.384 533.974 125.536 526.891 125.536ZM556.203 144.608C552.704 144.608 549.376 144.224 546.219 143.456C543.147 142.688 540.075 141.451 537.003 139.744C534.016 138.037 530.859 135.733 527.531 132.832C524.288 129.931 520.747 126.347 516.907 122.08L538.667 116.576C540.971 119.733 543.104 122.251 545.067 124.128C547.03 126.005 548.907 127.328 550.699 128.096C552.576 128.864 554.539 129.248 556.587 129.248C562.048 129.248 566.912 127.029 571.179 122.592L580.395 133.6C574.336 140.939 566.272 144.608 556.203 144.608ZM526.891 107.872C530.902 107.872 534.571 107.189 537.899 105.824C541.312 104.459 544.299 102.496 546.859 99.936C549.419 97.376 551.382 94.3467 552.747 90.848C554.198 87.264 554.923 83.3813 554.923 79.2C554.923 74.9333 554.198 71.0507 552.747 67.552C551.382 64.0533 549.419 61.024 546.859 58.464C544.299 55.904 541.312 53.9413 537.899 52.576C534.571 51.2107 530.902 50.528 526.891 50.528C522.88 50.528 519.168 51.2107 515.755 52.576C512.342 53.9413 509.355 55.904 506.795 58.464C504.32 61.024 502.358 64.0533 500.907 67.552C499.542 71.0507 498.859 74.9333 498.859 79.2C498.859 83.3813 499.542 87.264 500.907 90.848C502.358 94.3467 504.32 97.376 506.795 99.936C509.355 102.496 512.342 104.459 515.755 105.824C519.168 107.189 522.88 107.872 526.891 107.872Z" fill="white"/>
<path d="M-179.176 7293.72H-136.168V7310.36H-179.176V7293.72ZM-177.64 7343H-198.376V7253.4H-130.664V7270.04H-177.64V7343ZM-116.626 7343V7253.4H-95.89V7326.1H-50.962V7343H-116.626ZM22.064 7253.4H42.8V7343H22.064V7253.4ZM-18.64 7343H-39.376V7253.4H-18.64V7343ZM23.6 7306.26H-20.176V7288.73H23.6V7306.26ZM63.999 7343V7253.4H84.735V7326.1H129.663V7343H63.999ZM141.249 7343V7253.4H158.401L196.545 7316.63H187.457L224.961 7253.4H241.985L242.241 7343H222.785L222.657 7283.22H226.241L196.289 7333.53H186.945L156.353 7283.22H160.705V7343H141.249ZM306.891 7344.54C299.894 7344.54 293.366 7343.38 287.307 7341.08C281.334 7338.78 276.128 7335.53 271.691 7331.35C267.339 7327.17 263.926 7322.26 261.451 7316.63C259.062 7311 257.867 7304.86 257.867 7298.2C257.867 7291.54 259.062 7285.4 261.451 7279.77C263.926 7274.14 267.382 7269.23 271.819 7265.05C276.256 7260.87 281.462 7257.62 287.435 7255.32C293.408 7253.02 299.894 7251.86 306.891 7251.86C313.974 7251.86 320.459 7253.02 326.347 7255.32C332.32 7257.62 337.483 7260.87 341.835 7265.05C346.272 7269.14 349.728 7274.01 352.203 7279.64C354.678 7285.27 355.915 7291.46 355.915 7298.2C355.915 7304.86 354.678 7311.04 352.203 7316.76C349.728 7322.39 346.272 7327.3 341.835 7331.48C337.483 7335.58 332.32 7338.78 326.347 7341.08C320.459 7343.38 313.974 7344.54 306.891 7344.54ZM336.203 7363.61C332.704 7363.61 329.376 7363.22 326.219 7362.46C323.147 7361.69 320.075 7360.45 317.003 7358.74C314.016 7357.04 310.859 7354.73 307.531 7351.83C304.288 7348.93 300.747 7345.35 296.907 7341.08L318.667 7335.58C320.971 7338.73 323.104 7341.25 325.067 7343.13C327.03 7345.01 328.907 7346.33 330.699 7347.1C332.576 7347.86 334.539 7348.25 336.587 7348.25C342.048 7348.25 346.912 7346.03 351.179 7341.59L360.395 7352.6C354.336 7359.94 346.272 7363.61 336.203 7363.61ZM306.891 7326.87C310.902 7326.87 314.571 7326.19 317.899 7324.82C321.312 7323.46 324.299 7321.5 326.859 7318.94C329.419 7316.38 331.382 7313.35 332.747 7309.85C334.198 7306.26 334.923 7302.38 334.923 7298.2C334.923 7293.93 334.198 7290.05 332.747 7286.55C331.382 7283.05 329.419 7280.02 326.859 7277.46C324.299 7274.9 321.312 7272.94 317.899 7271.58C314.571 7270.21 310.902 7269.53 306.891 7269.53C302.88 7269.53 299.168 7270.21 295.755 7271.58C292.342 7272.94 289.355 7274.9 286.795 7277.46C284.32 7280.02 282.358 7283.05 280.907 7286.55C279.542 7290.05 278.859 7293.93 278.859 7298.2C278.859 7302.38 279.542 7306.26 280.907 7309.85C282.358 7313.35 284.32 7316.38 286.795 7318.94C289.355 7321.5 292.342 7323.46 295.755 7324.82C299.168 7326.19 302.88 7326.87 306.891 7326.87Z" fill="white"/>
<path d="M1021.82 3205.72H1064.83V3222.36H1021.82V3205.72ZM1023.36 3255H1002.62V3165.4H1070.34V3182.04H1023.36V3255ZM1084.37 3255V3165.4H1105.11V3238.1H1150.04V3255H1084.37ZM1223.06 3165.4H1243.8V3255H1223.06V3165.4ZM1182.36 3255H1161.62V3165.4H1182.36V3255ZM1224.6 3218.26H1180.82V3200.73H1224.6V3218.26ZM1265 3255V3165.4H1285.74V3238.1H1330.66V3255H1265ZM1342.25 3255V3165.4H1359.4L1397.55 3228.63H1388.46L1425.96 3165.4H1442.99L1443.24 3255H1423.79L1423.66 3195.22H1427.24L1397.29 3245.53H1387.95L1357.35 3195.22H1361.71V3255H1342.25ZM1507.89 3256.54C1500.89 3256.54 1494.37 3255.38 1488.31 3253.08C1482.33 3250.78 1477.13 3247.53 1472.69 3243.35C1468.34 3239.17 1464.93 3234.26 1462.45 3228.63C1460.06 3223 1458.87 3216.86 1458.87 3210.2C1458.87 3203.54 1460.06 3197.4 1462.45 3191.77C1464.93 3186.14 1468.38 3181.23 1472.82 3177.05C1477.26 3172.87 1482.46 3169.62 1488.44 3167.32C1494.41 3165.02 1500.89 3163.86 1507.89 3163.86C1514.97 3163.86 1521.46 3165.02 1527.35 3167.32C1533.32 3169.62 1538.48 3172.87 1542.84 3177.05C1547.27 3181.14 1550.73 3186.01 1553.2 3191.64C1555.68 3197.27 1556.92 3203.46 1556.92 3210.2C1556.92 3216.86 1555.68 3223.04 1553.2 3228.76C1550.73 3234.39 1547.27 3239.3 1542.84 3243.48C1538.48 3247.58 1533.32 3250.78 1527.35 3253.08C1521.46 3255.38 1514.97 3256.54 1507.89 3256.54ZM1537.2 3275.61C1533.7 3275.61 1530.38 3275.22 1527.22 3274.46C1524.15 3273.69 1521.08 3272.45 1518 3270.74C1515.02 3269.04 1511.86 3266.73 1508.53 3263.83C1505.29 3260.93 1501.75 3257.35 1497.91 3253.08L1519.67 3247.58C1521.97 3250.73 1524.1 3253.25 1526.07 3255.13C1528.03 3257.01 1529.91 3258.33 1531.7 3259.1C1533.58 3259.86 1535.54 3260.25 1537.59 3260.25C1543.05 3260.25 1547.91 3258.03 1552.18 3253.59L1561.4 3264.6C1555.34 3271.94 1547.27 3275.61 1537.2 3275.61ZM1507.89 3238.87C1511.9 3238.87 1515.57 3238.19 1518.9 3236.82C1522.31 3235.46 1525.3 3233.5 1527.86 3230.94C1530.42 3228.38 1532.38 3225.35 1533.75 3221.85C1535.2 3218.26 1535.92 3214.38 1535.92 3210.2C1535.92 3205.93 1535.2 3202.05 1533.75 3198.55C1532.38 3195.05 1530.42 3192.02 1527.86 3189.46C1525.3 3186.9 1522.31 3184.94 1518.9 3183.58C1515.57 3182.21 1511.9 3181.53 1507.89 3181.53C1503.88 3181.53 1500.17 3182.21 1496.76 3183.58C1493.34 3184.94 1490.36 3186.9 1487.8 3189.46C1485.32 3192.02 1483.36 3195.05 1481.91 3198.55C1480.54 3202.05 1479.86 3205.93 1479.86 3210.2C1479.86 3214.38 1480.54 3218.26 1481.91 3221.85C1483.36 3225.35 1485.32 3228.38 1487.8 3230.94C1490.36 3233.5 1493.34 3235.46 1496.76 3236.82C1500.17 3238.19 1503.88 3238.87 1507.89 3238.87Z" fill="white"/>
<path d="M-179.176 4227.72H-136.168V4244.36H-179.176V4227.72ZM-177.64 4277H-198.376V4187.4H-130.664V4204.04H-177.64V4277ZM-116.626 4277V4187.4H-95.89V4260.1H-50.962V4277H-116.626ZM22.064 4187.4H42.8V4277H22.064V4187.4ZM-18.64 4277H-39.376V4187.4H-18.64V4277ZM23.6 4240.26H-20.176V4222.73H23.6V4240.26ZM63.999 4277V4187.4H84.735V4260.1H129.663V4277H63.999ZM141.249 4277V4187.4H158.401L196.545 4250.63H187.457L224.961 4187.4H241.985L242.241 4277H222.785L222.657 4217.22H226.241L196.289 4267.53H186.945L156.353 4217.22H160.705V4277H141.249ZM306.891 4278.54C299.894 4278.54 293.366 4277.38 287.307 4275.08C281.334 4272.78 276.128 4269.53 271.691 4265.35C267.339 4261.17 263.926 4256.26 261.451 4250.63C259.062 4245 257.867 4238.86 257.867 4232.2C257.867 4225.54 259.062 4219.4 261.451 4213.77C263.926 4208.14 267.382 4203.23 271.819 4199.05C276.256 4194.87 281.462 4191.62 287.435 4189.32C293.408 4187.02 299.894 4185.86 306.891 4185.86C313.974 4185.86 320.459 4187.02 326.347 4189.32C332.32 4191.62 337.483 4194.87 341.835 4199.05C346.272 4203.14 349.728 4208.01 352.203 4213.64C354.678 4219.27 355.915 4225.46 355.915 4232.2C355.915 4238.86 354.678 4245.04 352.203 4250.76C349.728 4256.39 346.272 4261.3 341.835 4265.48C337.483 4269.58 332.32 4272.78 326.347 4275.08C320.459 4277.38 313.974 4278.54 306.891 4278.54ZM336.203 4297.61C332.704 4297.61 329.376 4297.22 326.219 4296.46C323.147 4295.69 320.075 4294.45 317.003 4292.74C314.016 4291.04 310.859 4288.73 307.531 4285.83C304.288 4282.93 300.747 4279.35 296.907 4275.08L318.667 4269.58C320.971 4272.73 323.104 4275.25 325.067 4277.13C327.03 4279.01 328.907 4280.33 330.699 4281.1C332.576 4281.86 334.539 4282.25 336.587 4282.25C342.048 4282.25 346.912 4280.03 351.179 4275.59L360.395 4286.6C354.336 4293.94 346.272 4297.61 336.203 4297.61ZM306.891 4260.87C310.902 4260.87 314.571 4260.19 317.899 4258.82C321.312 4257.46 324.299 4255.5 326.859 4252.94C329.419 4250.38 331.382 4247.35 332.747 4243.85C334.198 4240.26 334.923 4236.38 334.923 4232.2C334.923 4227.93 334.198 4224.05 332.747 4220.55C331.382 4217.05 329.419 4214.02 326.859 4211.46C324.299 4208.9 321.312 4206.94 317.899 4205.58C314.571 4204.21 310.902 4203.53 306.891 4203.53C302.88 4203.53 299.168 4204.21 295.755 4205.58C292.342 4206.94 289.355 4208.9 286.795 4211.46C284.32 4214.02 282.358 4217.05 280.907 4220.55C279.542 4224.05 278.859 4227.93 278.859 4232.2C278.859 4236.38 279.542 4240.26 280.907 4243.85C282.358 4247.35 284.32 4250.38 286.795 4252.94C289.355 4255.5 292.342 4257.46 295.755 4258.82C299.168 4260.19 302.88 4260.87 306.891 4260.87Z" fill="white"/>
<path d="M1021.82 4227.72H1064.83V4244.36H1021.82V4227.72ZM1023.36 4277H1002.62V4187.4H1070.34V4204.04H1023.36V4277ZM1084.37 4277V4187.4H1105.11V4260.1H1150.04V4277H1084.37ZM1223.06 4187.4H1243.8V4277H1223.06V4187.4ZM1182.36 4277H1161.62V4187.4H1182.36V4277ZM1224.6 4240.26H1180.82V4222.73H1224.6V4240.26ZM1265 4277V4187.4H1285.74V4260.1H1330.66V4277H1265ZM1342.25 4277V4187.4H1359.4L1397.55 4250.63H1388.46L1425.96 4187.4H1442.99L1443.24 4277H1423.79L1423.66 4217.22H1427.24L1397.29 4267.53H1387.95L1357.35 4217.22H1361.71V4277H1342.25ZM1507.89 4278.54C1500.89 4278.54 1494.37 4277.38 1488.31 4275.08C1482.33 4272.78 1477.13 4269.53 1472.69 4265.35C1468.34 4261.17 1464.93 4256.26 1462.45 4250.63C1460.06 4245 1458.87 4238.86 1458.87 4232.2C1458.87 4225.54 1460.06 4219.4 1462.45 4213.77C1464.93 4208.14 1468.38 4203.23 1472.82 4199.05C1477.26 4194.87 1482.46 4191.62 1488.44 4189.32C1494.41 4187.02 1500.89 4185.86 1507.89 4185.86C1514.97 4185.86 1521.46 4187.02 1527.35 4189.32C1533.32 4191.62 1538.48 4194.87 1542.84 4199.05C1547.27 4203.14 1550.73 4208.01 1553.2 4213.64C1555.68 4219.27 1556.92 4225.46 1556.92 4232.2C1556.92 4238.86 1555.68 4245.04 1553.2 4250.76C1550.73 4256.39 1547.27 4261.3 1542.84 4265.48C1538.48 4269.58 1533.32 4272.78 1527.35 4275.08C1521.46 4277.38 1514.97 4278.54 1507.89 4278.54ZM1537.2 4297.61C1533.7 4297.61 1530.38 4297.22 1527.22 4296.46C1524.15 4295.69 1521.08 4294.45 1518 4292.74C1515.02 4291.04 1511.86 4288.73 1508.53 4285.83C1505.29 4282.93 1501.75 4279.35 1497.91 4275.08L1519.67 4269.58C1521.97 4272.73 1524.1 4275.25 1526.07 4277.13C1528.03 4279.01 1529.91 4280.33 1531.7 4281.1C1533.58 4281.86 1535.54 4282.25 1537.59 4282.25C1543.05 4282.25 1547.91 4280.03 1552.18 4275.59L1561.4 4286.6C1555.34 4293.94 1547.27 4297.61 1537.2 4297.61ZM1507.89 4260.87C1511.9 4260.87 1515.57 4260.19 1518.9 4258.82C1522.31 4257.46 1525.3 4255.5 1527.86 4252.94C1530.42 4250.38 1532.38 4247.35 1533.75 4243.85C1535.2 4240.26 1535.92 4236.38 1535.92 4232.2C1535.92 4227.93 1535.2 4224.05 1533.75 4220.55C1532.38 4217.05 1530.42 4214.02 1527.86 4211.46C1525.3 4208.9 1522.31 4206.94 1518.9 4205.58C1515.57 4204.21 1511.9 4203.53 1507.89 4203.53C1503.88 4203.53 1500.17 4204.21 1496.76 4205.58C1493.34 4206.94 1490.36 4208.9 1487.8 4211.46C1485.32 4214.02 1483.36 4217.05 1481.91 4220.55C1480.54 4224.05 1479.86 4227.93 1479.86 4232.2C1479.86 4236.38 1480.54 4240.26 1481.91 4243.85C1483.36 4247.35 1485.32 4250.38 1487.8 4252.94C1490.36 4255.5 1493.34 4257.46 1496.76 4258.82C1500.17 4260.19 1503.88 4260.87 1507.89 4260.87Z" fill="white"/>
<path d="M1021.82 2183.72H1064.83V2200.36H1021.82V2183.72ZM1023.36 2233H1002.62V2143.4H1070.34V2160.04H1023.36V2233ZM1084.37 2233V2143.4H1105.11V2216.1H1150.04V2233H1084.37ZM1223.06 2143.4H1243.8V2233H1223.06V2143.4ZM1182.36 2233H1161.62V2143.4H1182.36V2233ZM1224.6 2196.26H1180.82V2178.73H1224.6V2196.26ZM1265 2233V2143.4H1285.74V2216.1H1330.66V2233H1265ZM1342.25 2233V2143.4H1359.4L1397.55 2206.63H1388.46L1425.96 2143.4H1442.99L1443.24 2233H1423.79L1423.66 2173.22H1427.24L1397.29 2223.53H1387.95L1357.35 2173.22H1361.71V2233H1342.25ZM1507.89 2234.54C1500.89 2234.54 1494.37 2233.38 1488.31 2231.08C1482.33 2228.78 1477.13 2225.53 1472.69 2221.35C1468.34 2217.17 1464.93 2212.26 1462.45 2206.63C1460.06 2201 1458.87 2194.86 1458.87 2188.2C1458.87 2181.54 1460.06 2175.4 1462.45 2169.77C1464.93 2164.14 1468.38 2159.23 1472.82 2155.05C1477.26 2150.87 1482.46 2147.62 1488.44 2145.32C1494.41 2143.02 1500.89 2141.86 1507.89 2141.86C1514.97 2141.86 1521.46 2143.02 1527.35 2145.32C1533.32 2147.62 1538.48 2150.87 1542.84 2155.05C1547.27 2159.14 1550.73 2164.01 1553.2 2169.64C1555.68 2175.27 1556.92 2181.46 1556.92 2188.2C1556.92 2194.86 1555.68 2201.04 1553.2 2206.76C1550.73 2212.39 1547.27 2217.3 1542.84 2221.48C1538.48 2225.58 1533.32 2228.78 1527.35 2231.08C1521.46 2233.38 1514.97 2234.54 1507.89 2234.54ZM1537.2 2253.61C1533.7 2253.61 1530.38 2253.22 1527.22 2252.46C1524.15 2251.69 1521.08 2250.45 1518 2248.74C1515.02 2247.04 1511.86 2244.73 1508.53 2241.83C1505.29 2238.93 1501.75 2235.35 1497.91 2231.08L1519.67 2225.58C1521.97 2228.73 1524.1 2231.25 1526.07 2233.13C1528.03 2235.01 1529.91 2236.33 1531.7 2237.1C1533.58 2237.86 1535.54 2238.25 1537.59 2238.25C1543.05 2238.25 1547.91 2236.03 1552.18 2231.59L1561.4 2242.6C1555.34 2249.94 1547.27 2253.61 1537.2 2253.61ZM1507.89 2216.87C1511.9 2216.87 1515.57 2216.19 1518.9 2214.82C1522.31 2213.46 1525.3 2211.5 1527.86 2208.94C1530.42 2206.38 1532.38 2203.35 1533.75 2199.85C1535.2 2196.26 1535.92 2192.38 1535.92 2188.2C1535.92 2183.93 1535.2 2180.05 1533.75 2176.55C1532.38 2173.05 1530.42 2170.02 1527.86 2167.46C1525.3 2164.9 1522.31 2162.94 1518.9 2161.58C1515.57 2160.21 1511.9 2159.53 1507.89 2159.53C1503.88 2159.53 1500.17 2160.21 1496.76 2161.58C1493.34 2162.94 1490.36 2164.9 1487.8 2167.46C1485.32 2170.02 1483.36 2173.05 1481.91 2176.55C1480.54 2180.05 1479.86 2183.93 1479.86 2188.2C1479.86 2192.38 1480.54 2196.26 1481.91 2199.85C1483.36 2203.35 1485.32 2206.38 1487.8 2208.94C1490.36 2211.5 1493.34 2213.46 1496.76 2214.82C1500.17 2216.19 1503.88 2216.87 1507.89 2216.87Z" fill="white"/>
<path d="M-250.176 5915.72H-207.168V5932.36H-250.176V5915.72ZM-248.64 5965H-269.376V5875.4H-201.664V5892.04H-248.64V5965ZM-187.626 5965V5875.4H-166.89V5948.1H-121.962V5965H-187.626ZM-48.936 5875.4H-28.2V5965H-48.936V5875.4ZM-89.64 5965H-110.376V5875.4H-89.64V5965ZM-47.4 5928.26H-91.176V5910.73H-47.4V5928.26ZM-7.001 5965V5875.4H13.735V5948.1H58.663V5965H-7.001ZM70.249 5965V5875.4H87.401L125.545 5938.63H116.457L153.961 5875.4H170.985L171.241 5965H151.785L151.657 5905.22H155.241L125.289 5955.53H115.945L85.353 5905.22H89.705V5965H70.249ZM235.891 5966.54C228.894 5966.54 222.366 5965.38 216.307 5963.08C210.334 5960.78 205.128 5957.53 200.691 5953.35C196.339 5949.17 192.926 5944.26 190.451 5938.63C188.062 5933 186.867 5926.86 186.867 5920.2C186.867 5913.54 188.062 5907.4 190.451 5901.77C192.926 5896.14 196.382 5891.23 200.819 5887.05C205.256 5882.87 210.462 5879.62 216.435 5877.32C222.408 5875.02 228.894 5873.86 235.891 5873.86C242.974 5873.86 249.459 5875.02 255.347 5877.32C261.32 5879.62 266.483 5882.87 270.835 5887.05C275.272 5891.14 278.728 5896.01 281.203 5901.64C283.678 5907.27 284.915 5913.46 284.915 5920.2C284.915 5926.86 283.678 5933.04 281.203 5938.76C278.728 5944.39 275.272 5949.3 270.835 5953.48C266.483 5957.58 261.32 5960.78 255.347 5963.08C249.459 5965.38 242.974 5966.54 235.891 5966.54ZM265.203 5985.61C261.704 5985.61 258.376 5985.22 255.219 5984.46C252.147 5983.69 249.075 5982.45 246.003 5980.74C243.016 5979.04 239.859 5976.73 236.531 5973.83C233.288 5970.93 229.747 5967.35 225.907 5963.08L247.667 5957.58C249.971 5960.73 252.104 5963.25 254.067 5965.13C256.03 5967.01 257.907 5968.33 259.699 5969.1C261.576 5969.86 263.539 5970.25 265.587 5970.25C271.048 5970.25 275.912 5968.03 280.179 5963.59L289.395 5974.6C283.336 5981.94 275.272 5985.61 265.203 5985.61ZM235.891 5948.87C239.902 5948.87 243.571 5948.19 246.899 5946.82C250.312 5945.46 253.299 5943.5 255.859 5940.94C258.419 5938.38 260.382 5935.35 261.747 5931.85C263.198 5928.26 263.923 5924.38 263.923 5920.2C263.923 5915.93 263.198 5912.05 261.747 5908.55C260.382 5905.05 258.419 5902.02 255.859 5899.46C253.299 5896.9 250.312 5894.94 246.899 5893.58C243.571 5892.21 239.902 5891.53 235.891 5891.53C231.88 5891.53 228.168 5892.21 224.755 5893.58C221.342 5894.94 218.355 5896.9 215.795 5899.46C213.32 5902.02 211.358 5905.05 209.907 5908.55C208.542 5912.05 207.859 5915.93 207.859 5920.2C207.859 5924.38 208.542 5928.26 209.907 5931.85C211.358 5935.35 213.32 5938.38 215.795 5940.94C218.355 5943.5 221.342 5945.46 224.755 5946.82C228.168 5948.19 231.88 5948.87 235.891 5948.87Z" fill="white"/>
<path d="M1091.82 7169.72H1134.83V7186.36H1091.82V7169.72ZM1093.36 7219H1072.62V7129.4H1140.34V7146.04H1093.36V7219ZM1154.37 7219V7129.4H1175.11V7202.1H1220.04V7219H1154.37ZM1293.06 7129.4H1313.8V7219H1293.06V7129.4ZM1252.36 7219H1231.62V7129.4H1252.36V7219ZM1294.6 7182.26H1250.82V7164.73H1294.6V7182.26ZM1335 7219V7129.4H1355.74V7202.1H1400.66V7219H1335ZM1412.25 7219V7129.4H1429.4L1467.55 7192.63H1458.46L1495.96 7129.4H1512.99L1513.24 7219H1493.79L1493.66 7159.22H1497.24L1467.29 7209.53H1457.95L1427.35 7159.22H1431.71V7219H1412.25ZM1577.89 7220.54C1570.89 7220.54 1564.37 7219.38 1558.31 7217.08C1552.33 7214.78 1547.13 7211.53 1542.69 7207.35C1538.34 7203.17 1534.93 7198.26 1532.45 7192.63C1530.06 7187 1528.87 7180.86 1528.87 7174.2C1528.87 7167.54 1530.06 7161.4 1532.45 7155.77C1534.93 7150.14 1538.38 7145.23 1542.82 7141.05C1547.26 7136.87 1552.46 7133.62 1558.44 7131.32C1564.41 7129.02 1570.89 7127.86 1577.89 7127.86C1584.97 7127.86 1591.46 7129.02 1597.35 7131.32C1603.32 7133.62 1608.48 7136.87 1612.84 7141.05C1617.27 7145.14 1620.73 7150.01 1623.2 7155.64C1625.68 7161.27 1626.92 7167.46 1626.92 7174.2C1626.92 7180.86 1625.68 7187.04 1623.2 7192.76C1620.73 7198.39 1617.27 7203.3 1612.84 7207.48C1608.48 7211.58 1603.32 7214.78 1597.35 7217.08C1591.46 7219.38 1584.97 7220.54 1577.89 7220.54ZM1607.2 7239.61C1603.7 7239.61 1600.38 7239.22 1597.22 7238.46C1594.15 7237.69 1591.08 7236.45 1588 7234.74C1585.02 7233.04 1581.86 7230.73 1578.53 7227.83C1575.29 7224.93 1571.75 7221.35 1567.91 7217.08L1589.67 7211.58C1591.97 7214.73 1594.1 7217.25 1596.07 7219.13C1598.03 7221.01 1599.91 7222.33 1601.7 7223.1C1603.58 7223.86 1605.54 7224.25 1607.59 7224.25C1613.05 7224.25 1617.91 7222.03 1622.18 7217.59L1631.4 7228.6C1625.34 7235.94 1617.27 7239.61 1607.2 7239.61ZM1577.89 7202.87C1581.9 7202.87 1585.57 7202.19 1588.9 7200.82C1592.31 7199.46 1595.3 7197.5 1597.86 7194.94C1600.42 7192.38 1602.38 7189.35 1603.75 7185.85C1605.2 7182.26 1605.92 7178.38 1605.92 7174.2C1605.92 7169.93 1605.2 7166.05 1603.75 7162.55C1602.38 7159.05 1600.42 7156.02 1597.86 7153.46C1595.3 7150.9 1592.31 7148.94 1588.9 7147.58C1585.57 7146.21 1581.9 7145.53 1577.89 7145.53C1573.88 7145.53 1570.17 7146.21 1566.76 7147.58C1563.34 7148.94 1560.36 7150.9 1557.8 7153.46C1555.32 7156.02 1553.36 7159.05 1551.91 7162.55C1550.54 7166.05 1549.86 7169.93 1549.86 7174.2C1549.86 7178.38 1550.54 7182.26 1551.91 7185.85C1553.36 7189.35 1555.32 7192.38 1557.8 7194.94C1560.36 7197.5 1563.34 7199.46 1566.76 7200.82C1570.17 7202.19 1573.88 7202.87 1577.89 7202.87Z" fill="white"/>
</svg>
