<svg width="344" height="137" viewBox="0 0 344 137" fill="none" xmlns="http://www.w3.org/2000/svg">
<path d="M62.1769 131.455L62.6793 58.2566L64.1072 25.0657L61.7072 25.0492L30.9099 82.8392L30.8248 95.2389L18.9985 84.4575L106.496 85.058L106.322 110.457L0.524586 109.731L0.722936 80.8319L43.4545 3.52339L92.7534 3.86176L91.8762 131.659L62.1769 131.455ZM170.413 134.998C153.08 134.879 139.979 130.189 131.109 120.928C122.305 111.667 117.965 98.137 118.087 80.3374L118.258 55.438C118.379 37.7718 122.904 24.3692 131.834 15.2303C140.764 6.09133 153.928 1.58157 171.328 1.70099C188.727 1.82042 201.829 6.51045 210.632 15.7711C219.502 25.0322 223.877 38.4959 223.755 56.1621L223.584 81.0615C223.462 98.8611 218.903 112.33 209.907 121.469C200.977 130.608 187.813 135.117 170.413 134.998ZM170.59 109.198C177.857 109.248 183.172 106.985 186.537 102.408C189.902 97.8307 191.615 91.109 191.676 82.2425L191.864 54.7432C191.926 45.8101 190.305 39.0655 187.003 34.5094C183.701 29.8866 178.417 27.5503 171.151 27.5004C163.884 27.4505 158.569 29.7141 155.204 34.2911C151.906 38.8019 150.227 45.5239 150.165 54.457L149.977 81.9563C149.916 90.8228 151.536 97.5674 154.838 102.19C158.206 106.813 163.457 109.15 170.59 109.198ZM298.695 133.078L299.197 59.88L300.625 26.689L298.225 26.6725L267.428 84.4625L267.343 96.8622L255.516 86.0808L343.014 86.6813L342.84 112.081L237.042 111.355L237.241 82.4553L279.972 5.14673L329.271 5.4851L328.394 133.282L298.695 133.078Z" fill="#8AE190"/>
</svg>
