<svg width="1236" height="506" viewBox="0 0 1236 506" fill="none" xmlns="http://www.w3.org/2000/svg">
<rect width="161.907" height="95.5612" transform="matrix(-1 0 0 1 307.065 162.482)" fill="#BDF8C1"/>
<rect width="129.805" height="177.325" transform="matrix(-1 0 0 1 274.963 56.1914)" fill="#BDF8C1"/>
<path d="M261.703 122.625L216.375 162.485H307.032L261.703 122.625Z" fill="#BDF8C1"/>
<rect width="197.266" height="125.712" transform="matrix(-1 0 0 1 197.266 132.332)" fill="#BDF8C1"/>
<rect x="10.7007" y="120.07" width="120.035" height="16.8637" fill="#BDF8C1"/>
<rect x="20.9363" y="147.152" width="55.83" height="16.8637" fill="white"/>
<rect x="89.7932" y="146.131" width="28.3803" height="17.8858" fill="white"/>
<rect x="20.9363" y="182.414" width="55.83" height="16.8637" fill="white"/>
<rect x="89.7932" y="181.393" width="28.3803" height="17.8858" fill="white"/>
<rect x="20.9363" y="217.674" width="55.83" height="16.8637" fill="white"/>
<rect x="89.7932" y="216.652" width="28.3803" height="17.8858" fill="white"/>
<rect x="166.094" y="70.9629" width="15.8185" height="25.8045" fill="white"/>
<rect x="193.079" y="70.9629" width="15.8185" height="25.8045" fill="white"/>
<rect x="220.063" y="70.9629" width="15.8185" height="25.8045" fill="white"/>
<rect x="166.094" y="112.016" width="15.8185" height="25.218" fill="white"/>
<rect x="193.079" y="112.016" width="15.8185" height="25.218" fill="white"/>
<rect x="220.063" y="112.016" width="15.8185" height="25.218" fill="white"/>
<rect x="166.094" y="158.396" width="107.473" height="11.7535" fill="white"/>
<rect x="166.094" y="178.836" width="107.473" height="11.7535" fill="white"/>
<rect x="166.094" y="201.322" width="107.473" height="11.7535" fill="white"/>
<rect x="166.094" y="222.785" width="107.473" height="11.7535" fill="white"/>
<rect x="162.372" y="47.5039" width="112.591" height="11.7535" fill="#BDF8C1"/>
<path fill-rule="evenodd" clip-rule="evenodd" d="M1209.54 0V55.713H1198.52V65.6836H1171.51V172.519L1129.07 160.98V25.2168H1027.65V177.111V196.465V214.645L1027.65 374.752H1185.29V374.751H1236V75.0664H1236V61.5789H1236V0H1209.54Z" fill="#DBFFDD"/>
<rect width="40.2377" height="5.86466" transform="matrix(-1 0 0 1 1112.53 43.3984)" fill="white"/>
<rect width="40.2377" height="5.2782" transform="matrix(-1 0 0 1 1112.53 53.9551)" fill="white"/>
<rect width="40.2377" height="5.86466" transform="matrix(-1 0 0 1 1112.53 92.6621)" fill="white"/>
<rect width="40.2377" height="5.2782" transform="matrix(-1 0 0 1 1112.53 103.219)" fill="white"/>
<rect width="40.2377" height="5.86466" transform="matrix(-1 0 0 1 1112.53 141.926)" fill="white"/>
<rect width="40.2377" height="5.2782" transform="matrix(-1 0 0 1 1112.53 152.48)" fill="white"/>
<rect width="40.2377" height="5.86466" transform="matrix(-1 0 0 1 1112.53 191.188)" fill="white"/>
<rect width="40.2377" height="5.2782" transform="matrix(-1 0 0 1 1112.53 201.744)" fill="white"/>
<rect width="9.37043" height="17.594" transform="matrix(-1 0 0 1 1236 88.5566)" fill="white"/>
<rect width="11.024" height="17.594" transform="matrix(-1 0 0 1 1209.54 88.5566)" fill="white"/>
<rect width="9.37043" height="17.594" transform="matrix(-1 0 0 1 1236 141.338)" fill="white"/>
<rect width="11.024" height="17.594" transform="matrix(-1 0 0 1 1209.54 141.338)" fill="white"/>
<rect width="9.37043" height="17.594" transform="matrix(-1 0 0 1 1236 200.572)" fill="white"/>
<rect width="11.024" height="17.594" transform="matrix(-1 0 0 1 1209.54 200.572)" fill="white"/>
<rect width="9.37043" height="17.594" transform="matrix(-1 0 0 1 1236 253.354)" fill="white"/>
<rect width="11.024" height="17.594" transform="matrix(-1 0 0 1 1209.54 253.354)" fill="white"/>
<rect width="9.37043" height="17.594" transform="matrix(-1 0 0 1 1236 314.346)" fill="white"/>
<rect width="11.024" height="17.594" transform="matrix(-1 0 0 1 1209.54 314.346)" fill="white"/>
<rect width="11.024" height="22.2857" transform="matrix(-1 0 0 1 1058.51 40.4668)" fill="white"/>
<rect width="11.024" height="22.2857" transform="matrix(-1 0 0 1 1058.51 89.7285)" fill="white"/>
<rect width="11.024" height="22.2857" transform="matrix(-1 0 0 1 1058.51 138.992)" fill="white"/>
<rect width="11.024" height="22.2857" transform="matrix(-1 0 0 1 1058.51 188.256)" fill="white"/>
<rect width="11.024" height="22.2857" transform="matrix(-1 0 0 1 1058.51 237.52)" fill="white"/>
<rect width="11.024" height="22.2857" transform="matrix(-1 0 0 1 1085.52 237.52)" fill="white"/>
<rect width="11.024" height="22.2857" transform="matrix(-1 0 0 1 1110.33 237.52)" fill="white"/>
<rect width="11.024" height="22.2857" transform="matrix(-1 0 0 1 1085.52 306.723)" fill="white"/>
<rect width="11.024" height="22.2857" transform="matrix(-1 0 0 1 1110.33 306.723)" fill="white"/>
<rect width="11.024" height="22.2857" transform="matrix(-1 0 0 1 1058.51 306.723)" fill="white"/>
<rect width="9.37043" height="44.5714" transform="matrix(-1 0 0 1 1236 21.6992)" fill="white"/>
<path fill-rule="evenodd" clip-rule="evenodd" d="M25.7231 65V120.715H36.441V130.685H62.6999V237.518L103.964 225.979V90.2185H202.569V242.113V261.467V279.647L202.569 439.752L62.6999 439.752H0V140.068V130.685V120.715L2.82361e-05 65H25.7231Z" fill="#CFEDD2"/>
<rect x="120.041" y="108.398" width="39.1204" height="5.86466" fill="white"/>
<rect x="120.041" y="118.955" width="39.1204" height="5.2782" fill="white"/>
<rect x="120.041" y="157.662" width="39.1204" height="5.86466" fill="white"/>
<rect x="120.041" y="168.219" width="39.1204" height="5.2782" fill="white"/>
<rect x="120.041" y="206.924" width="39.1204" height="5.86466" fill="white"/>
<rect x="120.041" y="217.48" width="39.1204" height="5.2782" fill="white"/>
<rect x="120.041" y="256.188" width="39.1204" height="5.86466" fill="white"/>
<rect x="120.041" y="266.744" width="39.1204" height="5.2782" fill="white"/>
<rect y="153.557" width="9.11024" height="17.594" fill="white"/>
<rect x="25.723" y="153.557" width="10.7179" height="17.594" fill="white"/>
<rect y="206.338" width="9.11024" height="17.594" fill="white"/>
<rect x="25.723" y="206.338" width="10.7179" height="17.594" fill="white"/>
<rect y="265.572" width="9.11024" height="17.594" fill="white"/>
<rect x="25.723" y="265.572" width="10.7179" height="17.594" fill="white"/>
<rect y="318.354" width="9.11024" height="17.594" fill="white"/>
<rect x="25.723" y="318.354" width="10.7179" height="17.594" fill="white"/>
<rect y="379.346" width="9.11024" height="17.594" fill="white"/>
<rect x="25.723" y="379.346" width="10.7179" height="17.594" fill="white"/>
<rect x="172.559" y="105.467" width="10.7179" height="22.2857" fill="white"/>
<rect x="172.559" y="154.729" width="10.7179" height="22.2857" fill="white"/>
<rect x="172.559" y="203.992" width="10.7179" height="22.2857" fill="white"/>
<rect x="172.559" y="253.256" width="10.7179" height="22.2857" fill="white"/>
<rect x="172.559" y="302.52" width="10.7179" height="22.2857" fill="white"/>
<rect x="146.3" y="302.52" width="10.7179" height="22.2857" fill="white"/>
<rect x="122.184" y="302.52" width="10.7179" height="22.2857" fill="white"/>
<rect x="146.3" y="371.723" width="10.7179" height="22.2857" fill="white"/>
<rect x="122.184" y="371.723" width="10.7179" height="22.2857" fill="white"/>
<rect x="172.559" y="371.723" width="10.7179" height="22.2857" fill="white"/>
<rect y="86.6992" width="9.11024" height="44.5714" fill="white"/>
<rect x="993" y="302.225" width="112.615" height="137.233" fill="#CBEBCC"/>
<rect x="1105.62" y="353.248" width="31.3101" height="86.2105" fill="#CBEBCC"/>
<path d="M1103.31 353.739L1102.88 314.179L1137.38 354.242L1103.31 353.739Z" fill="#CBEBCC"/>
<rect x="993" y="176.723" width="112.615" height="127.85" fill="#CBEBCC"/>
<rect x="1118.24" y="123.939" width="68.6803" height="315.519" fill="#CBEBCC"/>
<rect x="1184.4" y="274.662" width="49.4902" height="164.797" fill="#CBEBCC"/>
<rect x="1130.36" y="104" width="42.9252" height="53.3684" fill="#CBEBCC"/>
<rect x="1142.99" y="123.939" width="19.1901" height="24.6316" fill="white"/>
<ellipse cx="1152.58" cy="125.407" rx="9.59504" ry="9.09023" fill="white"/>
<rect x="1125.82" y="159.127" width="53.5302" height="5.2782" fill="white"/>
<rect x="1125.82" y="184.932" width="7.57503" height="32.8421" fill="white"/>
<rect x="1140.97" y="184.932" width="7.57503" height="32.8421" fill="white"/>
<rect x="1156.12" y="184.932" width="7.57503" height="32.8421" fill="white"/>
<rect x="1171.27" y="184.932" width="7.57503" height="32.8421" fill="white"/>
<rect x="1125.82" y="242.406" width="7.57503" height="32.8421" fill="white"/>
<rect x="1140.97" y="242.406" width="7.57503" height="32.8421" fill="white"/>
<rect x="1156.12" y="242.406" width="7.57503" height="32.8421" fill="white"/>
<rect x="1171.27" y="242.406" width="7.57503" height="32.8421" fill="white"/>
<rect x="1125.82" y="296.361" width="98.4754" height="4.10526" fill="white"/>
<rect x="1184.4" y="319.82" width="12.6251" height="14.6617" fill="white"/>
<rect x="1184.4" y="350.902" width="12.6251" height="14.6617" fill="white"/>
<rect x="1209.14" y="350.902" width="12.6251" height="14.6617" fill="white"/>
<rect x="1209.14" y="381.984" width="12.6251" height="14.6617" fill="white"/>
<rect x="1184.4" y="381.984" width="12.6251" height="14.6617" fill="white"/>
<rect x="1209.14" y="319.82" width="12.6251" height="14.6617" fill="white"/>
<rect x="1125.82" y="319.82" width="12.6251" height="14.6617" fill="white"/>
<rect x="1125.82" y="350.902" width="12.6251" height="14.6617" fill="white"/>
<rect x="1150.56" y="350.902" width="12.6251" height="14.6617" fill="white"/>
<rect x="1150.56" y="381.984" width="12.6251" height="14.6617" fill="white"/>
<rect x="1125.82" y="381.984" width="12.6251" height="14.6617" fill="white"/>
<rect x="1150.56" y="319.82" width="12.6251" height="14.6617" fill="white"/>
<rect x="1021.28" y="196.074" width="15.1501" height="20.5263" fill="white"/>
<rect x="1047.04" y="196.074" width="15.1501" height="20.5263" fill="white"/>
<rect x="1072.79" y="196.074" width="15.1501" height="20.5263" fill="white"/>
<rect x="1021.28" y="243.578" width="15.1501" height="20.5263" fill="white"/>
<rect x="1047.04" y="243.578" width="15.1501" height="20.5263" fill="white"/>
<rect x="1072.79" y="243.578" width="15.1501" height="20.5263" fill="white"/>
<rect x="1021.28" y="293.428" width="15.1501" height="20.5263" fill="white"/>
<rect x="1047.04" y="293.428" width="15.1501" height="20.5263" fill="white"/>
<rect x="1072.79" y="293.428" width="15.1501" height="20.5263" fill="white"/>
<rect x="1021.28" y="340.932" width="15.1501" height="20.5263" fill="white"/>
<rect x="1047.04" y="340.932" width="15.1501" height="20.5263" fill="white"/>
<rect x="1072.79" y="340.932" width="15.1501" height="20.5263" fill="white"/>
<rect x="1006.13" y="162.061" width="66.6603" height="17.594" fill="#CBEBCC"/>
<path fill-rule="evenodd" clip-rule="evenodd" d="M339.816 66.7285L367.03 86.6684H371.702V168.774H395.282V180.503H414.038V440.307H388.315H307.395H197V204.548H279.003L307.395 172.67V86.6684H312.603L339.816 66.7285Z" fill="#DBFFDD"/>
<rect x="204.503" y="230.354" width="74.4896" height="5.86466" fill="white"/>
<rect x="204.503" y="243.256" width="74.4896" height="5.86466" fill="white"/>
<rect x="204.503" y="274.338" width="10.7179" height="20.5263" fill="white"/>
<rect x="236.12" y="274.338" width="10.7179" height="20.5263" fill="white"/>
<rect x="268.274" y="274.338" width="10.7179" height="20.5263" fill="white"/>
<rect x="313.825" y="219.211" width="10.7179" height="20.5263" fill="white"/>
<rect x="345.443" y="219.211" width="10.7179" height="20.5263" fill="white"/>
<rect x="377.597" y="219.211" width="10.7179" height="20.5263" fill="white"/>
<rect x="313.825" y="262.609" width="10.7179" height="20.5263" fill="white"/>
<rect x="345.443" y="262.609" width="10.7179" height="20.5263" fill="white"/>
<rect x="377.597" y="262.609" width="10.7179" height="20.5263" fill="white"/>
<rect x="313.825" y="307.18" width="10.7179" height="20.5263" fill="white"/>
<rect x="345.443" y="307.18" width="10.7179" height="20.5263" fill="white"/>
<rect x="377.597" y="307.18" width="10.7179" height="20.5263" fill="white"/>
<rect x="313.825" y="349.992" width="10.7179" height="20.5263" fill="white"/>
<rect x="345.443" y="349.992" width="10.7179" height="20.5263" fill="white"/>
<rect x="377.597" y="349.992" width="10.7179" height="20.5263" fill="white"/>
<rect x="313.825" y="393.391" width="10.7179" height="20.5263" fill="white"/>
<rect x="345.443" y="393.391" width="10.7179" height="20.5263" fill="white"/>
<rect x="377.597" y="393.391" width="10.7179" height="20.5263" fill="white"/>
<rect x="204.503" y="312.459" width="10.7179" height="20.5263" fill="white"/>
<rect x="236.12" y="312.459" width="10.7179" height="20.5263" fill="white"/>
<rect x="268.274" y="312.459" width="10.7179" height="20.5263" fill="white"/>
<rect x="204.503" y="352.926" width="10.7179" height="20.5263" fill="white"/>
<rect x="236.12" y="352.926" width="10.7179" height="20.5263" fill="white"/>
<rect x="268.274" y="352.926" width="10.7179" height="20.5263" fill="white"/>
<rect x="204.503" y="393.391" width="10.7179" height="20.5263" fill="white"/>
<rect x="236.12" y="393.391" width="10.7179" height="20.5263" fill="white"/>
<rect x="268.274" y="393.391" width="10.7179" height="20.5263" fill="white"/>
<rect x="336.333" y="55" width="5.35896" height="25.218" fill="#DBFFDD"/>
<rect x="319.72" y="95.4668" width="12.3256" height="31.6692" fill="white"/>
<rect x="319.72" y="138.865" width="12.3256" height="31.6692" fill="white"/>
<rect x="345.979" y="95.4668" width="12.3256" height="31.6692" fill="white"/>
<rect x="345.979" y="138.865" width="12.3256" height="31.6692" fill="white"/>
<rect x="406" y="368.225" width="119.505" height="137.233" fill="#CBFDCE"/>
<rect x="525.505" y="419.248" width="33.2256" height="86.2105" fill="#CBFDCE"/>
<path d="M523.062 419.739L522.602 380.179L559.21 420.242L523.062 419.739Z" fill="#CBFDCE"/>
<rect x="406" y="242.723" width="119.505" height="127.85" fill="#CBFDCE"/>
<rect x="538.902" y="189.939" width="72.8819" height="315.519" fill="#CBFDCE"/>
<rect x="609.105" y="340.662" width="52.5178" height="164.797" fill="#CBFDCE"/>
<rect x="551.764" y="170" width="45.5512" height="53.3684" fill="#CBFDCE"/>
<rect x="565.161" y="189.939" width="20.3641" height="24.6316" fill="white"/>
<ellipse cx="575.343" cy="191.407" rx="10.182" ry="9.09023" fill="white"/>
<rect x="546.941" y="225.127" width="56.805" height="5.2782" fill="white"/>
<rect x="546.941" y="250.932" width="8.03845" height="32.8421" fill="white"/>
<rect x="563.018" y="250.932" width="8.03845" height="32.8421" fill="white"/>
<rect x="579.094" y="250.932" width="8.03845" height="32.8421" fill="white"/>
<rect x="595.171" y="250.932" width="8.03845" height="32.8421" fill="white"/>
<rect x="546.941" y="308.406" width="8.03845" height="32.8421" fill="white"/>
<rect x="563.018" y="308.406" width="8.03845" height="32.8421" fill="white"/>
<rect x="579.094" y="308.406" width="8.03845" height="32.8421" fill="white"/>
<rect x="595.171" y="308.406" width="8.03845" height="32.8421" fill="white"/>
<rect x="546.941" y="362.361" width="104.5" height="4.10526" fill="white"/>
<rect x="609.105" y="385.82" width="13.3974" height="14.6617" fill="white"/>
<rect x="609.105" y="416.902" width="13.3974" height="14.6617" fill="white"/>
<rect x="635.364" y="416.902" width="13.3974" height="14.6617" fill="white"/>
<rect x="635.364" y="447.984" width="13.3974" height="14.6617" fill="white"/>
<rect x="609.105" y="447.984" width="13.3974" height="14.6617" fill="white"/>
<rect x="635.364" y="385.82" width="13.3974" height="14.6617" fill="white"/>
<rect x="546.941" y="385.82" width="13.3974" height="14.6617" fill="white"/>
<rect x="546.941" y="416.902" width="13.3974" height="14.6617" fill="white"/>
<rect x="573.2" y="416.902" width="13.3974" height="14.6617" fill="white"/>
<rect x="573.2" y="447.984" width="13.3974" height="14.6617" fill="white"/>
<rect x="546.941" y="447.984" width="13.3974" height="14.6617" fill="white"/>
<rect x="573.2" y="385.82" width="13.3974" height="14.6617" fill="white"/>
<rect x="436.01" y="262.074" width="16.0769" height="20.5263" fill="white"/>
<rect x="463.341" y="262.074" width="16.0769" height="20.5263" fill="white"/>
<rect x="490.672" y="262.074" width="16.0769" height="20.5263" fill="white"/>
<rect x="436.01" y="309.578" width="16.0769" height="20.5263" fill="white"/>
<rect x="463.341" y="309.578" width="16.0769" height="20.5263" fill="white"/>
<rect x="490.672" y="309.578" width="16.0769" height="20.5263" fill="white"/>
<rect x="436.01" y="359.428" width="16.0769" height="20.5263" fill="white"/>
<rect x="463.341" y="359.428" width="16.0769" height="20.5263" fill="white"/>
<rect x="490.672" y="359.428" width="16.0769" height="20.5263" fill="white"/>
<rect x="436.01" y="406.932" width="16.0769" height="20.5263" fill="white"/>
<rect x="463.341" y="406.932" width="16.0769" height="20.5263" fill="white"/>
<rect x="490.672" y="406.932" width="16.0769" height="20.5263" fill="white"/>
<rect x="419.933" y="228.061" width="70.7383" height="17.594" fill="#CBFDCE"/>
<path fill-rule="evenodd" clip-rule="evenodd" d="M942.713 65.7285L969.927 85.6684H974.599V167.774H998.178V179.503H1016.93V439.307H991.212H910.291H799.896V203.548H881.899L910.291 171.669V85.6684H915.499L942.713 65.7285Z" fill="#C1FEC4"/>
<rect x="807.399" y="229.354" width="74.4896" height="5.86466" fill="white"/>
<rect x="807.399" y="242.256" width="74.4896" height="5.86466" fill="white"/>
<rect x="807.399" y="273.338" width="10.7179" height="20.5263" fill="white"/>
<rect x="839.017" y="273.338" width="10.7179" height="20.5263" fill="white"/>
<rect x="871.171" y="273.338" width="10.7179" height="20.5263" fill="white"/>
<rect x="916.722" y="218.211" width="10.7179" height="20.5263" fill="white"/>
<rect x="948.34" y="218.211" width="10.7179" height="20.5263" fill="white"/>
<rect x="980.494" y="218.211" width="10.7179" height="20.5263" fill="white"/>
<rect x="916.722" y="261.609" width="10.7179" height="20.5263" fill="white"/>
<rect x="948.34" y="261.609" width="10.7179" height="20.5263" fill="white"/>
<rect x="980.494" y="261.609" width="10.7179" height="20.5263" fill="white"/>
<rect x="916.722" y="306.18" width="10.7179" height="20.5263" fill="white"/>
<rect x="948.34" y="306.18" width="10.7179" height="20.5263" fill="white"/>
<rect x="980.494" y="306.18" width="10.7179" height="20.5263" fill="white"/>
<rect x="916.722" y="348.992" width="10.7179" height="20.5263" fill="white"/>
<rect x="948.34" y="348.992" width="10.7179" height="20.5263" fill="white"/>
<rect x="980.494" y="348.992" width="10.7179" height="20.5263" fill="white"/>
<rect x="916.722" y="392.391" width="10.7179" height="20.5263" fill="white"/>
<rect x="948.34" y="392.391" width="10.7179" height="20.5263" fill="white"/>
<rect x="980.494" y="392.391" width="10.7179" height="20.5263" fill="white"/>
<rect x="807.399" y="311.459" width="10.7179" height="20.5263" fill="white"/>
<rect x="839.017" y="311.459" width="10.7179" height="20.5263" fill="white"/>
<rect x="871.171" y="311.459" width="10.7179" height="20.5263" fill="white"/>
<rect x="807.399" y="351.926" width="10.7179" height="20.5263" fill="white"/>
<rect x="839.017" y="351.926" width="10.7179" height="20.5263" fill="white"/>
<rect x="871.171" y="351.926" width="10.7179" height="20.5263" fill="white"/>
<rect x="807.399" y="392.391" width="10.7179" height="20.5263" fill="white"/>
<rect x="839.017" y="392.391" width="10.7179" height="20.5263" fill="white"/>
<rect x="871.171" y="392.391" width="10.7179" height="20.5263" fill="white"/>
<rect x="939.23" y="54" width="5.35896" height="25.218" fill="#DBFFDD"/>
<rect x="922.617" y="94.4668" width="12.3256" height="31.6692" fill="white"/>
<rect x="922.617" y="137.865" width="12.3256" height="31.6692" fill="white"/>
<rect x="948.876" y="94.4668" width="12.3256" height="31.6692" fill="white"/>
<rect x="948.876" y="137.865" width="12.3256" height="31.6692" fill="white"/>
<rect width="171.986" height="95.5612" transform="matrix(-1 0 0 1 870.572 407.627)" fill="#DBFFDD"/>
<rect width="137.886" height="177.325" transform="matrix(-1 0 0 1 836.472 301.334)" fill="#DBFFDD"/>
<path d="M822.387 367.768L774.236 407.627H870.537L822.387 367.768Z" fill="#DBFFDD"/>
<rect width="209.547" height="125.712" transform="matrix(-1 0 0 1 753.938 377.477)" fill="#DBFFDD"/>
<rect x="555.758" y="365.213" width="127.507" height="16.8637" fill="#DBFFDD"/>
<rect x="566.631" y="392.295" width="59.3057" height="16.8637" fill="white"/>
<rect x="639.774" y="391.273" width="30.1471" height="17.8858" fill="white"/>
<rect x="566.631" y="427.557" width="59.3057" height="16.8637" fill="white"/>
<rect x="639.774" y="426.535" width="30.1471" height="17.8858" fill="white"/>
<rect x="566.631" y="462.816" width="59.3057" height="16.8637" fill="white"/>
<rect x="639.774" y="461.795" width="30.1471" height="17.8858" fill="white"/>
<rect x="720.826" y="316.105" width="16.8033" height="25.8045" fill="white"/>
<rect x="749.49" y="316.105" width="16.8033" height="25.8045" fill="white"/>
<rect x="778.154" y="316.105" width="16.8033" height="25.8045" fill="white"/>
<rect x="720.826" y="357.158" width="16.8033" height="25.218" fill="white"/>
<rect x="749.49" y="357.158" width="16.8033" height="25.218" fill="white"/>
<rect x="778.154" y="357.158" width="16.8033" height="25.218" fill="white"/>
<rect x="720.826" y="403.539" width="114.163" height="11.7535" fill="white"/>
<rect x="720.826" y="423.98" width="114.163" height="11.7535" fill="white"/>
<rect x="720.826" y="446.465" width="114.163" height="11.7535" fill="white"/>
<rect x="720.826" y="467.928" width="114.163" height="11.7535" fill="white"/>
<rect x="716.872" y="292.646" width="119.6" height="11.7535" fill="#DBFFDD"/>
</svg>
