<svg width="728" height="127" viewBox="0 0 728 127" fill="none" xmlns="http://www.w3.org/2000/svg">
<path d="M292.685 28.2762L292.858 3.07675L305.17 3.16126C308.338 3.183 310.71 3.79929 312.286 5.01014C313.885 6.22114 314.678 7.81063 314.665 9.77858C314.656 11.0985 314.324 12.2483 313.669 13.2278C313.015 14.1834 312.122 14.9212 310.99 15.4415C309.858 15.9617 308.561 16.2168 307.097 16.2068L307.791 14.7355C309.375 14.7464 310.777 15.02 311.997 15.5564C313.218 16.0688 314.16 16.8313 314.826 17.8439C315.515 18.8566 315.854 20.095 315.844 21.5589C315.829 23.7189 314.966 25.405 313.253 26.6173C311.541 27.8056 309.029 28.3883 305.717 28.3656L292.685 28.2762ZM298.511 23.924L305.315 23.9707C306.827 23.9811 307.969 23.749 308.74 23.2742C309.536 22.7757 309.937 21.9864 309.944 20.9064C309.952 19.8505 309.561 19.0678 308.773 18.5583C308.008 18.0251 306.87 17.7533 305.358 17.7429L298.122 17.6932L298.151 13.4453L304.379 13.4881C305.795 13.4978 306.877 13.2652 307.624 12.7903C308.396 12.2916 308.785 11.5383 308.792 10.5303C308.798 9.54631 308.419 8.81169 307.655 8.32643C306.914 7.81734 305.836 7.55793 304.42 7.54821L298.624 7.50843L298.511 23.924ZM320.212 28.4651L320.385 3.26568L331.293 3.34055C333.549 3.35603 335.49 3.74137 337.117 4.49655C338.744 5.22773 339.997 6.28036 340.875 7.65442C341.754 9.02848 342.187 10.6635 342.174 12.5594C342.161 14.4314 341.706 16.0483 340.808 17.4102C339.911 18.7481 338.644 19.7714 337.007 20.4802C335.37 21.189 333.424 21.5356 331.168 21.5201L323.5 21.4675L326.11 18.9293L326.044 28.5051L320.212 28.4651ZM336.232 28.575L329.995 19.388L336.223 19.4308L342.532 28.6183L336.232 28.575ZM326.105 19.5773L323.532 16.8236L330.876 16.874C332.676 16.8864 334.023 16.5116 334.916 15.7497C335.809 14.9638 336.261 13.8869 336.27 12.5189C336.28 11.127 335.843 10.0439 334.96 9.26986C334.078 8.49578 332.736 8.10257 330.936 8.09021L323.592 8.03981L326.203 5.28566L326.105 19.5773ZM343.372 28.6241L354.777 3.50173L360.537 3.54126L371.632 28.818L365.512 28.776L356.449 6.46528L358.753 6.48109L349.348 28.6651L343.372 28.6241ZM349.025 23.2627L350.604 18.8455L363.563 18.9344L365.117 23.3732L349.025 23.2627ZM380.435 28.8784L369.736 3.6044L376.036 3.64764L385.386 26.0323L381.679 26.0069L391.479 3.75364L397.275 3.79342L386.195 28.918L380.435 28.8784ZM411.162 29.5213C409.17 29.5077 407.324 29.171 405.625 28.5113C403.949 27.8518 402.491 26.9298 401.252 25.7452C400.036 24.5609 399.085 23.1743 398.4 21.5856C397.739 19.997 397.415 18.2667 397.428 16.3948C397.44 14.5228 397.788 12.7972 398.471 11.2178C399.178 9.63862 400.159 8.26532 401.416 7.09791C402.672 5.93051 404.142 5.02858 405.826 4.39212C407.511 3.75567 409.337 3.44419 411.305 3.4577C413.297 3.47137 415.118 3.80788 416.77 4.46723C418.445 5.12675 419.891 6.04869 421.107 7.23307C422.347 8.4176 423.309 9.80424 423.995 11.393C424.68 12.9577 425.016 14.6881 425.003 16.584C424.99 18.456 424.63 20.1936 423.923 21.7967C423.216 23.3759 422.235 24.7492 420.979 25.9166C419.747 27.0602 418.289 27.9502 416.604 28.5867C414.944 29.2233 413.13 29.5348 411.162 29.5213ZM411.16 24.5532C412.288 24.5609 413.321 24.376 414.26 23.9985C415.222 23.6211 416.066 23.0748 416.791 22.3598C417.516 21.6448 418.074 20.7966 418.465 19.8152C418.879 18.8341 419.091 17.7435 419.099 16.5435C419.107 15.3435 418.911 14.2502 418.51 13.2634C418.132 12.2768 417.586 11.421 416.871 10.6961C416.18 9.97132 415.356 9.41365 414.399 9.02307C413.441 8.63249 412.399 8.43333 411.271 8.42558C410.143 8.41784 409.097 8.60267 408.135 8.98007C407.196 9.35764 406.364 9.90394 405.639 10.619C404.915 11.334 404.345 12.1821 403.93 13.1633C403.539 14.1447 403.34 15.2353 403.332 16.4353C403.323 17.6113 403.508 18.7045 403.885 19.7152C404.286 20.7019 404.832 21.5577 405.523 22.2825C406.238 23.0074 407.075 23.5651 408.032 23.9557C408.989 24.3463 410.032 24.5455 411.16 24.5532ZM429.359 20.466L428.356 4.00674L435.052 4.0527L433.823 20.4967L429.359 20.466ZM431.529 29.5171C430.521 29.5102 429.696 29.1805 429.052 28.5281C428.409 27.8757 428.09 27.1055 428.096 26.2175C428.102 25.3055 428.431 24.5517 429.083 23.9562C429.736 23.3367 430.566 23.0304 431.574 23.0373C432.606 23.0444 433.432 23.362 434.051 23.9903C434.695 24.5947 435.014 25.3529 435.008 26.2649C435.002 27.1529 434.672 27.9187 434.02 28.5622C433.392 29.2059 432.561 29.5242 431.529 29.5171ZM1.31413 70.2774L1.48709 45.078L6.31097 45.1111L16.9167 62.9683L14.3607 62.9507L25.0305 45.2396L29.8184 45.2724L29.7175 70.4723L24.2456 70.4348L24.325 53.6229L25.333 53.6298L16.8121 67.7197L14.1841 67.7016L5.67742 53.4949L6.90139 53.5033L6.786 70.3149L1.31413 70.2774ZM47.1799 70.5922L47.2058 66.8123L46.8515 65.9818L46.898 59.214C46.9062 58.014 46.5406 57.0755 45.8013 56.3984C45.0859 55.7215 43.9722 55.3778 42.4602 55.3674C41.4283 55.3603 40.4071 55.5213 39.3969 55.8504C38.4107 56.1556 37.5678 56.5819 36.868 57.1291L34.879 53.1913C35.9401 52.4546 37.216 51.8873 38.7068 51.4896C40.1975 51.0918 41.7109 50.8982 43.2469 50.9087C46.1988 50.929 48.486 51.6407 50.1084 53.0439C51.7308 54.447 52.5319 56.6246 52.5116 59.5765L52.4357 70.6282L47.1799 70.5922ZM41.274 70.8396C39.7621 70.8293 38.4678 70.5684 37.3913 70.057C36.315 69.5216 35.4918 68.8079 34.9219 67.916C34.3521 67.024 34.0709 66.0261 34.0785 64.9221C34.0864 63.7701 34.3693 62.7641 34.9272 61.9039C35.5091 61.0438 36.4137 60.378 37.641 59.9065C38.8684 59.4109 40.4661 59.1698 42.4341 59.1833L47.5819 59.2187L47.5595 62.4946L43.0236 62.4635C41.7036 62.4544 40.7901 62.6641 40.2832 63.0927C39.8002 63.5214 39.5565 64.0597 39.5521 64.7077C39.5471 65.4277 39.8192 66.0055 40.3682 66.4413C40.9414 66.8533 41.72 67.0626 42.7039 67.0694C43.6399 67.0758 44.4814 66.8656 45.2283 66.4387C45.9754 65.9878 46.52 65.3315 46.8619 64.4698L47.7081 67.0677C47.2915 68.3129 46.541 69.2558 45.4566 69.8963C44.3722 70.5369 42.978 70.8513 41.274 70.8396ZM57.5184 70.6631L57.7017 43.9518L63.3176 43.9903L63.1342 70.7017L57.5184 70.6631ZM77.4041 78.0718C75.5802 78.0593 73.8178 77.8192 72.1169 77.3515C70.4399 76.908 69.0405 76.2383 67.9186 75.3426L70.1782 71.326C70.9896 72.0036 72.018 72.5387 73.2633 72.9312C74.5325 73.348 75.779 73.5605 77.003 73.5689C78.995 73.5826 80.438 73.1485 81.3321 72.2666C82.2501 71.3849 82.7152 70.0681 82.7272 68.3161L82.7472 65.4002L83.1406 60.5427L83.1022 55.6464L83.1308 51.4705L88.4587 51.507L88.348 67.6347C88.3233 71.2346 87.3691 73.8801 85.4855 75.5712C83.6018 77.2623 80.908 78.0958 77.4041 78.0718ZM76.5965 69.8581C74.7965 69.8457 73.1672 69.4505 71.7085 68.6725C70.274 67.8706 69.1175 66.7706 68.2391 65.3726C67.3848 63.9507 66.9641 62.3038 66.9769 60.4318C66.99 58.5359 67.4332 56.8949 68.3068 55.5088C69.2045 54.0989 70.3759 53.015 71.8212 52.2569C73.2904 51.4989 74.925 51.1261 76.725 51.1385C78.3569 51.1497 79.7946 51.4956 81.0379 52.1761C82.2815 52.8327 83.2464 53.8593 83.9329 55.2561C84.6195 56.6288 84.9553 58.3952 84.9405 60.5551C84.9259 62.6911 84.5658 64.4526 83.8602 65.8398C83.1548 67.203 82.1759 68.2163 80.9233 68.8797C79.6707 69.5431 78.2284 69.8693 76.5965 69.8581ZM77.7441 65.2578C78.728 65.2646 79.6053 65.0786 80.376 64.6999C81.1467 64.2972 81.7506 63.7373 82.1875 63.0203C82.6245 62.3032 82.8461 61.4767 82.8526 60.5408C82.8592 59.5808 82.6488 58.7513 82.2216 58.0524C81.7946 57.3294 81.1984 56.7733 80.433 56.3841C79.6679 55.9708 78.7933 55.7608 77.8093 55.754C76.8253 55.7473 75.9479 55.9453 75.1772 56.348C74.4065 56.7267 73.7908 57.2745 73.3298 57.9914C72.8931 58.6844 72.6714 59.5109 72.6648 60.4708C72.6584 61.4068 72.8687 62.2363 73.2957 62.9592C73.7468 63.6823 74.3549 64.2505 75.1201 64.6638C75.8854 65.0531 76.7601 65.2511 77.7441 65.2578ZM93.5527 70.9105L93.6856 51.5429L99.0495 51.5797L99.0119 57.0516L98.2668 55.4624C98.8522 54.0984 99.7833 53.0728 101.06 52.3855C102.337 51.6743 103.887 51.3249 105.711 51.3374L105.676 56.5213C105.436 56.4957 105.22 56.4822 105.028 56.4809C104.836 56.4556 104.632 56.4422 104.416 56.4407C102.88 56.4301 101.629 56.8656 100.663 57.7469C99.7213 58.6045 99.244 59.9573 99.2313 61.8052L99.1685 70.949L93.5527 70.9105ZM118.385 71.3689C116.177 71.3537 114.236 70.9084 112.562 70.0329C110.912 69.1576 109.636 67.9728 108.734 66.4785C107.833 64.9603 107.388 63.2412 107.401 61.3213C107.415 59.3773 107.871 57.6644 108.769 56.1825C109.691 54.6768 110.935 53.5093 112.501 52.6801C114.067 51.8268 115.834 51.4069 117.802 51.4204C119.698 51.4334 121.399 51.8531 122.905 52.6795C124.436 53.482 125.64 54.6423 126.517 56.1604C127.395 57.6544 127.827 59.4454 127.813 61.5334C127.811 61.7494 127.797 62.0013 127.771 62.2891C127.746 62.5529 127.72 62.8048 127.694 63.0446L111.962 62.9366L111.985 59.6607L124.765 59.7484L122.598 60.7056C122.605 59.6976 122.407 58.8202 122.004 58.0734C121.601 57.3266 121.041 56.7468 120.324 56.3338C119.607 55.8969 118.768 55.6752 117.809 55.6686C116.849 55.662 115.995 55.8721 115.248 56.299C114.525 56.7021 113.957 57.2862 113.544 58.0514C113.131 58.7925 112.921 59.6791 112.914 60.7111L112.908 61.5751C112.901 62.631 113.122 63.5686 113.573 64.3877C114.047 65.183 114.703 65.7995 115.54 66.2372C116.401 66.6512 117.408 66.8621 118.56 66.87C119.592 66.8771 120.493 66.7273 121.263 66.4205C122.057 66.114 122.78 65.6509 123.432 65.0314L126.398 68.2918C125.503 69.2937 124.382 70.066 123.034 70.6088C121.687 71.1276 120.137 71.3809 118.385 71.3689ZM114.433 49.2012L119.328 44.0507L125.376 44.0922L118.825 49.2314L114.433 49.2012ZM146.936 71.2769L138.933 51.8535L144.729 51.8932L151.383 68.6073L148.503 68.5875L155.637 51.9681L161.037 52.0052L152.732 71.3166L146.936 71.2769ZM171.882 71.7361C169.818 71.7219 167.985 71.2773 166.383 70.4023C164.805 69.5274 163.553 68.3428 162.627 66.8484C161.726 65.3302 161.282 63.6111 161.295 61.6912C161.308 59.7472 161.776 58.0344 162.698 56.5527C163.644 55.0471 164.912 53.8798 166.502 53.0507C168.116 52.1978 169.955 51.7784 172.019 51.7925C174.059 51.8065 175.88 52.2511 177.482 53.1261C179.084 53.9771 180.336 55.1497 181.238 56.6439C182.14 58.1382 182.584 59.8692 182.57 61.8372C182.557 63.7572 182.089 65.47 181.167 66.9757C180.245 68.4574 178.977 69.6247 177.363 70.4777C175.749 71.3306 173.922 71.7501 171.882 71.7361ZM171.914 67.1282C172.85 67.1346 173.691 66.9244 174.438 66.4975C175.185 66.0706 175.777 65.4627 176.215 64.6736C176.652 63.8606 176.875 62.9021 176.882 61.7982C176.89 60.6702 176.681 59.7087 176.254 58.9138C175.828 58.1188 175.244 57.5028 174.503 57.0657C173.762 56.6286 172.923 56.4069 171.987 56.4004C171.051 56.394 170.21 56.6042 169.463 57.0311C168.716 57.458 168.112 58.0659 167.65 58.8547C167.213 59.6437 166.99 60.6022 166.983 61.7302C166.975 62.8342 167.184 63.7956 167.611 64.6146C168.061 65.4097 168.657 66.0258 169.398 66.4629C170.139 66.9 170.978 67.1218 171.914 67.1282ZM194.175 71.8891C191.895 71.8734 190.123 71.2853 188.859 70.1246C187.595 68.9399 186.971 67.1955 186.987 64.8916L187.104 47.9L192.72 47.9385L192.604 64.8581C192.598 65.6741 192.81 66.3116 193.238 66.7705C193.667 67.2055 194.254 67.4255 194.998 67.4306C195.886 67.4367 196.644 67.2019 197.271 66.7262L198.756 70.6965C198.177 71.1005 197.479 71.4077 196.661 71.6181C195.868 71.8047 195.039 71.895 194.175 71.8891ZM184.054 56.9153L184.084 52.5954L197.511 52.6875L197.482 57.0074L184.054 56.9153ZM201.902 71.6541L202.035 52.2866L207.398 52.3234L207.361 57.7952L206.616 56.2061C207.201 54.8421 208.132 53.8164 209.409 53.1292C210.686 52.4179 212.236 52.0686 214.06 52.0811L214.025 57.265C213.785 57.2393 213.569 57.2258 213.377 57.2245C213.185 57.1992 212.981 57.1858 212.765 57.1843C211.229 57.1738 209.978 57.6092 209.012 58.4906C208.07 59.3482 207.593 60.7009 207.58 62.5489L207.518 71.6927L201.902 71.6541ZM226.734 72.1125C224.526 72.0974 222.585 71.6521 220.911 70.7766C219.261 69.9012 217.985 68.7164 217.083 67.2222C216.182 65.704 215.737 63.9849 215.75 62.0649C215.764 60.121 216.22 58.4081 217.118 56.9262C218.04 55.4205 219.284 54.253 220.85 53.4237C222.416 52.5705 224.183 52.1506 226.151 52.1641C228.047 52.1771 229.748 52.5968 231.254 53.4231C232.785 54.2257 233.989 55.3859 234.866 56.904C235.744 58.3981 236.176 60.1891 236.162 62.277C236.16 62.493 236.146 62.7449 236.12 63.0328C236.095 63.2966 236.069 63.5484 236.043 63.7882L220.312 63.6803L220.334 60.4043L233.114 60.4921L230.947 61.4492C230.954 60.4412 230.756 59.5639 230.353 58.8171C229.95 58.0703 229.39 57.4904 228.673 57.0775C227.956 56.6406 227.118 56.4188 226.158 56.4122C225.198 56.4056 224.344 56.6158 223.597 57.0427C222.874 57.4457 222.306 58.0298 221.893 58.795C221.48 59.5362 221.27 60.4228 221.263 61.4547L221.257 62.3187C221.25 63.3747 221.471 64.3122 221.922 65.1314C222.396 65.9266 223.052 66.5431 223.889 66.9809C224.75 67.3948 225.757 67.6057 226.909 67.6136C227.941 67.6207 228.842 67.4709 229.612 67.1642C230.406 66.8576 231.129 66.3946 231.781 65.775L234.747 69.0355C233.852 70.0374 232.731 70.8097 231.383 71.3524C230.036 71.8712 228.486 72.1246 226.734 72.1125ZM255.285 72.0205L247.282 52.5971L253.078 52.6369L259.732 69.351L256.852 69.3312L263.986 52.7118L269.386 52.7488L261.081 72.0603L255.285 72.0205ZM271.545 72.1321L271.678 52.7646L277.293 52.8031L277.16 72.1706L271.545 72.1321ZM274.504 50.0839C273.472 50.0768 272.634 49.771 271.99 49.1666C271.346 48.5622 271.027 47.816 271.034 46.928C271.04 46.04 271.369 45.2983 272.021 44.7027C272.673 44.1072 273.515 43.813 274.547 43.82C275.579 43.8271 276.417 44.1209 277.061 44.7013C277.705 45.2577 278.024 45.98 278.018 46.8679C278.012 47.8039 277.682 48.5817 277.03 49.2012C276.402 49.7969 275.56 50.0911 274.504 50.0839ZM291.73 72.5587C289.642 72.5443 287.785 72.1116 286.159 71.2604C284.533 70.3852 283.257 69.1884 282.332 67.67C281.43 66.1518 280.986 64.4327 280.999 62.5128C281.012 60.5688 281.48 58.856 282.402 57.3743C283.349 55.8687 284.641 54.7016 286.278 53.8728C287.916 53.02 289.779 52.6008 291.867 52.6151C293.907 52.6291 295.68 53.0733 297.186 53.9477C298.692 54.798 299.8 56.0176 300.509 57.6066L296.137 59.9166C295.639 59.0012 295.008 58.3248 294.243 57.8876C293.502 57.4505 292.687 57.2289 291.8 57.2228C290.84 57.2162 289.974 57.4262 289.203 57.853C288.432 58.2797 287.816 58.8875 287.355 59.6763C286.917 60.4653 286.695 61.4238 286.687 62.5518C286.679 63.6798 286.888 64.6412 287.315 65.4362C287.766 66.2313 288.373 66.8475 289.138 67.2847C289.903 67.722 290.766 67.9439 291.726 67.9505C292.614 67.9566 293.431 67.7582 294.178 67.3553C294.949 66.9286 295.59 66.249 296.1 65.3165L300.44 67.7223C299.709 69.2773 298.585 70.4816 297.067 71.3352C295.549 72.1649 293.77 72.5727 291.73 72.5587ZM311.841 72.6967C309.561 72.681 307.789 72.0929 306.525 70.9322C305.261 69.7474 304.637 68.0031 304.652 65.6992L304.769 48.7076L310.385 48.7461L310.269 65.6657C310.263 66.4817 310.475 67.1192 310.904 67.5781C311.333 68.0131 311.919 68.2331 312.663 68.2382C313.551 68.2443 314.309 68.0095 314.936 67.5338L316.421 71.5041C315.842 71.9081 315.144 72.2153 314.326 72.4257C313.533 72.6123 312.705 72.7026 311.841 72.6967ZM301.719 57.7229L301.749 53.403L315.176 53.4951L315.147 57.815L301.719 57.7229ZM328.183 72.8088C326.119 72.7947 324.286 72.3501 322.684 71.4751C321.106 70.6002 319.854 69.4156 318.928 67.9212C318.027 66.403 317.583 64.6839 317.596 62.7639C317.609 60.82 318.077 59.1072 318.999 57.6255C319.945 56.1199 321.213 54.9526 322.803 54.1235C324.417 53.2705 326.256 52.8511 328.32 52.8653C330.36 52.8793 332.181 53.3238 333.783 54.1988C335.385 55.0499 336.637 56.2225 337.539 57.7167C338.441 59.2109 338.885 60.942 338.871 62.91C338.858 64.8299 338.39 66.5428 337.468 68.0485C336.546 69.5302 335.278 70.6975 333.664 71.5504C332.05 72.4034 330.223 72.8228 328.183 72.8088ZM328.215 68.201C329.151 68.2074 329.992 67.9971 330.739 67.5703C331.486 67.1434 332.078 66.5354 332.516 65.7464C332.953 64.9334 333.176 63.9749 333.183 62.8709C333.191 61.743 332.982 60.7815 332.555 59.9865C332.129 59.1916 331.545 58.5756 330.804 58.1385C330.063 57.7014 329.224 57.4796 328.288 57.4732C327.352 57.4668 326.511 57.677 325.764 58.1039C325.017 58.5308 324.413 59.1386 323.951 59.9275C323.514 60.7165 323.291 61.675 323.284 62.803C323.276 63.907 323.485 64.8684 323.912 65.6874C324.362 66.4825 324.958 67.0986 325.699 67.5357C326.44 67.9728 327.279 68.1945 328.215 68.201ZM342.559 72.6195L342.691 53.252L348.307 53.2905L348.174 72.658L342.559 72.6195ZM345.518 50.5713C344.486 50.5642 343.648 50.2585 343.004 49.654C342.36 49.0496 342.041 48.3034 342.048 47.4154C342.054 46.5274 342.383 45.7857 343.035 45.1901C343.687 44.5946 344.529 44.3004 345.561 44.3074C346.593 44.3145 347.431 44.6083 348.075 45.1887C348.719 45.7452 349.038 46.4674 349.032 47.3553C349.026 48.2913 348.696 49.0691 348.044 49.6886C347.416 50.2843 346.574 50.5785 345.518 50.5713ZM353.386 72.6938L353.519 53.3263L358.883 53.3631L358.846 58.835L358.101 57.2458C358.686 55.8818 359.617 54.8562 360.894 54.1689C362.171 53.4577 363.721 53.1083 365.545 53.1208L365.509 58.3047C365.27 58.279 365.054 58.2656 364.862 58.2642C364.67 58.2389 364.466 58.2255 364.25 58.224C362.714 58.2135 361.463 58.6489 360.497 59.5303C359.555 60.3879 359.078 61.7406 359.065 63.5886L359.002 72.7324L353.386 72.6938ZM378.219 73.1523C376.011 73.1371 374.07 72.6918 372.396 71.8163C370.746 70.9409 369.47 69.7561 368.568 68.2619C367.666 66.7437 367.222 65.0246 367.235 63.1046C367.249 61.1607 367.704 59.4478 368.603 57.9659C369.525 56.4602 370.769 55.2927 372.335 54.4634C373.901 53.6102 375.667 53.1903 377.635 53.2038C379.531 53.2168 381.233 53.6365 382.739 54.4628C384.269 55.2654 385.473 56.4257 386.351 57.9437C387.229 59.4378 387.661 61.2288 387.646 63.3167C387.645 63.5327 387.631 63.7846 387.605 64.0725C387.579 64.3363 387.553 64.5881 387.528 64.828L371.796 64.72L371.819 61.4441L384.598 61.5318L382.432 62.4889C382.439 61.481 382.241 60.6036 381.838 59.8568C381.435 59.11 380.875 58.5301 380.158 58.1172C379.441 57.6803 378.602 57.4585 377.642 57.4519C376.682 57.4453 375.829 57.6555 375.082 58.0824C374.359 58.4854 373.791 59.0695 373.378 59.8347C372.965 60.5759 372.755 61.4625 372.748 62.4945L372.742 63.3584C372.734 64.4144 372.956 65.352 373.406 66.1711C373.881 66.9663 374.537 67.5829 375.374 68.0206C376.235 68.4345 377.241 68.6454 378.393 68.6534C379.425 68.6604 380.326 68.5106 381.097 68.2039C381.891 67.8973 382.614 67.4343 383.266 66.8148L386.232 70.0752C385.337 71.0771 384.216 71.8494 382.868 72.3922C381.52 72.9109 379.97 73.1643 378.219 73.1523ZM390.309 78.4914L392.744 69.8679L393.514 73.1132C392.482 73.1062 391.632 72.8003 390.964 72.1957C390.32 71.5913 390.002 70.7611 390.009 69.7051C390.017 68.6491 390.358 67.8115 391.035 67.1921C391.711 66.5727 392.541 66.2664 393.525 66.2732C394.533 66.2801 395.359 66.6097 396.002 67.2622C396.646 67.8906 396.964 68.7208 396.957 69.7528C396.955 70.0648 396.929 70.3766 396.879 70.6883C396.829 70.9759 396.73 71.3353 396.583 71.7663C396.461 72.1734 396.253 72.7 395.961 73.346L393.873 78.5158L390.309 78.4914ZM410.936 73.0888L411.119 46.3774L416.735 46.416L416.552 73.1274L410.936 73.0888ZM433.643 73.2447L433.669 69.4648L433.315 68.6343L433.362 61.8665C433.37 60.6665 433.004 59.728 432.265 59.0509C431.549 58.3739 430.436 58.0303 428.924 58.0199C427.892 58.0128 426.871 58.1738 425.86 58.5029C424.874 58.8081 424.031 59.2344 423.332 59.7816L421.343 55.8438C422.404 55.1071 423.68 54.5398 425.17 54.1421C426.661 53.7443 428.174 53.5507 429.71 53.5612C432.662 53.5815 434.95 54.2932 436.572 55.6963C438.194 57.0995 438.995 59.2771 438.975 62.229L438.899 73.2807L433.643 73.2447ZM427.738 73.4921C426.226 73.4818 424.931 73.2209 423.855 72.7095C422.779 72.1741 421.955 71.4604 421.386 70.5685C420.816 69.6765 420.534 68.6786 420.542 67.5746C420.55 66.4226 420.833 65.4166 421.391 64.5564C421.973 63.6963 422.877 63.0305 424.105 62.5589C425.332 62.0634 426.93 61.8223 428.898 61.8358L434.045 61.8712L434.023 65.1471L429.487 65.1159C428.167 65.1069 427.254 65.3166 426.747 65.7452C426.264 66.1738 426.02 66.7122 426.016 67.3602C426.011 68.0802 426.283 68.658 426.832 69.0938C427.405 69.5058 428.184 69.7151 429.167 69.7219C430.103 69.7283 430.945 69.5181 431.692 69.0912C432.439 68.6403 432.984 67.984 433.325 67.1223L434.172 69.7202C433.755 70.9654 433.005 71.9082 431.92 72.5488C430.836 73.1894 429.442 73.5038 427.738 73.4921ZM465.623 73.7522C463.991 73.741 462.565 73.3712 461.346 72.6428C460.127 71.9144 459.175 70.8158 458.489 69.3471C457.827 67.8545 457.504 65.9803 457.519 63.7243C457.535 61.4444 457.872 59.5746 458.53 58.1151C459.188 56.6556 460.131 55.57 461.36 54.8585C462.589 54.1469 464.056 53.7969 465.76 53.8086C467.584 53.8211 469.213 54.2523 470.647 55.1022C472.105 55.9282 473.249 57.0881 474.079 58.5818C474.933 60.0757 475.353 61.8307 475.339 63.8466C475.325 65.8866 474.881 67.6476 474.007 69.1296C473.156 70.6118 471.997 71.7559 470.527 72.5618C469.081 73.3679 467.447 73.7647 465.623 73.7522ZM454.129 80.3694L454.31 54.0181L459.674 54.0549L459.647 58.0148L459.499 63.7739L459.82 69.5002L459.745 80.408L454.129 80.3694ZM464.682 69.1376C465.618 69.144 466.448 68.9337 467.171 68.5067C467.918 68.0798 468.51 67.4718 468.947 66.6828C469.409 65.87 469.644 64.9115 469.651 63.8076C469.659 62.6796 469.437 61.7181 468.987 60.9229C468.56 60.128 467.977 59.512 467.236 59.0749C466.519 58.638 465.692 58.4163 464.756 58.4099C463.82 58.4034 462.979 58.6137 462.232 59.0405C461.485 59.4674 460.893 60.0754 460.455 60.8644C460.018 61.6534 459.795 62.6119 459.787 63.7399C459.78 64.8438 459.989 65.8053 460.416 66.6243C460.842 67.4192 461.426 68.0352 462.167 68.4723C462.908 68.9094 463.746 69.1312 464.682 69.1376ZM490.595 73.6356L490.621 69.8556L490.267 69.0252L490.313 62.2573C490.321 61.0574 489.956 60.1188 489.217 59.4418C488.501 58.7648 487.388 58.4212 485.876 58.4108C484.844 58.4037 483.822 58.5647 482.812 58.8938C481.826 59.199 480.983 59.6253 480.283 60.1725L478.294 56.2347C479.355 55.498 480.631 54.9307 482.122 54.5329C483.613 54.1352 485.126 53.9416 486.662 53.9521C489.614 53.9724 491.901 54.6841 493.524 56.0872C495.146 57.4904 495.947 59.668 495.927 62.6199L495.851 73.6716L490.595 73.6356ZM484.689 73.883C483.177 73.8726 481.883 73.6118 480.807 73.1004C479.73 72.565 478.907 71.8513 478.337 70.9594C477.767 70.0674 477.486 69.0695 477.494 67.9655C477.502 66.8135 477.785 65.8074 478.343 64.9473C478.924 64.0872 479.829 63.4214 481.056 62.9498C482.284 62.4542 483.881 62.2132 485.849 62.2267L490.997 62.262L490.975 65.538L486.439 65.5068C485.119 65.4978 484.205 65.7075 483.698 66.136C483.216 66.5647 482.972 67.1031 482.967 67.7511C482.962 68.471 483.234 69.0489 483.784 69.4847C484.357 69.8966 485.135 70.106 486.119 70.1127C487.055 70.1192 487.897 69.9089 488.644 69.4821C489.391 69.0312 489.935 68.3749 490.277 67.5132L491.123 70.1111C490.707 71.3563 489.956 72.2991 488.872 72.9397C487.787 73.5803 486.393 73.8947 484.689 73.883ZM510.132 81.0418C508.308 81.0293 506.546 80.7892 504.845 80.3215C503.168 79.878 501.769 79.2084 500.647 78.3126L502.906 74.2961C503.718 74.9736 504.746 75.5087 505.991 75.9013C507.261 76.318 508.507 76.5306 509.731 76.539C511.723 76.5526 513.166 76.1185 514.06 75.2366C514.978 74.3549 515.443 73.0381 515.455 71.2861L515.475 68.3702L515.869 63.5128L515.83 58.6164L515.859 54.4405L521.187 54.4771L521.076 70.6047C521.051 74.2046 520.097 76.8501 518.214 78.5412C516.33 80.2323 513.636 81.0659 510.132 81.0418ZM509.325 72.8281C507.525 72.8157 505.895 72.4205 504.437 71.6425C503.002 70.8406 501.846 69.7407 500.967 68.3426C500.113 66.9207 499.692 65.2738 499.705 63.4018C499.718 61.5059 500.161 59.8649 501.035 58.4788C501.933 57.069 503.104 55.985 504.549 55.2269C506.018 54.469 507.653 54.0962 509.453 54.1085C511.085 54.1197 512.523 54.4656 513.766 55.1461C515.01 55.8027 515.974 56.8293 516.661 58.2261C517.348 59.5988 517.683 61.3652 517.669 63.5251C517.654 65.6611 517.294 67.4226 516.588 68.8098C515.883 70.173 514.904 71.1863 513.651 71.8498C512.399 72.5132 510.956 72.8393 509.325 72.8281ZM510.472 68.2278C511.456 68.2346 512.333 68.0486 513.104 67.6699C513.875 67.2672 514.479 66.7073 514.916 65.9903C515.353 65.2733 515.574 64.4468 515.581 63.5108C515.587 62.5508 515.377 61.7214 514.95 61.0224C514.523 60.2995 513.926 59.7434 513.161 59.3541C512.396 58.9408 511.521 58.7308 510.537 58.7241C509.553 58.7173 508.676 58.9153 507.905 59.318C507.135 59.6967 506.519 60.2445 506.058 60.9614C505.621 61.6544 505.399 62.4809 505.393 63.4409C505.386 64.3769 505.597 65.2063 506.024 65.9293C506.475 66.6524 507.083 67.2206 507.848 67.6338C508.613 68.0231 509.488 68.2211 510.472 68.2278ZM535.891 74.2344C533.683 74.2193 531.742 73.774 530.068 72.8984C528.418 72.0231 527.142 70.8383 526.24 69.3441C525.338 67.8259 524.894 66.1068 524.907 64.1868C524.921 62.2429 525.376 60.53 526.275 59.0481C527.197 57.5424 528.441 56.3749 530.007 55.5456C531.573 54.6923 533.339 54.2725 535.307 54.286C537.203 54.299 538.905 54.7187 540.411 55.545C541.941 56.3475 543.146 57.5078 544.023 59.0259C544.901 60.52 545.333 62.311 545.318 64.3989C545.317 64.6149 545.303 64.8668 545.277 65.1547C545.251 65.4185 545.226 65.6703 545.2 65.9101L529.468 65.8022L529.491 62.5262L542.27 62.614L540.104 63.5711C540.111 62.5631 539.913 61.6858 539.51 60.939C539.107 60.1922 538.547 59.6123 537.83 59.1994C537.113 58.7625 536.274 58.5407 535.314 58.5341C534.354 58.5275 533.501 58.7377 532.754 59.1646C532.031 59.5676 531.463 60.1517 531.05 60.9169C530.637 61.6581 530.427 62.5447 530.42 63.5766L530.414 64.4406C530.406 65.4966 530.628 66.4341 531.078 67.2533C531.553 68.0485 532.209 68.665 533.046 69.1028C533.907 69.5167 534.913 69.7276 536.065 69.7355C537.097 69.7426 537.998 69.5928 538.769 69.2861C539.563 68.9795 540.286 68.5165 540.938 67.8969L543.904 71.1574C543.009 72.1593 541.888 72.9316 540.54 73.4743C539.192 73.9931 537.642 74.2465 535.891 74.2344ZM567.428 74.4509C565.604 74.4384 563.963 74.0191 562.505 73.1931C561.046 72.3671 559.89 71.2071 559.036 69.7132C558.207 68.2195 557.799 66.4526 557.813 64.4127C557.827 62.3967 558.259 60.6476 559.109 59.1654C559.983 57.6834 561.155 56.5394 562.624 55.7335C564.094 54.9036 565.741 54.4949 567.565 54.5074C569.269 54.5191 570.718 54.889 571.913 55.6172C573.132 56.3456 574.061 57.444 574.699 58.9124C575.337 60.3808 575.648 62.255 575.632 64.535C575.617 66.7909 575.268 68.6606 574.586 70.1439C573.904 71.6033 572.948 72.6887 571.719 73.4003C570.49 74.1119 569.06 74.4621 567.428 74.4509ZM568.432 69.8497C569.344 69.8559 570.173 69.6456 570.92 69.2187C571.667 68.7919 572.259 68.1839 572.697 67.3949C573.158 66.582 573.393 65.6236 573.4 64.5197C573.408 63.3917 573.187 62.4301 572.736 61.635C572.31 60.8401 571.726 60.2241 570.985 59.787C570.244 59.3499 569.417 59.1282 568.505 59.1219C567.569 59.1155 566.728 59.3257 565.981 59.7526C565.234 60.1795 564.63 60.7874 564.168 61.5762C563.731 62.3652 563.508 63.3237 563.501 64.4517C563.493 65.5557 563.702 66.5171 564.129 67.3361C564.579 68.1312 565.175 68.7473 565.916 69.1844C566.657 69.6215 567.496 69.8433 568.432 69.8497ZM573.178 81.1865L573.253 70.2788L573.652 64.5574L573.584 58.7968L573.611 54.8369L578.975 54.8737L578.794 81.2251L573.178 81.1865ZM592.211 74.621C590.603 74.61 589.165 74.2881 587.897 73.6554C586.654 73.0228 585.688 72.0682 585.001 70.7914C584.314 69.4907 583.977 67.8443 583.991 65.8524L584.066 54.9086L589.682 54.9472L589.612 65.0629C589.601 66.6709 589.929 67.8612 590.596 68.6338C591.287 69.3825 592.256 69.7612 593.504 69.7698C594.368 69.7757 595.137 69.601 595.812 69.2456C596.487 68.8662 597.018 68.2938 597.408 67.5285C597.797 66.7392 597.996 65.7565 598.004 64.5805L598.07 55.0047L603.686 55.0433L603.553 74.4108L598.225 74.3743L598.261 69.0464L599.223 70.601C598.565 71.9405 597.599 72.9539 596.322 73.6412C595.069 74.3046 593.699 74.6312 592.211 74.621ZM618.365 74.8005C616.157 74.7854 614.216 74.34 612.542 73.4645C610.892 72.5892 609.616 71.4044 608.714 69.9102C607.813 68.3919 607.369 66.6728 607.382 64.7529C607.395 62.8089 607.851 61.096 608.749 59.6142C609.672 58.1084 610.916 56.941 612.481 56.1117C614.047 55.2584 615.814 54.8385 617.782 54.852C619.678 54.865 621.379 55.2847 622.886 56.1111C624.416 56.9136 625.62 58.0739 626.498 59.592C627.376 61.086 627.807 62.877 627.793 64.965C627.791 65.181 627.778 65.4329 627.752 65.7207C627.726 65.9845 627.7 66.2364 627.675 66.4762L611.943 66.3682L611.965 63.0923L624.745 63.18L622.578 64.1372C622.585 63.1292 622.387 62.2518 621.984 61.505C621.582 60.7583 621.022 60.1784 620.304 59.7655C619.587 59.3285 618.749 59.1068 617.789 59.1002C616.829 59.0936 615.975 59.3037 615.229 59.7306C614.506 60.1337 613.938 60.7178 613.524 61.483C613.111 62.2242 612.901 63.1107 612.894 64.1427L612.888 65.0067C612.881 66.0627 613.103 67.0002 613.553 67.8193C614.028 68.6146 614.683 69.2311 615.52 69.6689C616.381 70.0828 617.388 70.2937 618.54 70.3016C619.572 70.3087 620.473 70.1589 621.243 69.8521C622.037 69.5456 622.761 69.0825 623.413 68.463L626.378 71.7234C625.484 72.7253 624.362 73.4976 623.014 74.0404C621.667 74.5592 620.117 74.8125 618.365 74.8005ZM646.917 74.7085L638.914 55.2851L644.71 55.3249L651.363 72.0389L648.483 72.0192L655.617 55.3997L661.017 55.4368L652.713 74.7482L646.917 74.7085ZM671.862 75.1677C669.798 75.1535 667.965 74.7089 666.363 73.8339C664.785 72.9591 663.534 71.7744 662.608 70.2801C661.706 68.7618 661.262 67.0427 661.275 65.1228C661.288 63.1788 661.756 61.466 662.678 59.9843C663.625 58.4788 664.893 57.3114 666.483 56.4823C668.096 55.6294 669.935 55.21 671.999 55.2242C674.039 55.2382 675.86 55.6827 677.462 56.5577C679.064 57.4087 680.316 58.5813 681.218 60.0755C682.12 61.5698 682.564 63.3009 682.551 65.2688C682.537 67.1888 682.07 68.9016 681.147 70.4073C680.225 71.889 678.957 73.0563 677.343 73.9093C675.729 74.7622 673.902 75.1817 671.862 75.1677ZM671.894 70.5598C672.83 70.5662 673.671 70.356 674.418 69.9291C675.165 69.5022 675.758 68.8943 676.195 68.1053C676.633 67.2922 676.855 66.3337 676.863 65.2298C676.87 64.1018 676.661 63.1403 676.235 62.3454C675.808 61.5504 675.224 60.9344 674.483 60.4973C673.742 60.0602 672.904 59.8385 671.968 59.832C671.032 59.8256 670.19 60.0359 669.443 60.4627C668.696 60.8896 668.092 61.4975 667.631 62.2863C667.193 63.0754 666.971 64.0338 666.963 65.1618C666.955 66.2658 667.165 67.2273 667.591 68.0462C668.042 68.8413 668.638 69.4574 669.379 69.8945C670.12 70.3316 670.958 70.5534 671.894 70.5598ZM694.408 75.3224C692.8 75.3114 691.362 74.9895 690.094 74.3568C688.851 73.7242 687.885 72.7696 687.198 71.4929C686.511 70.1921 686.174 68.5458 686.188 66.5538L686.263 55.6101L691.879 55.6486L691.809 65.7644C691.798 67.3723 692.126 68.5626 692.793 69.3352C693.484 70.084 694.453 70.4626 695.701 70.4712C696.565 70.4771 697.334 70.3024 698.009 69.947C698.683 69.5676 699.215 68.9953 699.605 68.2299C699.994 67.4406 700.193 66.4579 700.201 65.2819L700.267 55.7062L705.882 55.7447L705.749 75.1123L700.422 75.0757L700.458 69.7478L701.42 71.3025C700.762 72.642 699.795 73.6554 698.519 74.3426C697.266 75.006 695.896 75.3326 694.408 75.3224ZM717.466 75.4807C715.81 75.4693 714.215 75.2664 712.682 74.8718C711.173 74.4535 709.976 73.9412 709.093 73.3352L710.992 69.3161C711.876 69.8742 712.917 70.3373 714.115 70.7056C715.336 71.05 716.535 71.2262 717.711 71.2343C719.007 71.2432 719.92 71.0934 720.45 70.7851C721.004 70.4769 721.283 70.0468 721.287 69.4948C721.29 69.0388 721.077 68.7013 720.646 68.4823C720.24 68.2396 719.689 68.0558 718.994 67.931C718.299 67.8062 717.532 67.681 716.692 67.5552C715.877 67.4296 715.05 67.2679 714.212 67.0702C713.373 66.8484 712.607 66.5311 711.914 66.1184C711.221 65.7056 710.661 65.1497 710.234 64.4508C709.83 63.752 709.633 62.8506 709.64 61.7466C709.649 60.5227 710.004 59.4451 710.706 58.5139C711.433 57.5829 712.47 56.858 713.817 56.3392C715.165 55.7964 716.775 55.5315 718.647 55.5443C719.967 55.5534 721.31 55.7066 722.676 56.004C724.042 56.3014 725.179 56.7292 726.087 57.2874L724.188 61.2705C723.256 60.7121 722.31 60.3336 721.351 60.135C720.417 59.9126 719.506 59.7983 718.618 59.7922C717.37 59.7837 716.457 59.9454 715.878 60.2774C715.3 60.6095 715.009 61.0395 715.005 61.5675C715.002 62.0475 715.204 62.4088 715.61 62.6516C716.04 62.8946 716.603 63.0905 717.298 63.2392C717.993 63.388 718.748 63.5252 719.563 63.6508C720.403 63.7526 721.242 63.9143 722.08 64.1361C722.919 64.3578 723.672 64.675 724.342 65.0876C725.035 65.4764 725.595 66.0203 726.022 66.7192C726.45 67.3942 726.66 68.2836 726.652 69.3876C726.644 70.5876 726.277 71.6531 725.55 72.5841C724.824 73.4911 723.775 74.204 722.403 74.7226C721.056 75.2413 719.41 75.494 717.466 75.4807ZM93.9362 114.914L94.0692 95.5466L99.433 95.5834L99.3955 101.055L98.6504 99.4661C99.2357 98.1021 100.167 97.0765 101.444 96.3892C102.72 95.678 104.271 95.3286 106.095 95.3411L106.059 100.525C105.819 100.499 105.604 100.486 105.412 100.485C105.22 100.459 105.016 100.446 104.8 100.444C103.264 100.434 102.013 100.869 101.047 101.751C100.105 102.608 99.6275 103.961 99.6149 105.809L99.5521 114.953L93.9362 114.914ZM118.768 115.373C116.56 115.357 114.619 114.912 112.945 114.037C111.295 113.161 110.019 111.976 109.118 110.482C108.216 108.964 107.772 107.245 107.785 105.325C107.798 103.381 108.254 101.668 109.152 100.186C110.075 98.6805 111.319 97.513 112.884 96.6837C114.45 95.8305 116.217 95.4106 118.185 95.4241C120.081 95.4371 121.782 95.8568 123.289 96.6831C124.819 97.4857 126.023 98.646 126.901 100.164C127.779 101.658 128.21 103.449 128.196 105.537C128.195 105.753 128.181 106.005 128.155 106.293C128.129 106.557 128.103 106.808 128.078 107.048L112.346 106.94L112.369 103.664L125.148 103.752L122.982 104.709C122.989 103.701 122.791 102.824 122.388 102.077C121.985 101.33 121.425 100.75 120.708 100.338C119.991 99.9006 119.152 99.6788 118.192 99.6722C117.232 99.6656 116.379 99.8758 115.632 100.303C114.909 100.706 114.341 101.29 113.928 102.055C113.515 102.796 113.304 103.683 113.297 104.715L113.291 105.579C113.284 106.635 113.506 107.572 113.956 108.391C114.431 109.187 115.086 109.803 115.923 110.241C116.785 110.655 117.791 110.866 118.943 110.874C119.975 110.881 120.876 110.731 121.646 110.424C122.44 110.118 123.164 109.655 123.816 109.035L126.782 112.295C125.887 113.297 124.765 114.07 123.418 114.612C122.07 115.131 120.52 115.385 118.768 115.373ZM141.227 115.527C139.139 115.512 137.282 115.08 135.656 114.228C134.029 113.353 132.754 112.156 131.828 110.638C130.926 109.12 130.482 107.401 130.495 105.481C130.509 103.537 130.977 101.824 131.899 100.342C132.845 98.8368 134.137 97.6696 135.775 96.8408C137.413 95.9881 139.276 95.5688 141.364 95.5832C143.404 95.5972 145.177 96.0414 146.683 96.9157C148.189 97.7661 149.296 98.9857 150.006 100.575L145.634 102.885C145.136 101.969 144.504 101.293 143.739 100.856C142.998 100.419 142.184 100.197 141.296 100.191C140.336 100.184 139.471 100.394 138.7 100.821C137.929 101.248 137.312 101.856 136.851 102.644C136.414 103.433 136.191 104.392 136.183 105.52C136.176 106.648 136.385 107.609 136.812 108.404C137.262 109.199 137.87 109.816 138.635 110.253C139.4 110.69 140.262 110.912 141.222 110.919C142.11 110.925 142.928 110.726 143.674 110.323C144.445 109.897 145.086 109.217 145.597 108.285L149.936 110.69C149.205 112.245 148.081 113.45 146.563 114.303C145.046 115.133 143.267 115.541 141.227 115.527ZM164.939 95.745C166.475 95.7555 167.841 96.0769 169.037 96.7091C170.256 97.3175 171.21 98.2601 171.897 99.5368C172.585 100.79 172.922 102.4 172.908 104.368L172.832 115.456L167.216 115.417L167.286 105.193C167.297 103.633 166.957 102.479 166.266 101.73C165.599 100.982 164.642 100.603 163.394 100.594C162.506 100.588 161.701 100.775 160.978 101.154C160.279 101.509 159.724 102.069 159.31 102.835C158.921 103.6 158.722 104.583 158.714 105.782L158.648 115.358L153.032 115.32L153.216 88.6084L158.832 88.6469L158.744 101.355L157.496 99.726C158.2 98.4348 159.203 97.4457 160.504 96.7586C161.805 96.0715 163.283 95.7336 164.939 95.745ZM187.673 115.845C185.465 115.83 183.524 115.385 181.85 114.509C180.2 113.634 178.924 112.449 178.022 110.955C177.121 109.437 176.676 107.718 176.69 105.798C176.703 103.854 177.159 102.141 178.057 100.659C178.979 99.1534 180.223 97.9859 181.789 97.1567C183.355 96.3034 185.122 95.8835 187.09 95.897C188.986 95.91 190.687 96.3297 192.193 97.1561C193.724 97.9586 194.928 99.1189 195.806 100.637C196.683 102.131 197.115 103.922 197.101 106.01C197.099 106.226 197.085 106.478 197.059 106.766C197.034 107.03 197.008 107.281 196.982 107.521L181.251 107.413L181.273 104.137L194.053 104.225L191.886 105.182C191.893 104.174 191.695 103.297 191.292 102.55C190.889 101.803 190.329 101.223 189.612 100.81C188.895 100.374 188.057 100.152 187.097 100.145C186.137 100.139 185.283 100.349 184.536 100.776C183.814 101.179 183.245 101.763 182.832 102.528C182.419 103.269 182.209 104.156 182.202 105.188L182.196 106.052C182.189 107.108 182.41 108.045 182.861 108.864C183.335 109.66 183.991 110.276 184.828 110.714C185.689 111.128 186.696 111.339 187.848 111.347C188.88 111.354 189.781 111.204 190.551 110.897C191.345 110.591 192.068 110.128 192.721 109.508L195.686 112.768C194.791 113.77 193.67 114.543 192.322 115.085C190.975 115.604 189.425 115.858 187.673 115.845ZM200.774 115.647L200.906 96.2799L206.27 96.3167L206.233 101.789L205.488 100.199C206.073 98.8354 207.004 97.8097 208.281 97.1225C209.558 96.4112 211.108 96.0619 212.932 96.0744L212.897 101.258C212.657 101.233 212.441 101.219 212.249 101.218C212.057 101.193 211.853 101.179 211.637 101.178C210.101 101.167 208.85 101.603 207.884 102.484C206.942 103.341 206.465 104.694 206.452 106.542L206.389 115.686L200.774 115.647ZM225.354 116.104C223.266 116.09 221.409 115.657 219.782 114.806C218.156 113.931 216.881 112.734 215.955 111.215C215.053 109.697 214.609 107.978 214.622 106.058C214.636 104.114 215.103 102.401 216.026 100.92C216.972 99.4142 218.264 98.247 219.902 97.4183C221.54 96.5655 223.403 96.1463 225.491 96.1606C227.53 96.1746 229.303 96.6188 230.81 97.4931C232.316 98.3435 233.423 99.5631 234.132 101.152L229.761 103.462C229.263 102.547 228.631 101.87 227.866 101.433C227.125 100.996 226.311 100.774 225.423 100.768C224.463 100.762 223.597 100.972 222.827 101.398C222.056 101.825 221.439 102.433 220.978 103.222C220.541 104.011 220.318 104.969 220.31 106.097C220.302 107.225 220.512 108.187 220.938 108.982C221.389 109.777 221.997 110.393 222.762 110.83C223.527 111.267 224.389 111.489 225.349 111.496C226.237 111.502 227.055 111.304 227.801 110.901C228.572 110.474 229.213 109.794 229.723 108.862L234.063 111.268C233.332 112.823 232.208 114.027 230.69 114.881C229.172 115.71 227.394 116.118 225.354 116.104ZM249.066 96.3224C250.602 96.3329 251.968 96.6543 253.164 97.2865C254.383 97.8949 255.337 98.8375 256.024 100.114C256.712 101.367 257.049 102.977 257.035 104.945L256.959 116.033L251.343 115.994L251.413 105.771C251.424 104.211 251.084 103.056 250.393 102.308C249.726 101.559 248.769 101.18 247.521 101.172C246.633 101.166 245.827 101.352 245.105 101.731C244.406 102.087 243.851 102.647 243.437 103.412C243.048 104.177 242.849 105.16 242.841 106.36L242.775 115.936L237.159 115.897L237.343 89.1858L242.959 89.2243L242.871 101.932L241.623 100.303C242.327 99.0122 243.33 98.0231 244.631 97.336C245.932 96.6489 247.41 96.311 249.066 96.3224ZM271.8 116.423C269.592 116.408 267.651 115.962 265.977 115.087C264.327 114.212 263.051 113.027 262.149 111.533C261.248 110.014 260.803 108.295 260.817 106.375C260.83 104.431 261.286 102.718 262.184 101.237C263.106 99.7308 264.35 98.5633 265.916 97.7341C267.482 96.8808 269.249 96.4609 271.217 96.4744C273.113 96.4874 274.814 96.9071 276.32 97.7335C277.851 98.536 279.055 99.6963 279.932 101.214C280.81 102.708 281.242 104.499 281.228 106.587C281.226 106.803 281.212 107.055 281.186 107.343C281.161 107.607 281.135 107.859 281.109 108.099L265.378 107.991L265.4 104.715L278.18 104.802L276.013 105.76C276.02 104.752 275.822 103.874 275.419 103.127C275.016 102.381 274.456 101.801 273.739 101.388C273.022 100.951 272.184 100.729 271.224 100.723C270.264 100.716 269.41 100.926 268.663 101.353C267.94 101.756 267.372 102.34 266.959 103.105C266.546 103.847 266.336 104.733 266.329 105.765L266.323 106.629C266.316 107.685 266.537 108.623 266.988 109.442C267.462 110.237 268.118 110.853 268.955 111.291C269.816 111.705 270.823 111.916 271.975 111.924C273.007 111.931 273.908 111.781 274.678 111.475C275.472 111.168 276.195 110.705 276.847 110.085L279.813 113.346C278.918 114.348 277.797 115.12 276.449 115.663C275.102 116.182 273.552 116.435 271.8 116.423ZM283.393 116.214L283.416 112.831L294.957 99.3734L295.916 101.252L283.748 101.169L283.778 96.8486L300.481 96.9633L300.458 100.347L288.917 113.804L287.922 111.925L300.702 112.013L300.672 116.333L283.393 116.214ZM326.373 96.853C327.909 96.8635 329.275 97.1849 330.47 97.8171C331.69 98.4255 332.644 99.3681 333.331 100.645C334.018 101.898 334.355 103.508 334.342 105.476L334.266 116.564L328.65 116.525L328.72 106.301C328.731 104.741 328.391 103.587 327.7 102.838C327.033 102.09 326.075 101.711 324.827 101.702C323.94 101.696 323.134 101.883 322.412 102.262C321.713 102.617 321.157 103.177 320.744 103.943C320.355 104.708 320.156 105.691 320.148 106.89L320.082 116.466L314.466 116.428L314.599 97.0602L319.963 97.097L319.926 102.461L318.929 100.834C319.634 99.5428 320.637 98.5537 321.938 97.8666C323.239 97.1795 324.717 96.8416 326.373 96.853ZM338.38 101.832L340.815 93.208L341.585 96.4894C340.553 96.4823 339.703 96.1765 339.035 95.5719C338.391 94.9434 338.073 94.1012 338.08 93.0452C338.087 92.0133 338.429 91.1876 339.105 90.5682C339.782 89.9249 340.612 89.6065 341.596 89.6133C342.604 89.6202 343.43 89.9499 344.073 90.6023C344.717 91.2308 345.035 92.061 345.028 93.0929C345.026 93.4049 345 93.7168 344.95 94.0284C344.924 94.3162 344.837 94.6637 344.691 95.0707C344.568 95.4778 344.36 96.0164 344.068 96.6864L341.944 101.856L338.38 101.832ZM357.438 117.011C355.231 116.996 353.29 116.55 351.616 115.675C349.965 114.799 348.69 113.615 347.788 112.12C346.886 110.602 346.442 108.883 346.455 106.963C346.469 105.019 346.924 103.306 347.822 101.824C348.745 100.319 349.989 99.1511 351.555 98.3219C353.121 97.4686 354.887 97.0487 356.855 97.0622C358.751 97.0752 360.452 97.4949 361.959 98.3213C363.489 99.1238 364.693 100.284 365.571 101.802C366.449 103.296 366.881 105.087 366.866 107.175C366.865 107.391 366.851 107.643 366.825 107.931C366.799 108.195 366.773 108.447 366.748 108.686L351.016 108.578L351.039 105.302L363.818 105.39L361.652 106.347C361.659 105.339 361.461 104.462 361.058 103.715C360.655 102.968 360.095 102.389 359.378 101.976C358.661 101.539 357.822 101.317 356.862 101.31C355.902 101.304 355.049 101.514 354.302 101.941C353.579 102.344 353.011 102.928 352.598 103.693C352.185 104.434 351.975 105.321 351.967 106.353L351.962 107.217C351.954 108.273 352.176 109.21 352.626 110.029C353.101 110.825 353.757 111.441 354.594 111.879C355.455 112.293 356.461 112.504 357.613 112.512C358.645 112.519 359.546 112.369 360.317 112.062C361.111 111.756 361.834 111.293 362.486 110.673L365.452 113.934C364.557 114.935 363.436 115.708 362.088 116.251C360.74 116.769 359.19 117.023 357.438 117.011ZM377.053 117.145C375.397 117.134 373.802 116.931 372.269 116.536C370.76 116.118 369.563 115.606 368.679 115L370.579 110.981C371.463 111.539 372.504 112.002 373.702 112.37C374.923 112.715 376.122 112.891 377.298 112.899C378.594 112.908 379.507 112.758 380.037 112.45C380.591 112.141 380.87 111.711 380.874 111.159C380.877 110.703 380.664 110.366 380.233 110.147C379.827 109.904 379.276 109.72 378.581 109.596C377.886 109.471 377.118 109.346 376.279 109.22C375.464 109.094 374.637 108.933 373.799 108.735C372.96 108.513 372.194 108.196 371.501 107.783C370.808 107.37 370.248 106.814 369.82 106.115C369.417 105.417 369.219 104.515 369.227 103.411C369.235 102.187 369.591 101.11 370.293 100.179C371.02 99.2475 372.057 98.5226 373.404 98.0038C374.752 97.461 376.362 97.1961 378.234 97.2089C379.554 97.218 380.897 97.3712 382.263 97.6686C383.629 97.966 384.766 98.3938 385.674 98.952L383.775 102.935C382.842 102.377 381.897 101.998 380.938 101.8C380.004 101.577 379.093 101.463 378.205 101.457C376.957 101.448 376.044 101.61 375.465 101.942C374.887 102.274 374.596 102.704 374.592 103.232C374.589 103.712 374.791 104.073 375.197 104.316C375.627 104.559 376.19 104.755 376.885 104.904C377.58 105.053 378.335 105.19 379.15 105.315C379.99 105.417 380.828 105.579 381.667 105.801C382.505 106.022 383.259 106.34 383.928 106.752C384.622 107.141 385.182 107.685 385.609 108.384C386.037 109.059 386.247 109.948 386.239 111.052C386.231 112.252 385.863 113.318 385.137 114.249C384.411 115.156 383.362 115.869 381.99 116.387C380.643 116.906 378.997 117.159 377.053 117.145ZM397.581 117.286C395.302 117.271 393.53 116.682 392.265 115.522C391.002 114.337 390.378 112.593 390.393 110.289L390.51 93.2971L396.126 93.3356L396.01 110.255C396.004 111.071 396.216 111.709 396.645 112.168C397.074 112.603 397.66 112.823 398.404 112.828C399.292 112.834 400.05 112.599 400.677 112.123L402.162 116.094C401.583 116.498 400.885 116.805 400.067 117.015C399.274 117.202 398.445 117.292 397.581 117.286ZM387.46 102.312L387.49 97.9925L400.917 98.0846L400.888 102.405L387.46 102.312ZM426.949 117.488C425.317 117.477 423.891 117.107 422.672 116.378C421.453 115.65 420.501 114.551 419.815 113.083C419.153 111.59 418.83 109.716 418.845 107.46C418.861 105.18 419.198 103.31 419.856 101.851C420.514 100.391 421.457 99.3056 422.686 98.5941C423.915 97.8825 425.382 97.5325 427.086 97.5442C428.909 97.5567 430.539 97.9879 431.973 98.8378C433.431 99.6638 434.575 100.824 435.405 102.317C436.259 103.811 436.679 105.566 436.665 107.582C436.651 109.622 436.207 111.383 435.333 112.865C434.482 114.347 433.322 115.491 431.853 116.297C430.407 117.103 428.773 117.5 426.949 117.488ZM415.455 124.105L415.636 97.7536L421 97.7905L420.972 101.75L420.825 107.509L421.146 113.236L421.071 124.144L415.455 124.105ZM426.008 112.873C426.944 112.88 427.774 112.669 428.497 112.242C429.244 111.815 429.836 111.207 430.273 110.418C430.735 109.606 430.969 108.647 430.977 107.543C430.985 106.415 430.763 105.454 430.313 104.659C429.886 103.864 429.302 103.248 428.561 102.81C427.844 102.374 427.018 102.152 426.082 102.145C425.146 102.139 424.304 102.349 423.558 102.776C422.811 103.203 422.218 103.811 421.781 104.6C421.344 105.389 421.121 106.347 421.113 107.475C421.106 108.579 421.315 109.541 421.741 110.36C422.168 111.155 422.752 111.771 423.493 112.208C424.234 112.645 425.072 112.867 426.008 112.873ZM451.921 117.371L451.947 113.591L451.593 112.761L451.639 105.993C451.647 104.793 451.282 103.854 450.542 103.177C449.827 102.5 448.713 102.157 447.201 102.146C446.169 102.139 445.148 102.3 444.138 102.629C443.152 102.935 442.309 103.361 441.609 103.908L439.62 99.9703C440.681 99.2336 441.957 98.6663 443.448 98.2685C444.939 97.8708 446.452 97.6771 447.988 97.6877C450.94 97.708 453.227 98.4197 454.85 99.8228C456.472 101.226 457.273 103.404 457.253 106.355L457.177 117.407L451.921 117.371ZM446.015 117.619C444.503 117.608 443.209 117.347 442.133 116.836C441.056 116.301 440.233 115.587 439.663 114.695C439.093 113.803 438.812 112.805 438.82 111.701C438.828 110.549 439.111 109.543 439.668 108.683C440.25 107.823 441.155 107.157 442.382 106.685C443.61 106.19 445.207 105.949 447.175 105.962L452.323 105.998L452.301 109.274L447.765 109.242C446.445 109.233 445.531 109.443 445.024 109.872C444.541 110.3 444.298 110.839 444.293 111.487C444.288 112.207 444.56 112.785 445.109 113.22C445.683 113.632 446.461 113.842 447.445 113.848C448.381 113.855 449.223 113.645 449.97 113.218C450.717 112.767 451.261 112.11 451.603 111.249L452.449 113.847C452.033 115.092 451.282 116.035 450.198 116.675C449.113 117.316 447.719 117.63 446.015 117.619ZM468.773 117.775C467.117 117.763 465.523 117.561 463.99 117.166C462.48 116.748 461.284 116.235 460.4 115.629L462.3 111.61C463.184 112.168 464.225 112.631 465.422 113C466.644 113.344 467.843 113.52 469.019 113.528C470.315 113.537 471.228 113.388 471.758 113.079C472.312 112.771 472.591 112.341 472.595 111.789C472.598 111.333 472.384 110.995 471.954 110.776C471.547 110.534 470.996 110.35 470.301 110.225C469.606 110.1 468.839 109.975 468 109.849C467.185 109.724 466.358 109.562 465.519 109.364C464.681 109.143 463.915 108.825 463.222 108.412C462.528 108 461.968 107.444 461.541 106.745C461.138 106.046 460.94 105.145 460.948 104.041C460.956 102.817 461.311 101.739 462.014 100.808C462.74 99.877 463.777 99.1521 465.125 98.6333C466.472 98.0906 468.082 97.8256 469.954 97.8385C471.274 97.8475 472.617 98.0007 473.983 98.2981C475.349 98.5955 476.486 99.0233 477.395 99.5816L475.495 103.565C474.563 103.006 473.618 102.628 472.659 102.429C471.724 102.207 470.813 102.092 469.925 102.086C468.677 102.078 467.764 102.24 467.186 102.572C466.607 102.904 466.317 103.334 466.313 103.862C466.31 104.342 466.511 104.703 466.917 104.946C467.348 105.189 467.91 105.385 468.605 105.533C469.3 105.682 470.056 105.819 470.871 105.945C471.71 106.047 472.549 106.208 473.387 106.43C474.226 106.652 474.98 106.969 475.649 107.382C476.342 107.771 476.903 108.314 477.33 109.013C477.757 109.688 477.967 110.578 477.959 111.682C477.951 112.882 477.584 113.947 476.858 114.878C476.131 115.785 475.082 116.498 473.711 117.017C472.363 117.535 470.717 117.788 468.773 117.775ZM496.835 117.679L488.832 98.256L494.628 98.2958L501.281 115.01L498.402 114.99L505.536 98.3707L510.936 98.4077L502.631 117.719L496.835 117.679ZM524.341 117.868L524.367 114.088L524.013 113.258L524.059 106.49C524.068 105.29 523.702 104.351 522.963 103.674C522.247 102.997 521.134 102.654 519.622 102.643C518.59 102.636 517.568 102.797 516.558 103.126C515.572 103.432 514.729 103.858 514.029 104.405L512.04 100.467C513.101 99.7306 514.377 99.1634 515.868 98.7656C517.359 98.3678 518.872 98.1742 520.408 98.1847C523.36 98.205 525.647 98.9167 527.27 100.32C528.892 101.723 529.693 103.901 529.673 106.853L529.597 117.904L524.341 117.868ZM518.435 118.116C516.923 118.105 515.629 117.844 514.553 117.333C513.476 116.798 512.653 116.084 512.083 115.192C511.513 114.3 511.232 113.302 511.24 112.198C511.248 111.046 511.531 110.04 512.089 109.18C512.67 108.32 513.575 107.654 514.802 107.182C516.03 106.687 517.627 106.446 519.595 106.459L524.743 106.495L524.721 109.771L520.185 109.739C518.865 109.73 517.951 109.94 517.445 110.369C516.962 110.797 516.718 111.336 516.713 111.984C516.708 112.704 516.981 113.282 517.53 113.717C518.103 114.129 518.881 114.339 519.865 114.345C520.801 114.352 521.643 114.142 522.39 113.715C523.137 113.264 523.681 112.608 524.023 111.746L524.869 114.344C524.453 115.589 523.702 116.532 522.618 117.172C521.534 117.813 520.139 118.127 518.435 118.116ZM534.68 117.939L534.863 91.2278L540.479 91.2663L540.296 117.978L534.68 117.939ZM545.508 118.013L545.641 98.6459L551.256 98.6845L551.123 118.052L545.508 118.013ZM548.467 95.9653C547.435 95.9582 546.597 95.6524 545.953 95.048C545.309 94.4436 544.99 93.6974 544.997 92.8094C545.003 91.9214 545.332 91.1796 545.984 90.5841C546.636 89.9886 547.478 89.6943 548.51 89.7014C549.542 89.7085 550.38 90.0023 551.024 90.5827C551.668 91.1391 551.987 91.8613 551.981 92.7493C551.975 93.6853 551.645 94.463 550.993 95.0826C550.365 95.6783 549.523 95.9725 548.467 95.9653ZM564.649 118.433C562.825 118.42 561.184 118.001 559.726 117.175C558.268 116.325 557.112 115.153 556.258 113.659C555.428 112.165 555.02 110.411 555.034 108.395C555.048 106.355 555.48 104.594 556.33 103.111C557.204 101.629 558.376 100.485 559.846 99.6795C561.315 98.8735 562.962 98.4768 564.786 98.4893C566.418 98.5005 567.844 98.8703 569.063 99.5987C570.282 100.327 571.222 101.426 571.884 102.894C572.546 104.363 572.869 106.237 572.854 108.517C572.838 110.773 572.501 112.643 571.843 114.126C571.185 115.586 570.242 116.671 569.013 117.383C567.808 118.095 566.353 118.445 564.649 118.433ZM565.653 113.832C566.565 113.838 567.394 113.628 568.141 113.201C568.888 112.774 569.48 112.166 569.918 111.377C570.379 110.564 570.614 109.606 570.622 108.502C570.629 107.374 570.408 106.412 569.957 105.617C569.531 104.822 568.947 104.206 568.206 103.769C567.465 103.332 566.639 103.11 565.727 103.104C564.791 103.097 563.949 103.308 563.202 103.735C562.455 104.161 561.851 104.769 561.39 105.558C560.952 106.347 560.73 107.306 560.722 108.434C560.714 109.538 560.924 110.499 561.35 111.318C561.801 112.113 562.396 112.729 563.137 113.166C563.878 113.603 564.717 113.825 565.653 113.832ZM570.699 118.186L570.726 114.226L570.874 108.467L570.553 102.741L570.63 91.4733L576.246 91.5118L576.063 118.223L570.699 118.186ZM590.87 118.613C588.663 118.598 586.722 118.152 585.047 117.277C583.397 116.401 582.122 115.217 581.22 113.722C580.318 112.204 579.874 110.485 579.887 108.565C579.9 106.621 580.356 104.908 581.254 103.426C582.177 101.921 583.421 100.753 584.987 99.924C586.552 99.0707 588.319 98.6509 590.287 98.6644C592.183 98.6774 593.884 99.0971 595.391 99.9234C596.921 100.726 598.125 101.886 599.003 103.404C599.881 104.898 600.313 106.689 600.298 108.777C600.297 108.993 600.283 109.245 600.257 109.533C600.231 109.797 600.205 110.049 600.18 110.289L584.448 110.181L584.471 106.905L597.25 106.992L595.084 107.949C595.091 106.942 594.893 106.064 594.49 105.317C594.087 104.571 593.527 103.991 592.81 103.578C592.093 103.141 591.254 102.919 590.294 102.913C589.334 102.906 588.481 103.116 587.734 103.543C587.011 103.946 586.443 104.53 586.03 105.295C585.617 106.036 585.407 106.923 585.399 107.955L585.394 108.819C585.386 109.875 585.608 110.813 586.058 111.632C586.533 112.427 587.189 113.043 588.026 113.481C588.887 113.895 589.893 114.106 591.045 114.114C592.077 114.121 592.978 113.971 593.748 113.664C594.543 113.358 595.266 112.895 595.918 112.275L598.884 115.536C597.989 116.538 596.868 117.31 595.52 117.853C594.172 118.371 592.622 118.625 590.87 118.613ZM616.377 105.864C615.417 105.857 614.591 105.527 613.9 104.875C613.232 104.198 612.902 103.344 612.909 102.312C612.916 101.28 613.258 100.454 613.934 99.8347C614.635 99.1915 615.465 98.8732 616.425 98.8798C617.409 98.8865 618.234 99.2162 618.902 99.8688C619.57 100.497 619.9 101.328 619.893 102.36C619.886 103.392 619.544 104.241 618.867 104.909C618.191 105.552 617.361 105.87 616.377 105.864ZM616.288 118.787C615.328 118.781 614.502 118.451 613.811 117.798C613.143 117.122 612.813 116.267 612.82 115.235C612.827 114.203 613.169 113.378 613.845 112.758C614.546 112.115 615.376 111.797 616.336 111.803C617.32 111.81 618.146 112.14 618.813 112.792C619.481 113.421 619.811 114.251 619.804 115.283C619.797 116.315 619.455 117.165 618.779 117.832C618.102 118.476 617.272 118.794 616.288 118.787ZM628.076 125.564C626.651 123.371 625.552 120.843 624.78 117.982C624.031 115.096 623.669 111.998 623.691 108.686C623.714 105.374 624.119 102.281 624.907 99.406C625.719 96.5075 626.852 93.9952 628.307 91.8691L633.671 91.906C632.14 94.6075 631.018 97.3359 630.303 100.091C629.588 102.822 629.22 105.7 629.199 108.724C629.179 111.748 629.507 114.642 630.184 117.407C630.861 120.147 631.946 122.879 633.44 125.601L628.076 125.564Z" fill="#8AE190"/>
</svg>
