<svg width="585" height="252" viewBox="0 0 585 252" fill="none" xmlns="http://www.w3.org/2000/svg">
<path d="M0.19 168.646L28.27 105.646H42.67L70.84 168.646H55.54L32.5 113.026H38.26L15.13 168.646H0.19ZM14.23 155.146L18.1 144.076H50.5L54.46 155.146H14.23ZM106.647 169.726C101.787 169.726 97.2573 168.946 93.0573 167.386C88.9173 165.766 85.3173 163.486 82.2573 160.546C79.1973 157.606 76.7973 154.156 75.0573 150.196C73.3773 146.236 72.5373 141.886 72.5373 137.146C72.5373 132.406 73.3773 128.056 75.0573 124.096C76.7973 120.136 79.1973 116.686 82.2573 113.746C85.3773 110.806 89.0073 108.556 93.1473 106.996C97.2873 105.376 101.817 104.566 106.737 104.566C112.197 104.566 117.117 105.526 121.497 107.446C125.937 109.306 129.657 112.066 132.657 115.726L123.297 124.366C121.137 121.906 118.737 120.076 116.097 118.876C113.457 117.616 110.577 116.986 107.457 116.986C104.517 116.986 101.817 117.466 99.3573 118.426C96.8973 119.386 94.7673 120.766 92.9673 122.566C91.1673 124.366 89.7573 126.496 88.7373 128.956C87.7773 131.416 87.2973 134.146 87.2973 137.146C87.2973 140.146 87.7773 142.876 88.7373 145.336C89.7573 147.796 91.1673 149.926 92.9673 151.726C94.7673 153.526 96.8973 154.906 99.3573 155.866C101.817 156.826 104.517 157.306 107.457 157.306C110.577 157.306 113.457 156.706 116.097 155.506C118.737 154.246 121.137 152.356 123.297 149.836L132.657 158.476C129.657 162.136 125.937 164.926 121.497 166.846C117.117 168.766 112.167 169.726 106.647 169.726ZM154.938 168.646V117.526H134.778V105.646H189.678V117.526H169.518V168.646H154.938ZM224.458 169.726C215.518 169.726 208.528 167.236 203.488 162.256C198.448 157.276 195.928 150.166 195.928 140.926V105.646H210.508V140.386C210.508 146.386 211.738 150.706 214.198 153.346C216.658 155.986 220.108 157.306 224.548 157.306C228.988 157.306 232.438 155.986 234.898 153.346C237.358 150.706 238.588 146.386 238.588 140.386V105.646H252.988V140.926C252.988 150.166 250.468 157.276 245.428 162.256C240.388 167.236 233.398 169.726 224.458 169.726ZM257.797 168.646L285.877 105.646H300.277L328.447 168.646H313.147L290.107 113.026H295.867L272.737 168.646H257.797ZM271.837 155.146L275.707 144.076H308.107L312.067 155.146H271.837ZM334.984 168.646V105.646H349.564V156.766H381.154V168.646H334.984ZM389.3 168.646V105.646H403.88V168.646H389.3ZM431.881 168.646V117.526H411.721V105.646H466.621V117.526H446.461V168.646H431.881ZM487.876 131.026H518.206V142.366H487.876V131.026ZM488.956 156.946H523.246V168.646H474.466V105.646H522.076V117.346H488.956V156.946ZM490.126 100.516L502.276 87.5565H517.396L501.106 100.516H490.126ZM555.547 169.726C550.507 169.726 545.677 169.066 541.057 167.746C536.437 166.366 532.717 164.596 529.897 162.436L534.847 151.456C537.547 153.376 540.727 154.966 544.387 156.226C548.107 157.426 551.857 158.026 555.637 158.026C558.517 158.026 560.827 157.756 562.567 157.216C564.367 156.616 565.687 155.806 566.527 154.786C567.367 153.766 567.787 152.596 567.787 151.276C567.787 149.596 567.127 148.276 565.807 147.316C564.487 146.296 562.747 145.486 560.587 144.886C558.427 144.226 556.027 143.626 553.387 143.086C550.807 142.486 548.197 141.766 545.557 140.926C542.977 140.086 540.607 139.006 538.447 137.686C536.287 136.366 534.517 134.626 533.137 132.466C531.817 130.306 531.157 127.546 531.157 124.186C531.157 120.586 532.117 117.316 534.037 114.376C536.017 111.376 538.957 109.006 542.857 107.266C546.817 105.466 551.767 104.566 557.707 104.566C561.667 104.566 565.567 105.046 569.407 106.006C573.247 106.906 576.637 108.286 579.577 110.146L575.077 121.216C572.137 119.536 569.197 118.306 566.257 117.526C563.317 116.686 560.437 116.266 557.617 116.266C554.797 116.266 552.487 116.596 550.687 117.256C548.887 117.916 547.597 118.786 546.817 119.866C546.037 120.886 545.647 122.086 545.647 123.466C545.647 125.086 546.307 126.406 547.627 127.426C548.947 128.386 550.687 129.166 552.847 129.766C555.007 130.366 557.377 130.966 559.957 131.566C562.597 132.166 565.207 132.856 567.787 133.636C570.427 134.416 572.827 135.466 574.987 136.786C577.147 138.106 578.887 139.846 580.207 142.006C581.587 144.166 582.277 146.896 582.277 150.196C582.277 153.736 581.287 156.976 579.307 159.916C577.327 162.856 574.357 165.226 570.397 167.026C566.497 168.826 561.547 169.726 555.547 169.726Z" fill="white"/>
<path d="M0.19 250.043L28.27 187.043H42.67L70.84 250.043H55.54L32.5 194.423H38.26L15.13 250.043H0.19ZM14.23 236.543L18.1 225.473H50.5L54.46 236.543H14.23ZM106.647 251.123C101.787 251.123 97.2573 250.343 93.0573 248.783C88.9173 247.163 85.3173 244.883 82.2573 241.943C79.1973 239.003 76.7973 235.553 75.0573 231.593C73.3773 227.633 72.5373 223.283 72.5373 218.543C72.5373 213.803 73.3773 209.453 75.0573 205.493C76.7973 201.533 79.1973 198.083 82.2573 195.143C85.3773 192.203 89.0073 189.953 93.1473 188.393C97.2873 186.773 101.817 185.963 106.737 185.963C112.197 185.963 117.117 186.923 121.497 188.843C125.937 190.703 129.657 193.463 132.657 197.123L123.297 205.763C121.137 203.303 118.737 201.473 116.097 200.273C113.457 199.013 110.577 198.383 107.457 198.383C104.517 198.383 101.817 198.863 99.3573 199.823C96.8973 200.783 94.7673 202.163 92.9673 203.963C91.1673 205.763 89.7573 207.893 88.7373 210.353C87.7773 212.813 87.2973 215.543 87.2973 218.543C87.2973 221.543 87.7773 224.273 88.7373 226.733C89.7573 229.193 91.1673 231.323 92.9673 233.123C94.7673 234.923 96.8973 236.303 99.3573 237.263C101.817 238.223 104.517 238.703 107.457 238.703C110.577 238.703 113.457 238.103 116.097 236.903C118.737 235.643 121.137 233.753 123.297 231.233L132.657 239.873C129.657 243.533 125.937 246.323 121.497 248.243C117.117 250.163 112.167 251.123 106.647 251.123ZM154.938 250.043V198.923H134.778V187.043H189.678V198.923H169.518V250.043H154.938ZM224.458 251.123C215.518 251.123 208.528 248.633 203.488 243.653C198.448 238.673 195.928 231.563 195.928 222.323V187.043H210.508V221.783C210.508 227.783 211.738 232.103 214.198 234.743C216.658 237.383 220.108 238.703 224.548 238.703C228.988 238.703 232.438 237.383 234.898 234.743C237.358 232.103 238.588 227.783 238.588 221.783V187.043H252.988V222.323C252.988 231.563 250.468 238.673 245.428 243.653C240.388 248.633 233.398 251.123 224.458 251.123ZM257.797 250.043L285.877 187.043H300.277L328.447 250.043H313.147L290.107 194.423H295.867L272.737 250.043H257.797ZM271.837 236.543L275.707 225.473H308.107L312.067 236.543H271.837ZM334.984 250.043V187.043H349.564V238.163H381.154V250.043H334.984ZM389.3 250.043V187.043H403.88V250.043H389.3ZM431.881 250.043V198.923H411.721V187.043H466.621V198.923H446.461V250.043H431.881ZM487.876 212.423H518.206V223.763H487.876V212.423ZM488.956 238.343H523.246V250.043H474.466V187.043H522.076V198.743H488.956V238.343ZM490.126 181.913L502.276 168.953H517.396L501.106 181.913H490.126ZM555.547 251.123C550.507 251.123 545.677 250.463 541.057 249.143C536.437 247.763 532.717 245.993 529.897 243.833L534.847 232.853C537.547 234.773 540.727 236.363 544.387 237.623C548.107 238.823 551.857 239.423 555.637 239.423C558.517 239.423 560.827 239.153 562.567 238.613C564.367 238.013 565.687 237.203 566.527 236.183C567.367 235.163 567.787 233.993 567.787 232.673C567.787 230.993 567.127 229.673 565.807 228.713C564.487 227.693 562.747 226.883 560.587 226.283C558.427 225.623 556.027 225.023 553.387 224.483C550.807 223.883 548.197 223.163 545.557 222.323C542.977 221.483 540.607 220.403 538.447 219.083C536.287 217.763 534.517 216.023 533.137 213.863C531.817 211.703 531.157 208.943 531.157 205.583C531.157 201.983 532.117 198.713 534.037 195.773C536.017 192.773 538.957 190.403 542.857 188.663C546.817 186.863 551.767 185.963 557.707 185.963C561.667 185.963 565.567 186.443 569.407 187.403C573.247 188.303 576.637 189.683 579.577 191.543L575.077 202.613C572.137 200.933 569.197 199.703 566.257 198.923C563.317 198.083 560.437 197.663 557.617 197.663C554.797 197.663 552.487 197.993 550.687 198.653C548.887 199.313 547.597 200.183 546.817 201.263C546.037 202.283 545.647 203.483 545.647 204.863C545.647 206.483 546.307 207.803 547.627 208.823C548.947 209.783 550.687 210.563 552.847 211.163C555.007 211.763 557.377 212.363 559.957 212.963C562.597 213.563 565.207 214.253 567.787 215.033C570.427 215.813 572.827 216.863 574.987 218.183C577.147 219.503 578.887 221.243 580.207 223.403C581.587 225.563 582.277 228.293 582.277 231.593C582.277 235.133 581.287 238.373 579.307 241.313C577.327 244.253 574.357 246.623 570.397 248.423C566.497 250.223 561.547 251.123 555.547 251.123Z" fill="black"/>
<path d="M0.19 87.25L28.27 24.25H42.67L70.84 87.25H55.54L32.5 31.63H38.26L15.13 87.25H0.19ZM14.23 73.75L18.1 62.68H50.5L54.46 73.75H14.23ZM106.647 88.33C101.787 88.33 97.2573 87.55 93.0573 85.99C88.9173 84.37 85.3173 82.09 82.2573 79.15C79.1973 76.21 76.7973 72.76 75.0573 68.8C73.3773 64.84 72.5373 60.49 72.5373 55.75C72.5373 51.01 73.3773 46.66 75.0573 42.7C76.7973 38.74 79.1973 35.29 82.2573 32.35C85.3773 29.41 89.0073 27.16 93.1473 25.6C97.2873 23.98 101.817 23.17 106.737 23.17C112.197 23.17 117.117 24.13 121.497 26.05C125.937 27.91 129.657 30.67 132.657 34.33L123.297 42.97C121.137 40.51 118.737 38.68 116.097 37.48C113.457 36.22 110.577 35.59 107.457 35.59C104.517 35.59 101.817 36.07 99.3573 37.03C96.8973 37.99 94.7673 39.37 92.9673 41.17C91.1673 42.97 89.7573 45.1 88.7373 47.56C87.7773 50.02 87.2973 52.75 87.2973 55.75C87.2973 58.75 87.7773 61.48 88.7373 63.94C89.7573 66.4 91.1673 68.53 92.9673 70.33C94.7673 72.13 96.8973 73.51 99.3573 74.47C101.817 75.43 104.517 75.91 107.457 75.91C110.577 75.91 113.457 75.31 116.097 74.11C118.737 72.85 121.137 70.96 123.297 68.44L132.657 77.08C129.657 80.74 125.937 83.53 121.497 85.45C117.117 87.37 112.167 88.33 106.647 88.33ZM154.938 87.25V36.13H134.778V24.25H189.678V36.13H169.518V87.25H154.938ZM224.458 88.33C215.518 88.33 208.528 85.84 203.488 80.86C198.448 75.88 195.928 68.77 195.928 59.53V24.25H210.508V58.99C210.508 64.99 211.738 69.31 214.198 71.95C216.658 74.59 220.108 75.91 224.548 75.91C228.988 75.91 232.438 74.59 234.898 71.95C237.358 69.31 238.588 64.99 238.588 58.99V24.25H252.988V59.53C252.988 68.77 250.468 75.88 245.428 80.86C240.388 85.84 233.398 88.33 224.458 88.33ZM257.797 87.25L285.877 24.25H300.277L328.447 87.25H313.147L290.107 31.63H295.867L272.737 87.25H257.797ZM271.837 73.75L275.707 62.68H308.107L312.067 73.75H271.837ZM334.984 87.25V24.25H349.564V75.37H381.154V87.25H334.984ZM389.3 87.25V24.25H403.88V87.25H389.3ZM431.881 87.25V36.13H411.721V24.25H466.621V36.13H446.461V87.25H431.881ZM487.876 49.63H518.206V60.97H487.876V49.63ZM488.956 75.55H523.246V87.25H474.466V24.25H522.076V35.95H488.956V75.55ZM490.126 19.12L502.276 6.16H517.396L501.106 19.12H490.126ZM555.547 88.33C550.507 88.33 545.677 87.67 541.057 86.35C536.437 84.97 532.717 83.2 529.897 81.04L534.847 70.06C537.547 71.98 540.727 73.57 544.387 74.83C548.107 76.03 551.857 76.63 555.637 76.63C558.517 76.63 560.827 76.36 562.567 75.82C564.367 75.22 565.687 74.41 566.527 73.39C567.367 72.37 567.787 71.2 567.787 69.88C567.787 68.2 567.127 66.88 565.807 65.92C564.487 64.9 562.747 64.09 560.587 63.49C558.427 62.83 556.027 62.23 553.387 61.69C550.807 61.09 548.197 60.37 545.557 59.53C542.977 58.69 540.607 57.61 538.447 56.29C536.287 54.97 534.517 53.23 533.137 51.07C531.817 48.91 531.157 46.15 531.157 42.79C531.157 39.19 532.117 35.92 534.037 32.98C536.017 29.98 538.957 27.61 542.857 25.87C546.817 24.07 551.767 23.17 557.707 23.17C561.667 23.17 565.567 23.65 569.407 24.61C573.247 25.51 576.637 26.89 579.577 28.75L575.077 39.82C572.137 38.14 569.197 36.91 566.257 36.13C563.317 35.29 560.437 34.87 557.617 34.87C554.797 34.87 552.487 35.2 550.687 35.86C548.887 36.52 547.597 37.39 546.817 38.47C546.037 39.49 545.647 40.69 545.647 42.07C545.647 43.69 546.307 45.01 547.627 46.03C548.947 46.99 550.687 47.77 552.847 48.37C555.007 48.97 557.377 49.57 559.957 50.17C562.597 50.77 565.207 51.46 567.787 52.24C570.427 53.02 572.827 54.07 574.987 55.39C577.147 56.71 578.887 58.45 580.207 60.61C581.587 62.77 582.277 65.5 582.277 68.8C582.277 72.34 581.287 75.58 579.307 78.52C577.327 81.46 574.357 83.83 570.397 85.63C566.497 87.43 561.547 88.33 555.547 88.33Z" fill="black"/>
</svg>
