<svg width="623" height="185" viewBox="0 0 623 185" fill="none" xmlns="http://www.w3.org/2000/svg">
<rect width="257.299" height="302.362" transform="matrix(-1 0 0 1 545.031 14.8135)" fill="#59B1D3"/>
<path d="M518.748 128.09L428.899 196.056H608.598L518.748 128.09Z" fill="#59B1D3"/>
<rect width="391.021" height="214.354" transform="matrix(-1 0 0 1 391.021 144.646)" fill="#59B1D3"/>
<rect x="21.2109" y="123.733" width="237.933" height="28.7549" fill="#59B1D3"/>
<rect x="41.5" y="169.915" width="110.666" height="28.7549" fill="white"/>
<rect x="177.988" y="168.172" width="56.2554" height="30.4976" fill="white"/>
<rect x="329.232" y="40" width="31.3555" height="44" fill="white"/>
<rect x="382.721" y="40" width="31.3555" height="44" fill="white"/>
<rect x="436.21" y="40" width="31.3555" height="44" fill="white"/>
<rect x="329.232" y="110" width="31.3555" height="43" fill="white"/>
<rect x="382.721" y="110" width="31.3555" height="43" fill="white"/>
<rect x="436.21" y="110" width="31.3555" height="43" fill="white"/>
<rect x="321.854" width="223.177" height="20.0413" fill="#59B1D3"/>
</svg>
