<svg width="768" height="203" viewBox="0 0 768 203" fill="none" xmlns="http://www.w3.org/2000/svg">
<g clip-path="url(#clip0_417_2)">
<path d="M650.655 71.0208L687.978 49.4263C680.911 48.9521 667.278 45.5455 669.288 35.7125C671.298 25.8795 686.712 29.6244 694.167 32.726L702.224 34.9095C707.878 35.2887 713.013 38.5541 714.874 40.1394L721.235 36.4585L744.23 76.2018L736.151 80.8761C738.208 90.4398 727.118 99.0027 720.829 102.29L683.931 123.639C675.024 128.792 669.938 118.046 670.571 113.268C659.397 116.706 656.619 105.788 659.447 101.869C656.732 103.44 653.769 102.493 652.626 101.823C644.005 97.6854 648.1 89.8013 651.163 86.6979C647.204 87.2261 645.369 85.3674 643.938 82.8931C640.477 76.91 647.263 72.9837 650.655 71.0208Z" fill="white"/>
<path d="M681.896 70.5951L663.131 81.089C657.17 84.6632 653.064 86.2869 650.125 86.6432M650.125 86.6432C646.083 87.1332 644.248 85.2264 642.835 82.6996C639.419 76.5898 646.402 72.6851 649.892 70.7331L688.295 49.2577C681.107 48.6949 668.714 46.4393 670.94 36.4871C673.165 26.5348 685.254 29.6914 694.754 33.1914C701.488 34.9956 715.136 38.9126 715.855 40.1476L722.401 36.487L745.097 77.0723L736.784 81.7208C738.705 91.4469 727.255 100.005 720.79 103.268L682.824 124.499C673.659 129.624 668.675 118.663 669.406 113.823M650.125 86.6432C646.948 89.7562 642.634 97.707 651.339 102.004C654.683 103.655 660.274 101.591 670.94 95.0537L689.705 84.5598M658.285 102.13C655.334 106.073 657.965 117.182 669.406 113.823M698.195 98.717L671.331 113.167C670.66 113.426 670.019 113.643 669.406 113.823" stroke="#579DF8" stroke-width="5" stroke-linecap="round" stroke-linejoin="round"/>
<rect x="747.537" y="81.4357" width="57" height="19" rx="9.5" transform="rotate(-119.214 747.537 81.4357)" fill="white" stroke="#579DF8" stroke-width="5"/>
<rect x="624.516" y="33.1938" width="57" height="19" rx="9.5" transform="rotate(120.107 624.516 33.1938)" fill="white" stroke="#88EC92" stroke-width="5"/>
<path d="M664.441 122.924L627.436 100.789C630.454 107.197 634.098 120.767 624.527 123.787C614.955 126.806 610.742 111.514 609.832 103.49L607.827 95.3874C605.412 90.2609 605.773 84.1863 606.254 81.7898L599.947 78.0167L623.518 38.6123L631.528 43.4037C638.888 36.9603 651.76 42.4953 657.688 46.3956L694.272 68.2796C703.103 73.562 696.179 83.2273 691.696 84.9949C700.129 93.0919 691.934 100.824 687.136 100.255C689.827 101.865 690.439 104.916 690.408 106.24C690.979 115.786 682.098 116.035 677.897 114.865C680.282 118.07 679.549 120.576 678.081 123.029C674.532 128.961 667.804 124.936 664.441 122.924Z" fill="white"/>
<path d="M648.683 95.1778L667.283 105.963C673.398 109.265 676.889 111.968 678.695 114.315M678.695 114.315C681.179 117.541 680.475 120.092 679.023 122.596C675.511 128.651 668.59 124.638 665.131 122.632L627.067 100.561C630.251 107.031 633.949 119.469 624.254 122.632C614.559 125.796 612.254 111.191 609.186 103.487L606.754 95.6913C605.17 89.6913 604.72 83.9433 605.17 81.5067L598.682 77.7446L622.007 37.5179L630.246 42.2954C637.631 35.6808 650.834 41.1618 656.938 45.057L694.569 66.8773C703.653 72.1443 696.768 82.0233 692.233 83.8638M678.695 114.315C682.993 115.458 692.032 115.112 691.287 105.433C691.001 101.715 686.373 97.9591 675.308 92.1216L656.709 81.3365M687.852 99.3947C692.748 99.9213 700.96 91.9906 692.233 83.8638M664.553 66.8116L690.687 82.5436C691.252 82.9884 691.766 83.4286 692.233 83.8638" stroke="#88EC92" stroke-width="5" stroke-linecap="round" stroke-linejoin="round"/>
<path d="M702.493 88.7911V131.911C706.443 126.031 716.219 115.938 723.723 122.602C731.228 129.266 720.267 140.731 713.849 145.631L707.924 151.511C704.764 156.215 699.366 159.025 697.062 159.841V167.191H651.146V157.858C641.838 154.849 639.98 140.961 640.284 133.872V91.2417C640.284 80.9517 652.133 81.9317 655.952 84.8717C658.571 73.4787 669.413 76.5417 671.389 80.9517C671.389 77.8157 673.693 75.7247 674.845 75.0712C682.744 69.6812 687.517 77.1741 688.669 81.38C690.195 77.6881 692.723 77.0309 695.581 77.0311C702.493 77.0317 702.493 84.8717 702.493 88.7911Z" fill="white"/>
<path d="M688.254 116.692V95.1914C688.044 88.2449 688.631 83.8683 689.755 81.129M689.755 81.129C691.3 77.3618 693.859 76.6912 696.754 76.6914C703.754 76.692 703.754 84.692 703.754 88.6914V132.691C707.754 126.692 717.654 116.392 725.254 123.192C732.854 129.992 721.754 141.692 715.254 146.692M689.755 81.129C688.588 76.8373 683.754 69.1914 675.755 74.6914C672.682 76.8041 671.754 82.6916 672.255 95.1914V116.692M672.255 80.692C670.254 76.192 659.274 73.0664 656.621 84.692M655.754 117.192L656.254 86.6919C656.356 85.9804 656.479 85.3145 656.621 84.692M656.621 84.692C652.754 81.692 640.754 80.692 640.754 91.192V134.692C640.447 141.926 642.328 156.097 651.754 159.168V168.692H698.254V161.192C700.588 160.359 706.054 157.492 709.254 152.692" stroke="#24395C" stroke-width="5" stroke-linecap="round" stroke-linejoin="round"/>
<rect x="646.754" y="168.691" width="57" height="19" rx="9.5" fill="white" stroke="#24395C" stroke-width="5"/>
<rect y="63" width="433" height="64" fill="#59B1D3"/>
<rect x="175" y="104" width="390" height="64" fill="#A8EDAD"/>
<path d="M215.88 112.38H246.21V123.72H215.88V112.38ZM216.96 138.3H251.25V150H202.47V87H250.08V98.7H216.96V138.3ZM218.13 81.87L230.28 68.91H245.4L229.11 81.87H218.13ZM293.361 151.08C288.441 151.08 283.851 150.27 279.591 148.65C275.391 147.03 271.731 144.75 268.611 141.81C265.551 138.87 263.151 135.42 261.411 131.46C259.731 127.5 258.891 123.18 258.891 118.5C258.891 113.82 259.731 109.5 261.411 105.54C263.151 101.58 265.581 98.13 268.701 95.19C271.821 92.25 275.481 89.97 279.681 88.35C283.881 86.73 288.441 85.92 293.361 85.92C298.341 85.92 302.901 86.73 307.041 88.35C311.241 89.97 314.871 92.25 317.931 95.19C321.051 98.07 323.481 101.49 325.221 105.45C326.961 109.41 327.831 113.76 327.831 118.5C327.831 123.18 326.961 127.53 325.221 131.55C323.481 135.51 321.051 138.96 317.931 141.9C314.871 144.78 311.241 147.03 307.041 148.65C302.901 150.27 298.341 151.08 293.361 151.08ZM313.971 164.49C311.511 164.49 309.171 164.22 306.951 163.68C304.791 163.14 302.631 162.27 300.471 161.07C298.371 159.87 296.151 158.25 293.811 156.21C291.531 154.17 289.041 151.65 286.341 148.65L301.641 144.78C303.261 147 304.761 148.77 306.141 150.09C307.521 151.41 308.841 152.34 310.101 152.88C311.421 153.42 312.801 153.69 314.241 153.69C318.081 153.69 321.501 152.13 324.501 149.01L330.981 156.75C326.721 161.91 321.051 164.49 313.971 164.49ZM293.361 138.66C296.181 138.66 298.761 138.18 301.101 137.22C303.501 136.26 305.601 134.88 307.401 133.08C309.201 131.28 310.581 129.15 311.541 126.69C312.561 124.17 313.071 121.44 313.071 118.5C313.071 115.5 312.561 112.77 311.541 110.31C310.581 107.85 309.201 105.72 307.401 103.92C305.601 102.12 303.501 100.74 301.101 99.78C298.761 98.82 296.181 98.34 293.361 98.34C290.541 98.34 287.931 98.82 285.531 99.78C283.131 100.74 281.031 102.12 279.231 103.92C277.491 105.72 276.111 107.85 275.091 110.31C274.131 112.77 273.651 115.5 273.651 118.5C273.651 121.44 274.131 124.17 275.091 126.69C276.111 129.15 277.491 131.28 279.231 133.08C281.031 134.88 283.131 136.26 285.531 137.22C287.931 138.18 290.541 138.66 293.361 138.66ZM366.778 151.08C357.838 151.08 350.848 148.59 345.808 143.61C340.768 138.63 338.248 131.52 338.248 122.28V87H352.828V121.74C352.828 127.74 354.058 132.06 356.518 134.7C358.978 137.34 362.428 138.66 366.868 138.66C371.308 138.66 374.758 137.34 377.218 134.7C379.678 132.06 380.908 127.74 380.908 121.74V87H395.308V122.28C395.308 131.52 392.788 138.63 387.748 143.61C382.708 148.59 375.718 151.08 366.778 151.08ZM409.716 150V87H424.296V150H409.716ZM439.247 150V87H466.517C472.157 87 477.017 87.93 481.097 89.79C485.177 91.59 488.327 94.2 490.547 97.62C492.767 101.04 493.877 105.12 493.877 109.86C493.877 114.54 492.767 118.59 490.547 122.01C488.327 125.43 485.177 128.07 481.097 129.93C477.017 131.73 472.157 132.63 466.517 132.63H447.347L453.827 126.06V150H439.247ZM453.827 127.68L447.347 120.75H465.707C470.207 120.75 473.567 119.79 475.787 117.87C478.007 115.95 479.117 113.28 479.117 109.86C479.117 106.38 478.007 103.68 475.787 101.76C473.567 99.84 470.207 98.88 465.707 98.88H447.347L453.827 91.95V127.68ZM517.696 112.38H548.026V123.72H517.696V112.38ZM518.776 138.3H553.066V150H504.286V87H551.896V98.7H518.776V138.3Z" fill="black"/>
<path d="M20.32 112V84H25.68L42.2 104.16H39.6V84H46V112H40.68L24.12 91.84H26.72V112H20.32ZM66.2247 112.48C64.0114 112.48 61.958 112.12 60.0647 111.4C58.198 110.68 56.5714 109.667 55.1847 108.36C53.8247 107.053 52.758 105.52 51.9847 103.76C51.238 102 50.8647 100.08 50.8647 98C50.8647 95.92 51.238 94 51.9847 92.24C52.758 90.48 53.838 88.9467 55.2247 87.64C56.6114 86.3333 58.238 85.32 60.1047 84.6C61.9714 83.88 63.998 83.52 66.1847 83.52C68.398 83.52 70.4247 83.88 72.2647 84.6C74.1314 85.32 75.7447 86.3333 77.1047 87.64C78.4914 88.9467 79.5714 90.48 80.3447 92.24C81.118 93.9733 81.5047 95.8933 81.5047 98C81.5047 100.08 81.118 102.013 80.3447 103.8C79.5714 105.56 78.4914 107.093 77.1047 108.4C75.7447 109.68 74.1314 110.68 72.2647 111.4C70.4247 112.12 68.4114 112.48 66.2247 112.48ZM66.1847 106.96C67.438 106.96 68.5847 106.747 69.6247 106.32C70.6914 105.893 71.6247 105.28 72.4247 104.48C73.2247 103.68 73.838 102.733 74.2647 101.64C74.718 100.547 74.9447 99.3333 74.9447 98C74.9447 96.6667 74.718 95.4533 74.2647 94.36C73.838 93.2667 73.2247 92.32 72.4247 91.52C71.6514 90.72 70.7314 90.1067 69.6647 89.68C68.598 89.2533 67.438 89.04 66.1847 89.04C64.9314 89.04 63.7714 89.2533 62.7047 89.68C61.6647 90.1067 60.7447 90.72 59.9447 91.52C59.1447 92.32 58.518 93.2667 58.0647 94.36C57.638 95.4533 57.4247 96.6667 57.4247 98C57.4247 99.3067 57.638 100.52 58.0647 101.64C58.518 102.733 59.1314 103.68 59.9047 104.48C60.7047 105.28 61.638 105.893 62.7047 106.32C63.7714 106.747 64.9314 106.96 66.1847 106.96ZM91.7841 112V89.28H82.8241V84H107.224V89.28H98.2641V112H91.7841ZM110.711 112V84H122.831C125.337 84 127.497 84.4133 129.311 85.24C131.124 86.04 132.524 87.2 133.511 88.72C134.497 90.24 134.991 92.0533 134.991 94.16C134.991 96.24 134.497 98.04 133.511 99.56C132.524 101.053 131.124 102.2 129.311 103C127.497 103.8 125.337 104.2 122.831 104.2H114.311L117.191 101.36V112H110.711ZM128.511 112L121.511 101.84H128.431L135.511 112H128.511ZM117.191 102.08L114.311 99.04H122.471C124.471 99.04 125.964 98.6133 126.951 97.76C127.937 96.88 128.431 95.68 128.431 94.16C128.431 92.6133 127.937 91.4133 126.951 90.56C125.964 89.7067 124.471 89.28 122.471 89.28H114.311L117.191 86.2V102.08ZM146.085 95.28H159.565V100.32H146.085V95.28ZM146.565 106.8H161.805V112H140.125V84H161.285V89.2H146.565V106.8Z" fill="black"/>
</g>
<defs>
<clipPath id="clip0_417_2">
<rect width="768" height="203" fill="white"/>
</clipPath>
</defs>
</svg>
