<svg width="1104" height="136" viewBox="0 0 1104 136" fill="none" xmlns="http://www.w3.org/2000/svg">
<rect x="2.5" y="2.5" width="1099" height="67" fill="#E6E6E6" stroke="#20637C" stroke-width="5"/>
<path d="M1056 113L1043.5 122.5L1029.5 101.5L1011 127L997 36L1068 88L1040 94L1056 113Z" fill="white" stroke="black" stroke-width="6"/>
<path d="M55.382 42.144C53.942 42.144 52.832 41.688 52.052 40.776C51.272 39.864 50.882 38.598 50.882 36.978C50.882 36.006 51.053 35.136 51.395 34.368C51.743 33.6 52.253 32.991 52.925 32.541C53.603 32.091 54.434 31.86 55.418 31.848C55.922 31.836 56.396 31.908 56.84 32.064C57.284 32.22 57.677 32.457 58.019 32.775C58.361 33.087 58.631 33.483 58.829 33.963C59.033 34.443 59.144 35.004 59.162 35.646C59.162 36.024 59.159 36.363 59.153 36.663C59.147 36.957 59.12 37.218 59.072 37.446H52.088L52.268 36.132H57.218C57.248 35.652 57.218 35.199 57.128 34.773C57.044 34.341 56.858 33.993 56.57 33.729C56.288 33.459 55.868 33.324 55.31 33.324C54.842 33.324 54.422 33.456 54.05 33.72C53.678 33.978 53.39 34.416 53.186 35.034C52.982 35.652 52.898 36.498 52.934 37.572C52.97 38.328 53.123 38.925 53.393 39.363C53.663 39.801 54.017 40.113 54.455 40.299C54.893 40.485 55.382 40.578 55.922 40.578C56.15 40.578 56.429 40.554 56.759 40.506C57.089 40.452 57.407 40.386 57.713 40.308C58.025 40.224 58.262 40.134 58.424 40.038L58.82 41.226C58.598 41.406 58.295 41.565 57.911 41.703C57.533 41.841 57.122 41.949 56.678 42.027C56.234 42.105 55.802 42.144 55.382 42.144ZM60.0593 42L63.8033 36.636L63.8213 37.23L60.0413 31.974H62.3993L64.5053 35.178L65.1173 36.204H64.4333L64.9553 35.16L67.0613 31.974H69.4013L65.6033 37.212V36.546L69.4733 42H67.0793L64.9553 38.76L64.2173 37.572H64.9913L64.3973 38.778L62.4353 42H60.0593ZM74.8586 42.144C73.4186 42.144 72.3086 41.688 71.5286 40.776C70.7486 39.864 70.3586 38.598 70.3586 36.978C70.3586 36.006 70.5296 35.136 70.8716 34.368C71.2196 33.6 71.7296 32.991 72.4016 32.541C73.0796 32.091 73.9106 31.86 74.8946 31.848C75.3986 31.836 75.8726 31.908 76.3166 32.064C76.7606 32.22 77.1536 32.457 77.4956 32.775C77.8376 33.087 78.1076 33.483 78.3056 33.963C78.5096 34.443 78.6206 35.004 78.6386 35.646C78.6386 36.024 78.6356 36.363 78.6296 36.663C78.6236 36.957 78.5966 37.218 78.5486 37.446H71.5646L71.7446 36.132H76.6946C76.7246 35.652 76.6946 35.199 76.6046 34.773C76.5206 34.341 76.3346 33.993 76.0466 33.729C75.7646 33.459 75.3446 33.324 74.7866 33.324C74.3186 33.324 73.8986 33.456 73.5266 33.72C73.1546 33.978 72.8666 34.416 72.6626 35.034C72.4586 35.652 72.3746 36.498 72.4106 37.572C72.4466 38.328 72.5996 38.925 72.8696 39.363C73.1396 39.801 73.4936 40.113 73.9316 40.299C74.3696 40.485 74.8586 40.578 75.3986 40.578C75.6266 40.578 75.9056 40.554 76.2356 40.506C76.5656 40.452 76.8836 40.386 77.1896 40.308C77.5016 40.224 77.7386 40.134 77.9006 40.038L78.2966 41.226C78.0746 41.406 77.7716 41.565 77.3876 41.703C77.0096 41.841 76.5986 41.949 76.1546 42.027C75.7106 42.105 75.2786 42.144 74.8586 42.144ZM81.0617 42V31.992H82.9247L82.9337 33.054C83.1797 32.886 83.4857 32.709 83.8517 32.523C84.2237 32.337 84.6257 32.178 85.0577 32.046C85.4897 31.914 85.9217 31.842 86.3537 31.83C87.0737 31.806 87.6527 31.917 88.0907 32.163C88.5287 32.409 88.8467 32.82 89.0447 33.396C89.2487 33.972 89.3507 34.749 89.3507 35.727V42H87.2807V35.853C87.2807 35.307 87.2327 34.863 87.1367 34.521C87.0467 34.173 86.8757 33.921 86.6237 33.765C86.3717 33.609 85.9997 33.543 85.5077 33.567C85.1957 33.573 84.8177 33.651 84.3737 33.801C83.9357 33.945 83.5217 34.164 83.1317 34.458V42H81.0617ZM89.2427 34.467L88.8017 33.153C89.0357 32.955 89.3447 32.757 89.7287 32.559C90.1187 32.361 90.5447 32.193 91.0067 32.055C91.4747 31.911 91.9457 31.836 92.4197 31.83C93.1337 31.818 93.7157 31.932 94.1657 32.172C94.6157 32.412 94.9457 32.82 95.1557 33.396C95.3717 33.966 95.4797 34.74 95.4797 35.718V42H93.4007V35.853C93.4007 35.307 93.3557 34.863 93.2657 34.521C93.1817 34.173 93.0137 33.921 92.7617 33.765C92.5157 33.609 92.1437 33.543 91.6457 33.567C91.2977 33.573 90.9017 33.66 90.4577 33.828C90.0137 33.99 89.6087 34.203 89.2427 34.467ZM98.4092 46.446V31.974H100.299V33.198L100.479 33.414V41.172L100.461 41.586L100.479 43.224V46.446H98.4092ZM102.108 42.144C101.49 42.144 100.974 42.066 100.56 41.91C100.146 41.754 99.8792 41.628 99.7592 41.532L100.479 40.2C100.671 40.362 100.911 40.479 101.199 40.551C101.493 40.617 101.844 40.65 102.252 40.65C102.768 40.65 103.233 40.506 103.647 40.218C104.061 39.924 104.388 39.498 104.628 38.94C104.874 38.376 105.003 37.689 105.015 36.879C105.027 35.679 104.817 34.809 104.385 34.269C103.959 33.723 103.362 33.45 102.594 33.45C102.126 33.45 101.709 33.54 101.343 33.72C100.983 33.894 100.695 34.065 100.479 34.233L100.155 33.207C100.293 33.063 100.482 32.883 100.722 32.667C100.962 32.451 101.28 32.262 101.676 32.1C102.072 31.932 102.57 31.848 103.17 31.848C103.878 31.848 104.532 32.022 105.132 32.37C105.738 32.712 106.224 33.237 106.59 33.945C106.956 34.647 107.139 35.538 107.139 36.618C107.139 37.704 106.929 38.664 106.509 39.498C106.095 40.326 105.51 40.974 104.754 41.442C104.004 41.91 103.122 42.144 102.108 42.144ZM109.593 42V27.366H111.681V42H109.593ZM118.681 42.144C117.241 42.144 116.131 41.688 115.351 40.776C114.571 39.864 114.181 38.598 114.181 36.978C114.181 36.006 114.352 35.136 114.694 34.368C115.042 33.6 115.552 32.991 116.224 32.541C116.902 32.091 117.733 31.86 118.717 31.848C119.221 31.836 119.695 31.908 120.139 32.064C120.583 32.22 120.976 32.457 121.318 32.775C121.66 33.087 121.93 33.483 122.128 33.963C122.332 34.443 122.443 35.004 122.461 35.646C122.461 36.024 122.458 36.363 122.452 36.663C122.446 36.957 122.419 37.218 122.371 37.446H115.387L115.567 36.132H120.517C120.547 35.652 120.517 35.199 120.427 34.773C120.343 34.341 120.157 33.993 119.869 33.729C119.587 33.459 119.167 33.324 118.609 33.324C118.141 33.324 117.721 33.456 117.349 33.72C116.977 33.978 116.689 34.416 116.485 35.034C116.281 35.652 116.197 36.498 116.233 37.572C116.269 38.328 116.422 38.925 116.692 39.363C116.962 39.801 117.316 40.113 117.754 40.299C118.192 40.485 118.681 40.578 119.221 40.578C119.449 40.578 119.728 40.554 120.058 40.506C120.388 40.452 120.706 40.386 121.012 40.308C121.324 40.224 121.561 40.134 121.723 40.038L122.119 41.226C121.897 41.406 121.594 41.565 121.21 41.703C120.832 41.841 120.421 41.949 119.977 42.027C119.533 42.105 119.101 42.144 118.681 42.144ZM124.92 42V28.626C125.04 28.626 125.157 28.626 125.271 28.626C125.391 28.626 125.508 28.626 125.622 28.626C125.736 28.626 125.85 28.626 125.964 28.626C126.246 28.626 126.558 28.614 126.9 28.59C127.242 28.566 127.602 28.542 127.98 28.518C128.364 28.494 128.754 28.482 129.15 28.482C131.322 28.482 132.93 29.049 133.974 30.183C135.018 31.311 135.54 32.892 135.54 34.926C135.54 36.45 135.27 37.755 134.73 38.841C134.196 39.927 133.434 40.755 132.444 41.325C131.454 41.895 130.284 42.168 128.934 42.144C128.46 42.132 127.932 42.105 127.35 42.063C126.768 42.021 126.246 42 125.784 42C125.688 42 125.592 42 125.496 42C125.4 42 125.304 42 125.208 42C125.112 42 125.016 42 124.92 42ZM127.044 40.398C127.332 40.458 127.677 40.503 128.079 40.533C128.487 40.557 128.874 40.566 129.24 40.56C130.038 40.548 130.743 40.359 131.355 39.993C131.973 39.627 132.456 39.054 132.804 38.274C133.152 37.494 133.326 36.48 133.326 35.232C133.326 33.942 133.155 32.919 132.813 32.163C132.471 31.401 131.958 30.855 131.274 30.525C130.596 30.195 129.75 30.03 128.736 30.03C128.388 30.03 128.067 30.042 127.773 30.066C127.479 30.09 127.236 30.12 127.044 30.156V40.398ZM141.673 42.144C140.233 42.144 139.123 41.688 138.343 40.776C137.563 39.864 137.173 38.598 137.173 36.978C137.173 36.006 137.344 35.136 137.686 34.368C138.034 33.6 138.544 32.991 139.216 32.541C139.894 32.091 140.725 31.86 141.709 31.848C142.213 31.836 142.687 31.908 143.131 32.064C143.575 32.22 143.968 32.457 144.31 32.775C144.652 33.087 144.922 33.483 145.12 33.963C145.324 34.443 145.435 35.004 145.453 35.646C145.453 36.024 145.45 36.363 145.444 36.663C145.438 36.957 145.411 37.218 145.363 37.446H138.379L138.559 36.132H143.509C143.539 35.652 143.509 35.199 143.419 34.773C143.335 34.341 143.149 33.993 142.861 33.729C142.579 33.459 142.159 33.324 141.601 33.324C141.133 33.324 140.713 33.456 140.341 33.72C139.969 33.978 139.681 34.416 139.477 35.034C139.273 35.652 139.189 36.498 139.225 37.572C139.261 38.328 139.414 38.925 139.684 39.363C139.954 39.801 140.308 40.113 140.746 40.299C141.184 40.485 141.673 40.578 142.213 40.578C142.441 40.578 142.72 40.554 143.05 40.506C143.38 40.452 143.698 40.386 144.004 40.308C144.316 40.224 144.553 40.134 144.715 40.038L145.111 41.226C144.889 41.406 144.586 41.565 144.202 41.703C143.824 41.841 143.413 41.949 142.969 42.027C142.525 42.105 142.093 42.144 141.673 42.144ZM147.165 35.367C147.165 34.257 147.33 33.276 147.66 32.424C147.996 31.572 148.455 30.852 149.037 30.264C149.619 29.676 150.285 29.232 151.035 28.932C151.791 28.632 152.586 28.482 153.42 28.482C154.092 28.482 154.656 28.518 155.112 28.59C155.574 28.656 155.952 28.728 156.246 28.806C156.54 28.884 156.777 28.944 156.957 28.986L156.651 30.867C156.555 30.807 156.39 30.723 156.156 30.615C155.922 30.507 155.595 30.408 155.175 30.318C154.755 30.222 154.215 30.174 153.555 30.174C152.691 30.174 151.938 30.381 151.296 30.795C150.654 31.203 150.156 31.788 149.802 32.55C149.454 33.306 149.28 34.203 149.28 35.241C149.28 36.261 149.451 37.167 149.793 37.959C150.141 38.745 150.639 39.363 151.287 39.813C151.935 40.263 152.706 40.488 153.6 40.488C154.044 40.488 154.485 40.446 154.923 40.362C155.367 40.278 155.76 40.173 156.102 40.047C156.45 39.921 156.702 39.792 156.858 39.66V41.442C156.6 41.544 156.315 41.649 156.003 41.757C155.691 41.865 155.331 41.955 154.923 42.027C154.521 42.105 154.044 42.144 153.492 42.144C152.214 42.144 151.101 41.862 150.153 41.298C149.205 40.728 148.47 39.936 147.948 38.922C147.426 37.902 147.165 36.717 147.165 35.367ZM163.143 42.144C162.327 42.144 161.634 42 161.064 41.712C160.494 41.424 160.032 41.031 159.678 40.533C159.324 40.035 159.066 39.465 158.904 38.823C158.748 38.175 158.673 37.494 158.679 36.78C158.697 35.706 158.91 34.803 159.318 34.071C159.726 33.339 160.278 32.787 160.974 32.415C161.67 32.037 162.453 31.848 163.323 31.848C164.415 31.848 165.288 32.097 165.942 32.595C166.602 33.087 167.076 33.741 167.364 34.557C167.658 35.367 167.799 36.246 167.787 37.194C167.769 38.268 167.556 39.174 167.148 39.912C166.746 40.644 166.197 41.199 165.501 41.577C164.811 41.955 164.025 42.144 163.143 42.144ZM163.197 40.677C164.019 40.689 164.637 40.38 165.051 39.75C165.471 39.114 165.681 38.235 165.681 37.113C165.681 36.417 165.597 35.787 165.429 35.223C165.261 34.653 164.997 34.197 164.637 33.855C164.283 33.513 163.827 33.339 163.269 33.333C162.453 33.315 161.838 33.609 161.424 34.215C161.01 34.821 160.803 35.685 160.803 36.807C160.803 37.503 160.887 38.142 161.055 38.724C161.223 39.306 161.484 39.774 161.838 40.128C162.192 40.482 162.645 40.665 163.197 40.677ZM172.973 42.144C172.319 42.144 171.791 42.042 171.389 41.838C170.987 41.634 170.681 41.343 170.471 40.965C170.261 40.581 170.117 40.125 170.039 39.597C169.967 39.069 169.931 38.484 169.931 37.842V31.974H172.001V37.824C172.001 38.616 172.061 39.198 172.181 39.57C172.307 39.942 172.499 40.182 172.757 40.29C173.021 40.398 173.363 40.452 173.783 40.452C174.029 40.452 174.29 40.416 174.566 40.344C174.848 40.266 175.112 40.176 175.358 40.074C175.604 39.966 175.799 39.864 175.943 39.768V31.974H178.013V42.144H177.059C176.783 42.144 176.564 42.102 176.402 42.018C176.24 41.94 176.159 41.736 176.159 41.406V40.704L176.195 41.1C175.925 41.28 175.607 41.451 175.241 41.613C174.881 41.769 174.503 41.898 174.107 42C173.711 42.096 173.333 42.144 172.973 42.144ZM182.898 34.638L182.772 33.27C182.862 33.084 183.051 32.88 183.339 32.658C183.627 32.43 183.966 32.235 184.356 32.073C184.752 31.911 185.154 31.83 185.562 31.83C185.79 31.83 185.985 31.839 186.147 31.857C186.315 31.875 186.438 31.908 186.516 31.956V33.9C186.426 33.852 186.288 33.801 186.102 33.747C185.922 33.693 185.628 33.666 185.22 33.666C184.848 33.666 184.512 33.72 184.212 33.828C183.918 33.93 183.66 34.056 183.438 34.206C183.216 34.356 183.036 34.5 182.898 34.638ZM180.936 42V31.992H182.7L182.844 33.27L183.006 34.026V42H180.936ZM190.158 34.638L190.032 33.27C190.122 33.084 190.311 32.88 190.599 32.658C190.887 32.43 191.226 32.235 191.616 32.073C192.012 31.911 192.414 31.83 192.822 31.83C193.05 31.83 193.245 31.839 193.407 31.857C193.575 31.875 193.698 31.908 193.776 31.956V33.9C193.686 33.852 193.548 33.801 193.362 33.747C193.182 33.693 192.888 33.666 192.48 33.666C192.108 33.666 191.772 33.72 191.472 33.828C191.178 33.93 190.92 34.056 190.698 34.206C190.476 34.356 190.296 34.5 190.158 34.638ZM188.196 42V31.992H189.96L190.104 33.27L190.266 34.026V42H188.196ZM195.708 42V31.992H197.778V42H195.708ZM196.626 30.219C196.278 30.219 195.972 30.108 195.708 29.886C195.45 29.664 195.321 29.361 195.321 28.977C195.321 28.713 195.393 28.476 195.537 28.266C195.687 28.05 195.876 27.879 196.104 27.753C196.332 27.621 196.569 27.555 196.815 27.555C197.241 27.555 197.562 27.675 197.778 27.915C197.994 28.155 198.102 28.449 198.102 28.797C198.102 29.211 197.952 29.553 197.652 29.823C197.358 30.087 197.016 30.219 196.626 30.219ZM204.778 42.144C203.338 42.144 202.228 41.688 201.448 40.776C200.668 39.864 200.278 38.598 200.278 36.978C200.278 36.006 200.449 35.136 200.791 34.368C201.139 33.6 201.649 32.991 202.321 32.541C202.999 32.091 203.83 31.86 204.814 31.848C205.318 31.836 205.792 31.908 206.236 32.064C206.68 32.22 207.073 32.457 207.415 32.775C207.757 33.087 208.027 33.483 208.225 33.963C208.429 34.443 208.54 35.004 208.558 35.646C208.558 36.024 208.555 36.363 208.549 36.663C208.543 36.957 208.516 37.218 208.468 37.446H201.484L201.664 36.132H206.614C206.644 35.652 206.614 35.199 206.524 34.773C206.44 34.341 206.254 33.993 205.966 33.729C205.684 33.459 205.264 33.324 204.706 33.324C204.238 33.324 203.818 33.456 203.446 33.72C203.074 33.978 202.786 34.416 202.582 35.034C202.378 35.652 202.294 36.498 202.33 37.572C202.366 38.328 202.519 38.925 202.789 39.363C203.059 39.801 203.413 40.113 203.851 40.299C204.289 40.485 204.778 40.578 205.318 40.578C205.546 40.578 205.825 40.554 206.155 40.506C206.485 40.452 206.803 40.386 207.109 40.308C207.421 40.224 207.658 40.134 207.82 40.038L208.216 41.226C207.994 41.406 207.691 41.565 207.307 41.703C206.929 41.841 206.518 41.949 206.074 42.027C205.63 42.105 205.198 42.144 204.778 42.144ZM211.054 42V27.366H213.142V42H211.054ZM217.793 42C218.099 41.352 218.396 40.704 218.684 40.056C218.978 39.402 219.263 38.748 219.539 38.094C219.815 37.44 220.085 36.786 220.349 36.132C220.613 35.478 220.871 34.827 221.123 34.179C221.375 33.531 221.624 32.889 221.87 32.253C222.116 31.611 222.356 30.978 222.59 30.354L216.011 30.336L216.02 28.617H224.435L224.894 29.229L220.16 42H217.793ZM231.821 42.144C230.939 42.144 230.186 41.952 229.562 41.568C228.944 41.184 228.443 40.665 228.059 40.011C227.675 39.351 227.396 38.601 227.222 37.761C227.054 36.915 226.976 36.033 226.988 35.115C227.006 33.753 227.237 32.574 227.681 31.578C228.125 30.576 228.722 29.802 229.472 29.256C230.228 28.71 231.083 28.437 232.037 28.437C232.937 28.437 233.69 28.614 234.296 28.968C234.908 29.322 235.397 29.811 235.763 30.435C236.129 31.053 236.39 31.77 236.546 32.586C236.702 33.396 236.777 34.263 236.771 35.187C236.759 36.567 236.546 37.779 236.132 38.823C235.718 39.867 235.142 40.683 234.404 41.271C233.666 41.853 232.805 42.144 231.821 42.144ZM231.884 40.254C232.784 40.272 233.459 39.861 233.909 39.021C234.359 38.181 234.584 36.939 234.584 35.295C234.584 34.335 234.491 33.483 234.305 32.739C234.119 31.995 233.828 31.41 233.432 30.984C233.042 30.552 232.538 30.336 231.92 30.336C231.032 30.336 230.354 30.744 229.886 31.56C229.424 32.376 229.193 33.537 229.193 35.043C229.193 35.973 229.289 36.831 229.481 37.617C229.673 38.403 229.967 39.036 230.363 39.516C230.759 39.99 231.266 40.236 231.884 40.254ZM241.049 42C241.355 41.352 241.652 40.704 241.94 40.056C242.234 39.402 242.519 38.748 242.795 38.094C243.071 37.44 243.341 36.786 243.605 36.132C243.869 35.478 244.127 34.827 244.379 34.179C244.631 33.531 244.88 32.889 245.126 32.253C245.372 31.611 245.612 30.978 245.846 30.354L239.267 30.336L239.276 28.617H247.691L248.15 29.229L243.416 42H241.049ZM257.137 46.176C256.081 46.176 255.091 46.014 254.167 45.69C253.249 45.372 252.442 44.886 251.746 44.232C251.056 43.578 250.516 42.756 250.126 41.766C249.736 40.77 249.541 39.6 249.541 38.256C249.541 36.774 249.775 35.433 250.243 34.233C250.711 33.027 251.362 31.992 252.196 31.128C253.036 30.264 254.014 29.601 255.13 29.139C256.246 28.677 257.449 28.446 258.739 28.446C260.059 28.446 261.223 28.689 262.231 29.175C263.239 29.655 264.028 30.363 264.598 31.299C265.168 32.235 265.453 33.378 265.453 34.728C265.453 35.892 265.309 36.927 265.021 37.833C264.739 38.739 264.355 39.504 263.869 40.128C263.389 40.752 262.849 41.226 262.249 41.55C261.649 41.874 261.037 42.036 260.413 42.036C259.963 42.036 259.627 41.895 259.405 41.613C259.189 41.331 259.063 40.926 259.027 40.398C259.003 40.116 259.012 39.738 259.054 39.264C259.102 38.784 259.243 38.136 259.477 37.32C259.489 37.32 259.528 37.32 259.594 37.32C259.666 37.32 259.735 37.32 259.801 37.32C259.873 37.32 259.915 37.32 259.927 37.32C259.741 37.866 259.513 38.418 259.243 38.976C258.973 39.528 258.664 40.035 258.316 40.497C257.968 40.959 257.584 41.331 257.164 41.613C256.744 41.895 256.291 42.036 255.805 42.036C255.409 42.036 255.013 41.898 254.617 41.622C254.227 41.34 253.906 40.914 253.654 40.344C253.402 39.774 253.285 39.048 253.303 38.166C253.315 37.56 253.42 36.936 253.618 36.294C253.822 35.646 254.122 35.046 254.518 34.494C254.92 33.942 255.43 33.495 256.048 33.153C256.666 32.811 257.401 32.64 258.253 32.64C258.631 32.64 259.003 32.676 259.369 32.748C259.741 32.82 260.053 32.946 260.305 33.126L261.835 32.838C261.757 33.156 261.667 33.534 261.565 33.972C261.463 34.41 261.358 34.875 261.25 35.367C261.148 35.853 261.049 36.339 260.953 36.825C260.863 37.311 260.785 37.764 260.719 38.184C260.605 38.976 260.554 39.573 260.566 39.975C260.584 40.377 260.695 40.578 260.899 40.578C261.223 40.578 261.556 40.437 261.898 40.155C262.246 39.873 262.567 39.483 262.861 38.985C263.155 38.481 263.392 37.893 263.572 37.221C263.758 36.543 263.851 35.814 263.851 35.034C263.851 33.972 263.71 33.099 263.428 32.415C263.146 31.731 262.756 31.197 262.258 30.813C261.76 30.429 261.184 30.162 260.53 30.012C259.876 29.856 259.177 29.778 258.433 29.778C257.443 29.778 256.507 29.976 255.625 30.372C254.749 30.768 253.975 31.335 253.303 32.073C252.631 32.805 252.103 33.681 251.719 34.701C251.335 35.721 251.143 36.852 251.143 38.094C251.143 39.342 251.314 40.398 251.656 41.262C251.998 42.126 252.46 42.819 253.042 43.341C253.63 43.869 254.293 44.25 255.031 44.484C255.769 44.724 256.531 44.844 257.317 44.844C257.929 44.844 258.472 44.799 258.946 44.709C259.42 44.625 259.825 44.52 260.161 44.394C260.503 44.274 260.779 44.16 260.989 44.052L261.331 45.24C260.947 45.48 260.374 45.696 259.612 45.888C258.856 46.08 258.031 46.176 257.137 46.176ZM256.237 40.416C256.483 40.416 256.747 40.284 257.029 40.02C257.311 39.75 257.59 39.399 257.866 38.967C258.148 38.529 258.409 38.055 258.649 37.545C258.895 37.029 259.102 36.516 259.27 36.006C259.438 35.496 259.549 35.04 259.603 34.638C259.459 34.41 259.234 34.251 258.928 34.161C258.628 34.071 258.343 34.026 258.073 34.026C257.599 34.026 257.176 34.14 256.804 34.368C256.438 34.59 256.126 34.89 255.868 35.268C255.616 35.64 255.418 36.051 255.274 36.501C255.136 36.951 255.061 37.398 255.049 37.842C255.025 38.604 255.106 39.225 255.292 39.705C255.484 40.179 255.799 40.416 256.237 40.416ZM271.482 46.536C270.162 46.536 269.118 46.293 268.35 45.807C267.582 45.321 267.198 44.58 267.198 43.584C267.198 43.212 267.288 42.879 267.468 42.585C267.648 42.297 267.87 42.054 268.134 41.856C268.398 41.658 268.656 41.508 268.908 41.406L270.24 41.604C270.114 41.718 269.973 41.838 269.817 41.964C269.661 42.09 269.523 42.255 269.403 42.459C269.289 42.669 269.232 42.948 269.232 43.296C269.232 43.692 269.31 44.028 269.466 44.304C269.622 44.586 269.868 44.799 270.204 44.943C270.546 45.093 270.996 45.168 271.554 45.168C272.07 45.168 272.547 45.111 272.985 44.997C273.423 44.889 273.774 44.721 274.038 44.493C274.302 44.271 274.434 43.992 274.434 43.656C274.434 43.302 274.368 43.002 274.236 42.756C274.11 42.51 273.87 42.321 273.516 42.189C273.168 42.063 272.658 42 271.986 42H270.996C270.654 42 270.351 41.994 270.087 41.982C269.823 41.964 269.586 41.928 269.376 41.874C269.304 41.856 269.235 41.826 269.169 41.784C269.103 41.736 269.034 41.7 268.962 41.676C268.512 41.502 268.209 41.262 268.053 40.956C267.903 40.65 267.828 40.344 267.828 40.038C267.828 39.804 267.888 39.567 268.008 39.327C268.134 39.081 268.308 38.847 268.53 38.625C268.758 38.397 269.022 38.196 269.322 38.022L270.609 38.346C270.393 38.43 270.195 38.577 270.015 38.787C269.841 38.991 269.754 39.21 269.754 39.444C269.754 39.81 269.841 40.059 270.015 40.191C270.195 40.317 270.492 40.38 270.906 40.38H272.706C273.48 40.38 274.11 40.461 274.596 40.623C275.082 40.785 275.457 41.004 275.721 41.28C275.985 41.55 276.165 41.85 276.261 42.18C276.363 42.516 276.414 42.858 276.414 43.206C276.414 43.728 276.285 44.193 276.027 44.601C275.769 45.015 275.412 45.366 274.956 45.654C274.5 45.942 273.975 46.161 273.381 46.311C272.787 46.461 272.154 46.536 271.482 46.536ZM271.419 38.58C270.669 38.58 269.994 38.442 269.394 38.166C268.794 37.884 268.32 37.497 267.972 37.005C267.624 36.507 267.45 35.934 267.45 35.286C267.45 34.506 267.624 33.864 267.972 33.36C268.32 32.856 268.797 32.481 269.403 32.235C270.009 31.989 270.693 31.86 271.455 31.848C272.199 31.83 272.88 31.938 273.498 32.172C274.116 32.406 274.608 32.772 274.974 33.27C275.346 33.762 275.532 34.398 275.532 35.178C275.532 35.91 275.355 36.531 275.001 37.041C274.647 37.545 274.161 37.929 273.543 38.193C272.925 38.451 272.217 38.58 271.419 38.58ZM271.473 37.23C272.091 37.23 272.583 37.092 272.949 36.816C273.315 36.534 273.498 36.009 273.498 35.241C273.498 34.581 273.339 34.08 273.021 33.738C272.703 33.39 272.22 33.216 271.572 33.216C271.2 33.216 270.855 33.27 270.537 33.378C270.219 33.486 269.964 33.684 269.772 33.972C269.58 34.26 269.484 34.671 269.484 35.205C269.484 35.751 269.64 36.225 269.952 36.627C270.27 37.029 270.777 37.23 271.473 37.23ZM274.425 33.54L273.858 32.703C273.99 32.535 274.251 32.361 274.641 32.181C275.037 32.001 275.469 31.911 275.937 31.911H276.945V33.54H274.425ZM278.728 42V31.992H280.591L280.6 33.054C280.846 32.886 281.152 32.709 281.518 32.523C281.89 32.337 282.292 32.178 282.724 32.046C283.156 31.914 283.588 31.842 284.02 31.83C284.74 31.806 285.319 31.917 285.757 32.163C286.195 32.409 286.513 32.82 286.711 33.396C286.915 33.972 287.017 34.749 287.017 35.727V42H284.947V35.853C284.947 35.307 284.899 34.863 284.803 34.521C284.713 34.173 284.542 33.921 284.29 33.765C284.038 33.609 283.666 33.543 283.174 33.567C282.862 33.573 282.484 33.651 282.04 33.801C281.602 33.945 281.188 34.164 280.798 34.458V42H278.728ZM286.909 34.467L286.468 33.153C286.702 32.955 287.011 32.757 287.395 32.559C287.785 32.361 288.211 32.193 288.673 32.055C289.141 31.911 289.612 31.836 290.086 31.83C290.8 31.818 291.382 31.932 291.832 32.172C292.282 32.412 292.612 32.82 292.822 33.396C293.038 33.966 293.146 34.74 293.146 35.718V42H291.067V35.853C291.067 35.307 291.022 34.863 290.932 34.521C290.848 34.173 290.68 33.921 290.428 33.765C290.182 33.609 289.81 33.543 289.312 33.567C288.964 33.573 288.568 33.66 288.124 33.828C287.68 33.99 287.275 34.203 286.909 34.467ZM298.365 42.144C297.765 42.144 297.231 42.027 296.763 41.793C296.301 41.553 295.935 41.217 295.665 40.785C295.401 40.347 295.269 39.831 295.269 39.237C295.269 38.595 295.44 38.052 295.782 37.608C296.13 37.158 296.595 36.807 297.177 36.555C297.561 36.399 297.978 36.276 298.428 36.186C298.878 36.09 299.328 36.024 299.778 35.988C300.228 35.946 300.645 35.925 301.029 35.925L301.461 36.474L301.029 37.203C300.795 37.203 300.513 37.221 300.183 37.257C299.859 37.287 299.538 37.338 299.22 37.41C298.902 37.476 298.632 37.563 298.41 37.671C298.104 37.809 297.849 37.986 297.645 38.202C297.441 38.418 297.339 38.718 297.339 39.102C297.339 39.606 297.477 39.987 297.753 40.245C298.035 40.503 298.452 40.632 299.004 40.632C299.286 40.632 299.571 40.59 299.859 40.506C300.147 40.422 300.396 40.326 300.606 40.218C300.822 40.11 300.963 40.017 301.029 39.939L301.443 40.38L301.146 41.154C300.882 41.394 300.501 41.619 300.003 41.829C299.505 42.039 298.959 42.144 298.365 42.144ZM303.108 42H301.146V40.506H301.029V34.98C301.029 34.392 300.873 34.005 300.561 33.819C300.255 33.627 299.817 33.531 299.247 33.531C298.869 33.531 298.479 33.57 298.077 33.648C297.675 33.72 297.306 33.813 296.97 33.927C296.634 34.035 296.376 34.146 296.196 34.26L295.71 32.766C295.848 32.682 296.112 32.565 296.502 32.415C296.898 32.265 297.357 32.13 297.879 32.01C298.407 31.884 298.929 31.821 299.445 31.821C300.195 31.821 300.843 31.908 301.389 32.082C301.941 32.256 302.364 32.58 302.658 33.054C302.958 33.522 303.108 34.203 303.108 35.097V42ZM306.116 42V31.992H308.186V42H306.116ZM307.034 30.219C306.686 30.219 306.38 30.108 306.116 29.886C305.858 29.664 305.729 29.361 305.729 28.977C305.729 28.713 305.801 28.476 305.945 28.266C306.095 28.05 306.284 27.879 306.512 27.753C306.74 27.621 306.977 27.555 307.223 27.555C307.649 27.555 307.97 27.675 308.186 27.915C308.402 28.155 308.51 28.449 308.51 28.797C308.51 29.211 308.36 29.553 308.06 29.823C307.766 30.087 307.424 30.219 307.034 30.219ZM311.425 42V27.366H313.513V42H311.425ZM317.741 42.198C317.381 42.198 317.069 42.066 316.805 41.802C316.541 41.532 316.403 41.199 316.391 40.803C316.385 40.509 316.451 40.242 316.589 40.002C316.733 39.762 316.919 39.57 317.147 39.426C317.375 39.282 317.615 39.21 317.867 39.21C318.305 39.21 318.638 39.348 318.866 39.624C319.094 39.9 319.211 40.224 319.217 40.596C319.229 40.896 319.166 41.169 319.028 41.415C318.89 41.655 318.707 41.847 318.479 41.991C318.251 42.129 318.005 42.198 317.741 42.198ZM320.861 37.104C320.861 36.114 321.041 35.223 321.401 34.431C321.761 33.639 322.301 33.012 323.021 32.55C323.741 32.082 324.641 31.848 325.721 31.848C326.351 31.848 326.885 31.905 327.323 32.019C327.761 32.133 328.061 32.244 328.223 32.352L327.899 33.99C327.647 33.816 327.344 33.687 326.99 33.603C326.636 33.513 326.207 33.468 325.703 33.468C325.253 33.468 324.818 33.579 324.398 33.801C323.978 34.017 323.627 34.365 323.345 34.845C323.063 35.325 322.907 35.958 322.877 36.744C322.853 37.572 322.961 38.271 323.201 38.841C323.447 39.405 323.783 39.834 324.209 40.128C324.641 40.416 325.121 40.56 325.649 40.56C326.147 40.56 326.606 40.497 327.026 40.371C327.452 40.245 327.773 40.116 327.989 39.984L328.385 41.19C328.079 41.478 327.647 41.709 327.089 41.883C326.531 42.057 325.937 42.144 325.307 42.144C324.353 42.144 323.546 41.922 322.886 41.478C322.226 41.034 321.722 40.434 321.374 39.678C321.032 38.916 320.861 38.058 320.861 37.104ZM334.231 42.144C333.415 42.144 332.722 42 332.152 41.712C331.582 41.424 331.12 41.031 330.766 40.533C330.412 40.035 330.154 39.465 329.992 38.823C329.836 38.175 329.761 37.494 329.767 36.78C329.785 35.706 329.998 34.803 330.406 34.071C330.814 33.339 331.366 32.787 332.062 32.415C332.758 32.037 333.541 31.848 334.411 31.848C335.503 31.848 336.376 32.097 337.03 32.595C337.69 33.087 338.164 33.741 338.452 34.557C338.746 35.367 338.887 36.246 338.875 37.194C338.857 38.268 338.644 39.174 338.236 39.912C337.834 40.644 337.285 41.199 336.589 41.577C335.899 41.955 335.113 42.144 334.231 42.144ZM334.285 40.677C335.107 40.689 335.725 40.38 336.139 39.75C336.559 39.114 336.769 38.235 336.769 37.113C336.769 36.417 336.685 35.787 336.517 35.223C336.349 34.653 336.085 34.197 335.725 33.855C335.371 33.513 334.915 33.339 334.357 33.333C333.541 33.315 332.926 33.609 332.512 34.215C332.098 34.821 331.891 35.685 331.891 36.807C331.891 37.503 331.975 38.142 332.143 38.724C332.311 39.306 332.572 39.774 332.926 40.128C333.28 40.482 333.733 40.665 334.285 40.677ZM341.253 42V31.992H343.116L343.125 33.054C343.371 32.886 343.677 32.709 344.043 32.523C344.415 32.337 344.817 32.178 345.249 32.046C345.681 31.914 346.113 31.842 346.545 31.83C347.265 31.806 347.844 31.917 348.282 32.163C348.72 32.409 349.038 32.82 349.236 33.396C349.44 33.972 349.542 34.749 349.542 35.727V42H347.472V35.853C347.472 35.307 347.424 34.863 347.328 34.521C347.238 34.173 347.067 33.921 346.815 33.765C346.563 33.609 346.191 33.543 345.699 33.567C345.387 33.573 345.009 33.651 344.565 33.801C344.127 33.945 343.713 34.164 343.323 34.458V42H341.253ZM349.434 34.467L348.993 33.153C349.227 32.955 349.536 32.757 349.92 32.559C350.31 32.361 350.736 32.193 351.198 32.055C351.666 31.911 352.137 31.836 352.611 31.83C353.325 31.818 353.907 31.932 354.357 32.172C354.807 32.412 355.137 32.82 355.347 33.396C355.563 33.966 355.671 34.74 355.671 35.718V42H353.592V35.853C353.592 35.307 353.547 34.863 353.457 34.521C353.373 34.173 353.205 33.921 352.953 33.765C352.707 33.609 352.335 33.543 351.837 33.567C351.489 33.573 351.093 33.66 350.649 33.828C350.205 33.99 349.8 34.203 349.434 34.467Z" fill="black" fill-opacity="0.3"/>
<path d="M50 44.691H60.044V45.681H50V44.691ZM59.8613 44.691H69.6533V45.681H59.8613V44.691ZM69.4766 44.691H79.5206V45.681H69.4766V44.691ZM79.5137 44.691H96.9557V45.681H79.5137V44.691ZM96.9512 44.691H113.301V45.681H96.9512V44.691ZM113.299 44.691H123.343V45.681H113.299V44.691ZM123.336 44.691H136.296V45.681H123.336V44.691ZM136.291 44.691H146.335V45.681H136.291V44.691ZM146.328 44.691H157.848V45.681H146.328V44.691ZM157.842 44.691H168.624V45.681H157.842V44.691ZM168.617 44.691H199.398V45.681H168.617V44.691ZM199.396 44.691H209.44V45.681H199.396V44.691ZM209.434 44.691H214.762V45.681H209.434V44.691ZM214.76 44.691H238.022V45.681H214.76V44.691ZM238.016 44.691H248.996V45.681H238.016V44.691ZM248.281 44.691H267.073V45.681H248.281V44.691ZM266.352 44.691H294.622V45.681H266.352V44.691ZM294.441 44.691H304.503V45.681H294.441V44.691ZM304.496 44.691H309.806V45.681H304.496V44.691ZM309.805 44.691H315.133V45.681H309.805V44.691ZM315.131 44.691H320.486V45.681H315.131V44.691ZM320.141 44.691H339.712V45.681H320.141V44.691ZM339.705 44.691H357.147V45.681H339.705V44.691Z" fill="black" fill-opacity="0.3"/>
<a href="mailto:exempleDeCourriel707@gmail.com">
<rect fill="black" fill-opacity="0" y="0.187" width="307.147" height="22.626"/>
</a>
</svg>
