<svg width="1101" height="151" viewBox="0 0 1101 151" fill="none" xmlns="http://www.w3.org/2000/svg">
<rect x="1" y="92" width="1100" height="59" fill="#A8EDAD"/>
<path d="M11.176 47.576C8.904 47.576 6.808 47.16 4.888 46.328C3 45.464 1.448 44.248 0.232 42.68L4.552 37.496C5.48 38.712 6.456 39.64 7.48 40.28C8.504 40.888 9.608 41.192 10.792 41.192C13.96 41.192 15.544 39.336 15.544 35.624V19.64H3.736V13.4H23.272V35.192C23.272 39.352 22.248 42.456 20.2 44.504C18.152 46.552 15.144 47.576 11.176 47.576ZM47.2728 47.576C44.6168 47.576 42.1528 47.144 39.8808 46.28C37.6408 45.416 35.6888 44.2 34.0247 42.632C32.3928 41.064 31.1128 39.224 30.1848 37.112C29.2888 35 28.8408 32.696 28.8408 30.2C28.8408 27.704 29.2888 25.4 30.1848 23.288C31.1128 21.176 32.4088 19.336 34.0728 17.768C35.7368 16.2 37.6888 14.984 39.9288 14.12C42.1688 13.256 44.6008 12.824 47.2248 12.824C49.8808 12.824 52.3127 13.256 54.5208 14.12C56.7608 14.984 58.6968 16.2 60.3288 17.768C61.9928 19.336 63.2888 21.176 64.2168 23.288C65.1448 25.368 65.6088 27.672 65.6088 30.2C65.6088 32.696 65.1448 35.016 64.2168 37.16C63.2888 39.272 61.9928 41.112 60.3288 42.68C58.6968 44.216 56.7608 45.416 54.5208 46.28C52.3127 47.144 49.8967 47.576 47.2728 47.576ZM47.2248 40.952C48.7288 40.952 50.1048 40.696 51.3528 40.184C52.6328 39.672 53.7528 38.936 54.7128 37.976C55.6728 37.016 56.4088 35.88 56.9208 34.568C57.4648 33.256 57.7368 31.8 57.7368 30.2C57.7368 28.6 57.4648 27.144 56.9208 25.832C56.4088 24.52 55.6728 23.384 54.7128 22.424C53.7848 21.464 52.6808 20.728 51.4008 20.216C50.1208 19.704 48.7288 19.448 47.2248 19.448C45.7208 19.448 44.3288 19.704 43.0488 20.216C41.8008 20.728 40.6968 21.464 39.7368 22.424C38.7768 23.384 38.0248 24.52 37.4808 25.832C36.9688 27.144 36.7128 28.6 36.7128 30.2C36.7128 31.768 36.9688 33.224 37.4808 34.568C38.0248 35.88 38.7608 37.016 39.6888 37.976C40.6488 38.936 41.7688 39.672 43.0488 40.184C44.3288 40.696 45.7208 40.952 47.2248 40.952ZM71.4528 47V13.4H79.2288V47H71.4528ZM87.2028 47V13.4H93.6348L113.459 37.592H110.339V13.4H118.019V47H111.635L91.7628 22.808H94.8828V47H87.2028ZM125.968 47V13.4H141.232C144.88 13.4 148.096 14.104 150.88 15.512C153.664 16.888 155.84 18.824 157.408 21.32C158.976 23.816 159.76 26.776 159.76 30.2C159.76 33.592 158.976 36.552 157.408 39.08C155.84 41.576 153.664 43.528 150.88 44.936C148.096 46.312 144.88 47 141.232 47H125.968ZM133.744 40.616H140.848C143.088 40.616 145.024 40.2 146.656 39.368C148.32 38.504 149.6 37.288 150.496 35.72C151.424 34.152 151.888 32.312 151.888 30.2C151.888 28.056 151.424 26.216 150.496 24.68C149.6 23.112 148.32 21.912 146.656 21.08C145.024 20.216 143.088 19.784 140.848 19.784H133.744V40.616ZM165.625 47V13.4H180.169C183.177 13.4 185.769 13.896 187.945 14.888C190.121 15.848 191.801 17.24 192.985 19.064C194.169 20.888 194.761 23.064 194.761 25.592C194.761 28.088 194.169 30.248 192.985 32.072C191.801 33.864 190.121 35.24 187.945 36.2C185.769 37.16 183.177 37.64 180.169 37.64H169.945L173.401 34.232V47H165.625ZM186.985 47L178.585 34.808H186.889L195.385 47H186.985ZM173.401 35.096L169.945 31.448H179.737C182.137 31.448 183.929 30.936 185.113 29.912C186.297 28.856 186.889 27.416 186.889 25.592C186.889 23.736 186.297 22.296 185.113 21.272C183.929 20.248 182.137 19.736 179.737 19.736H169.945L173.401 16.04V35.096ZM208.074 26.936H224.25V32.984H208.074V26.936ZM208.65 40.76H226.938V47H200.922V13.4H226.314V19.64H208.65V40.76ZM246.718 47V13.4H253.15L272.974 37.592H269.854V13.4H277.534V47H271.15L251.278 22.808H254.398V47H246.718ZM301.804 47.576C299.148 47.576 296.684 47.144 294.412 46.28C292.172 45.416 290.22 44.2 288.556 42.632C286.924 41.064 285.644 39.224 284.716 37.112C283.82 35 283.372 32.696 283.372 30.2C283.372 27.704 283.82 25.4 284.716 23.288C285.644 21.176 286.94 19.336 288.604 17.768C290.268 16.2 292.22 14.984 294.46 14.12C296.7 13.256 299.132 12.824 301.756 12.824C304.412 12.824 306.844 13.256 309.052 14.12C311.292 14.984 313.228 16.2 314.86 17.768C316.524 19.336 317.82 21.176 318.748 23.288C319.676 25.368 320.14 27.672 320.14 30.2C320.14 32.696 319.676 35.016 318.748 37.16C317.82 39.272 316.524 41.112 314.86 42.68C313.228 44.216 311.292 45.416 309.052 46.28C306.844 47.144 304.428 47.576 301.804 47.576ZM301.756 40.952C303.26 40.952 304.636 40.696 305.884 40.184C307.164 39.672 308.284 38.936 309.244 37.976C310.204 37.016 310.94 35.88 311.452 34.568C311.996 33.256 312.268 31.8 312.268 30.2C312.268 28.6 311.996 27.144 311.452 25.832C310.94 24.52 310.204 23.384 309.244 22.424C308.316 21.464 307.212 20.728 305.932 20.216C304.652 19.704 303.26 19.448 301.756 19.448C300.252 19.448 298.86 19.704 297.58 20.216C296.332 20.728 295.228 21.464 294.268 22.424C293.308 23.384 292.556 24.52 292.012 25.832C291.5 27.144 291.244 28.6 291.244 30.2C291.244 31.768 291.5 33.224 292.012 34.568C292.556 35.88 293.292 37.016 294.22 37.976C295.18 38.936 296.3 39.672 297.58 40.184C298.86 40.696 300.252 40.952 301.756 40.952ZM332.475 47V19.736H321.723V13.4H351.003V19.736H340.251V47H332.475ZM355.187 47V13.4H369.731C372.739 13.4 375.331 13.896 377.507 14.888C379.683 15.848 381.363 17.24 382.547 19.064C383.731 20.888 384.323 23.064 384.323 25.592C384.323 28.088 383.731 30.248 382.547 32.072C381.363 33.864 379.683 35.24 377.507 36.2C375.331 37.16 372.739 37.64 369.731 37.64H359.507L362.963 34.232V47H355.187ZM376.547 47L368.147 34.808H376.451L384.947 47H376.547ZM362.963 35.096L359.507 31.448H369.299C371.699 31.448 373.491 30.936 374.675 29.912C375.859 28.856 376.451 27.416 376.451 25.592C376.451 23.736 375.859 22.296 374.675 21.272C373.491 20.248 371.699 19.736 369.299 19.736H359.507L362.963 16.04V35.096ZM397.636 26.936H413.812V32.984H397.636V26.936ZM398.212 40.76H416.5V47H390.484V13.4H415.876V19.64H398.212V40.76ZM436.281 47V13.4H444.057V47H436.281ZM452.031 47V13.4H458.463L478.287 37.592H475.167V13.4H482.847V47H476.463L456.591 22.808H459.711V47H452.031ZM497.997 28.52H514.125V34.76H497.997V28.52ZM498.573 47H490.797V13.4H516.189V19.64H498.573V47ZM537.445 47.576C534.789 47.576 532.325 47.144 530.053 46.28C527.813 45.416 525.861 44.2 524.197 42.632C522.565 41.064 521.285 39.224 520.357 37.112C519.461 35 519.013 32.696 519.013 30.2C519.013 27.704 519.461 25.4 520.357 23.288C521.285 21.176 522.581 19.336 524.245 17.768C525.909 16.2 527.861 14.984 530.101 14.12C532.341 13.256 534.773 12.824 537.397 12.824C540.053 12.824 542.485 13.256 544.693 14.12C546.933 14.984 548.869 16.2 550.501 17.768C552.165 19.336 553.461 21.176 554.389 23.288C555.317 25.368 555.781 27.672 555.781 30.2C555.781 32.696 555.317 35.016 554.389 37.16C553.461 39.272 552.165 41.112 550.501 42.68C548.869 44.216 546.933 45.416 544.693 46.28C542.485 47.144 540.069 47.576 537.445 47.576ZM537.397 40.952C538.901 40.952 540.277 40.696 541.525 40.184C542.805 39.672 543.925 38.936 544.885 37.976C545.845 37.016 546.581 35.88 547.093 34.568C547.637 33.256 547.909 31.8 547.909 30.2C547.909 28.6 547.637 27.144 547.093 25.832C546.581 24.52 545.845 23.384 544.885 22.424C543.957 21.464 542.853 20.728 541.573 20.216C540.293 19.704 538.901 19.448 537.397 19.448C535.893 19.448 534.501 19.704 533.221 20.216C531.973 20.728 530.869 21.464 529.909 22.424C528.949 23.384 528.197 24.52 527.653 25.832C527.141 27.144 526.885 28.6 526.885 30.2C526.885 31.768 527.141 33.224 527.653 34.568C528.197 35.88 528.933 37.016 529.861 37.976C530.821 38.936 531.941 39.672 533.221 40.184C534.501 40.696 535.893 40.952 537.397 40.952ZM561.625 47V13.4H569.401V40.664H586.249V47H561.625ZM597.745 26.936H613.921V32.984H597.745V26.936ZM598.321 40.76H616.609V47H590.593V13.4H615.985V19.64H598.321V40.76ZM629.757 47V19.736H619.005V13.4H648.285V19.736H637.533V47H629.757ZM659.897 47V19.736H649.145V13.4H678.425V19.736H667.673V47H659.897ZM682.609 47V13.4H697.153C700.161 13.4 702.753 13.896 704.929 14.888C707.105 15.848 708.785 17.24 709.969 19.064C711.153 20.888 711.745 23.064 711.745 25.592C711.745 28.088 711.153 30.248 709.969 32.072C708.785 33.864 707.105 35.24 704.929 36.2C702.753 37.16 700.161 37.64 697.153 37.64H686.929L690.385 34.232V47H682.609ZM703.969 47L695.569 34.808H703.873L712.369 47H703.969ZM690.385 35.096L686.929 31.448H696.721C699.121 31.448 700.913 30.936 702.097 29.912C703.281 28.856 703.873 27.416 703.873 25.592C703.873 23.736 703.281 22.296 702.097 21.272C700.913 20.248 699.121 19.736 696.721 19.736H686.929L690.385 16.04V35.096ZM725.058 26.936H741.234V32.984H725.058V26.936ZM725.634 40.76H743.922V47H717.906V13.4H743.298V19.64H725.634V40.76ZM763.703 47V13.4H778.967C782.615 13.4 785.831 14.104 788.615 15.512C791.399 16.888 793.575 18.824 795.143 21.32C796.711 23.816 797.495 26.776 797.495 30.2C797.495 33.592 796.711 36.552 795.143 39.08C793.575 41.576 791.399 43.528 788.615 44.936C785.831 46.312 782.615 47 778.967 47H763.703ZM771.479 40.616H778.583C780.823 40.616 782.759 40.2 784.391 39.368C786.055 38.504 787.335 37.288 788.231 35.72C789.159 34.152 789.623 32.312 789.623 30.2C789.623 28.056 789.159 26.216 788.231 24.68C787.335 23.112 786.055 21.912 784.391 21.08C782.759 20.216 780.823 19.784 778.583 19.784H771.479V40.616ZM810.511 26.936H826.687V32.984H810.511V26.936ZM811.087 40.76H829.375V47H803.359V13.4H828.751V19.64H811.087V40.76ZM814.591 10.664L805.903 3.752H813.967L820.447 10.664H814.591ZM846.602 47.576C843.914 47.576 841.338 47.224 838.874 46.52C836.41 45.784 834.426 44.84 832.922 43.688L835.562 37.832C837.002 38.856 838.698 39.704 840.65 40.376C842.634 41.016 844.634 41.336 846.65 41.336C848.186 41.336 849.418 41.192 850.346 40.904C851.306 40.584 852.01 40.152 852.458 39.608C852.906 39.064 853.13 38.44 853.13 37.736C853.13 36.84 852.778 36.136 852.074 35.624C851.37 35.08 850.442 34.648 849.29 34.328C848.138 33.976 846.858 33.656 845.45 33.368C844.074 33.048 842.682 32.664 841.274 32.216C839.898 31.768 838.634 31.192 837.482 30.488C836.33 29.784 835.386 28.856 834.65 27.704C833.946 26.552 833.594 25.08 833.594 23.288C833.594 21.368 834.106 19.624 835.13 18.056C836.186 16.456 837.754 15.192 839.834 14.264C841.946 13.304 844.586 12.824 847.754 12.824C849.866 12.824 851.946 13.08 853.994 13.592C856.042 14.072 857.85 14.808 859.418 15.8L857.018 21.704C855.45 20.808 853.882 20.152 852.314 19.736C850.746 19.288 849.21 19.064 847.706 19.064C846.202 19.064 844.97 19.24 844.01 19.592C843.05 19.944 842.362 20.408 841.946 20.984C841.53 21.528 841.322 22.168 841.322 22.904C841.322 23.768 841.674 24.472 842.378 25.016C843.082 25.528 844.01 25.944 845.162 26.264C846.314 26.584 847.578 26.904 848.954 27.224C850.362 27.544 851.754 27.912 853.13 28.328C854.538 28.744 855.818 29.304 856.97 30.008C858.122 30.712 859.05 31.64 859.754 32.792C860.49 33.944 860.858 35.4 860.858 37.16C860.858 39.048 860.33 40.776 859.274 42.344C858.218 43.912 856.634 45.176 854.522 46.136C852.442 47.096 849.802 47.576 846.602 47.576Z" fill="black"/>
<path d="M419.968 128V60.8H432.832L461.44 108.224H454.624L482.752 60.8H495.52L495.712 128H481.12L481.024 83.168H483.712L461.248 120.896H454.24L431.296 83.168H434.56V128H419.968ZM502.823 128L532.776 60.8H548.136L578.184 128H561.864L537.288 68.672H543.432L518.76 128H502.823ZM517.799 113.6L521.928 101.792H556.488L560.712 113.6H517.799ZM585.156 128V60.8H600.708V128H585.156ZM616.656 128V60.8H629.52L669.168 109.184H662.927V60.8H678.288V128H665.52L625.776 79.616H632.016V128H616.656ZM708.107 128V73.472H686.603V60.8H745.163V73.472H723.659V128H708.107ZM767.835 87.872H800.187V99.968H767.835V87.872ZM768.987 115.52H805.562V128H753.531V60.8H804.315V73.28H768.987V115.52ZM817.937 128V60.8H830.801L870.449 109.184H864.209V60.8H879.569V128H866.801L827.057 79.616H833.297V128H817.937ZM886.636 128L916.588 60.8H931.948L961.996 128H945.676L921.1 68.672H927.244L902.572 128H886.636ZM901.612 113.6L905.74 101.792H940.3L944.524 113.6H901.612ZM968.968 128V60.8H981.832L1021.48 109.184H1015.24V60.8H1030.6V128H1017.83L978.088 79.616H984.328V128H968.968ZM1060.42 128V73.472H1038.92V60.8H1097.48V73.472H1075.97V128H1060.42Z" fill="#184D61"/>
</svg>
