<svg width="841" height="104" viewBox="0 0 841 104" fill="none" xmlns="http://www.w3.org/2000/svg">
<g clip-path="url(#clip0_349_47)">
<rect x="91" y="52" width="750" height="52" fill="#194657"/>
<path d="M20.52 87V35.88H0.36V24H55.26V35.88H35.1V87H20.52ZM76.5148 49.38H106.845V60.72H76.5148V49.38ZM77.5948 75.3H111.885V87H63.1048V24H110.715V35.7H77.5948V75.3ZM78.7648 18.87L90.9148 5.91H106.035L89.7448 18.87H78.7648ZM123.486 87V24H135.546L162.366 68.46H155.976L182.346 24H194.316L194.496 87H180.816L180.726 44.97H183.246L162.186 80.34H155.616L134.106 44.97H137.166V87H123.486ZM240.043 88.08C235.063 88.08 230.443 87.27 226.183 85.65C221.983 84.03 218.323 81.75 215.203 78.81C212.143 75.87 209.743 72.42 208.003 68.46C206.323 64.5 205.483 60.18 205.483 55.5C205.483 50.82 206.323 46.5 208.003 42.54C209.743 38.58 212.173 35.13 215.293 32.19C218.413 29.25 222.073 26.97 226.273 25.35C230.473 23.73 235.033 22.92 239.953 22.92C244.933 22.92 249.493 23.73 253.633 25.35C257.833 26.97 261.463 29.25 264.523 32.19C267.643 35.13 270.073 38.58 271.813 42.54C273.553 46.44 274.423 50.76 274.423 55.5C274.423 60.18 273.553 64.53 271.813 68.55C270.073 72.51 267.643 75.96 264.523 78.9C261.463 81.78 257.833 84.03 253.633 85.65C249.493 87.27 244.963 88.08 240.043 88.08ZM239.953 75.66C242.773 75.66 245.353 75.18 247.693 74.22C250.093 73.26 252.193 71.88 253.993 70.08C255.793 68.28 257.173 66.15 258.133 63.69C259.153 61.23 259.663 58.5 259.663 55.5C259.663 52.5 259.153 49.77 258.133 47.31C257.173 44.85 255.793 42.72 253.993 40.92C252.253 39.12 250.183 37.74 247.783 36.78C245.383 35.82 242.773 35.34 239.953 35.34C237.133 35.34 234.523 35.82 232.123 36.78C229.783 37.74 227.713 39.12 225.913 40.92C224.113 42.72 222.703 44.85 221.683 47.31C220.723 49.77 220.243 52.5 220.243 55.5C220.243 58.44 220.723 61.17 221.683 63.69C222.703 66.15 224.083 68.28 225.823 70.08C227.623 71.88 229.723 73.26 232.123 74.22C234.523 75.18 237.133 75.66 239.953 75.66ZM285.38 87V24H299.96V87H285.38ZM345.331 88.08C340.351 88.08 335.761 87.3 331.561 85.74C327.421 84.12 323.791 81.84 320.671 78.9C317.611 75.96 315.211 72.51 313.471 68.55C311.791 64.59 310.951 60.24 310.951 55.5C310.951 50.76 311.791 46.41 313.471 42.45C315.211 38.49 317.641 35.04 320.761 32.1C323.881 29.16 327.541 26.91 331.741 25.35C335.941 23.73 340.561 22.92 345.601 22.92C351.181 22.92 356.191 23.85 360.631 25.71C365.131 27.57 368.911 30.27 371.971 33.81L362.611 42.45C360.331 40.05 357.841 38.28 355.141 37.14C352.441 35.94 349.501 35.34 346.321 35.34C343.261 35.34 340.471 35.82 337.951 36.78C335.431 37.74 333.241 39.12 331.381 40.92C329.581 42.72 328.171 44.85 327.151 47.31C326.191 49.77 325.711 52.5 325.711 55.5C325.711 58.44 326.191 61.14 327.151 63.6C328.171 66.06 329.581 68.22 331.381 70.08C333.241 71.88 335.401 73.26 337.861 74.22C340.381 75.18 343.141 75.66 346.141 75.66C349.021 75.66 351.811 75.21 354.511 74.31C357.271 73.35 359.941 71.76 362.521 69.54L370.801 80.07C367.381 82.65 363.391 84.63 358.831 86.01C354.331 87.39 349.831 88.08 345.331 88.08ZM357.481 78.18V54.51H370.801V80.07L357.481 78.18ZM384.345 87V24H396.405L433.575 69.36H427.725V24H442.125V87H430.155L392.895 41.64H398.745V87H384.345ZM448.751 87L476.831 24H491.231L519.401 87H504.101L481.061 31.38H486.821L463.691 87H448.751ZM462.791 73.5L466.661 62.43H499.061L503.021 73.5H462.791ZM555.478 88.08C550.498 88.08 545.908 87.3 541.708 85.74C537.568 84.12 533.938 81.84 530.818 78.9C527.758 75.96 525.358 72.51 523.618 68.55C521.938 64.59 521.098 60.24 521.098 55.5C521.098 50.76 521.938 46.41 523.618 42.45C525.358 38.49 527.788 35.04 530.908 32.1C534.028 29.16 537.688 26.91 541.888 25.35C546.088 23.73 550.708 22.92 555.748 22.92C561.328 22.92 566.338 23.85 570.778 25.71C575.278 27.57 579.058 30.27 582.118 33.81L572.758 42.45C570.478 40.05 567.988 38.28 565.288 37.14C562.588 35.94 559.648 35.34 556.468 35.34C553.408 35.34 550.618 35.82 548.098 36.78C545.578 37.74 543.388 39.12 541.528 40.92C539.728 42.72 538.318 44.85 537.298 47.31C536.338 49.77 535.858 52.5 535.858 55.5C535.858 58.44 536.338 61.14 537.298 63.6C538.318 66.06 539.728 68.22 541.528 70.08C543.388 71.88 545.548 73.26 548.008 74.22C550.528 75.18 553.288 75.66 556.288 75.66C559.168 75.66 561.958 75.21 564.658 74.31C567.418 73.35 570.088 71.76 572.668 69.54L580.948 80.07C577.528 82.65 573.538 84.63 568.978 86.01C564.478 87.39 559.978 88.08 555.478 88.08ZM567.628 78.18V54.51H580.948V80.07L567.628 78.18ZM607.901 49.38H638.231V60.72H607.901V49.38ZM608.981 75.3H643.271V87H594.491V24H642.101V35.7H608.981V75.3ZM675.572 88.08C670.532 88.08 665.702 87.42 661.082 86.1C656.462 84.72 652.742 82.95 649.922 80.79L654.872 69.81C657.572 71.73 660.752 73.32 664.412 74.58C668.132 75.78 671.882 76.38 675.662 76.38C678.542 76.38 680.852 76.11 682.592 75.57C684.392 74.97 685.712 74.16 686.552 73.14C687.392 72.12 687.812 70.95 687.812 69.63C687.812 67.95 687.152 66.63 685.832 65.67C684.512 64.65 682.772 63.84 680.612 63.24C678.452 62.58 676.052 61.98 673.412 61.44C670.832 60.84 668.222 60.12 665.582 59.28C663.002 58.44 660.632 57.36 658.472 56.04C656.312 54.72 654.542 52.98 653.162 50.82C651.842 48.66 651.182 45.9 651.182 42.54C651.182 38.94 652.142 35.67 654.062 32.73C656.042 29.73 658.982 27.36 662.882 25.62C666.842 23.82 671.792 22.92 677.732 22.92C681.692 22.92 685.592 23.4 689.432 24.36C693.272 25.26 696.662 26.64 699.602 28.5L695.102 39.57C692.162 37.89 689.222 36.66 686.282 35.88C683.342 35.04 680.462 34.62 677.642 34.62C674.822 34.62 672.512 34.95 670.712 35.61C668.912 36.27 667.622 37.14 666.842 38.22C666.062 39.24 665.672 40.44 665.672 41.82C665.672 43.44 666.332 44.76 667.652 45.78C668.972 46.74 670.712 47.52 672.872 48.12C675.032 48.72 677.402 49.32 679.982 49.92C682.622 50.52 685.232 51.21 687.812 51.99C690.452 52.77 692.852 53.82 695.012 55.14C697.172 56.46 698.912 58.2 700.232 60.36C701.612 62.52 702.302 65.25 702.302 68.55C702.302 72.09 701.312 75.33 699.332 78.27C697.352 81.21 694.382 83.58 690.422 85.38C686.522 87.18 681.572 88.08 675.572 88.08Z" fill="white"/>
</g>
<rect x="0.5" y="0.5" width="840" height="103" stroke="black"/>
<defs>
<clipPath id="clip0_349_47">
<rect width="841" height="104" fill="white"/>
</clipPath>
</defs>
</svg>
