<svg width="1052" height="264" viewBox="0 0 1052 264" fill="none" xmlns="http://www.w3.org/2000/svg">
<rect y="38" width="462" height="74" fill="#59B1D3"/>
<rect x="264" y="86" width="690" height="64" fill="#A8EDAD"/>
<path d="M37.064 92L22.568 58.4H30.968L43.64 88.16H38.696L51.56 58.4H59.288L44.744 92H37.064ZM78.0384 92.576C75.3824 92.576 72.9184 92.144 70.6464 91.28C68.4064 90.416 66.4544 89.2 64.7904 87.632C63.1584 86.064 61.8784 84.224 60.9504 82.112C60.0544 80 59.6064 77.696 59.6064 75.2C59.6064 72.704 60.0544 70.4 60.9504 68.288C61.8784 66.176 63.1744 64.336 64.8384 62.768C66.5024 61.2 68.4544 59.984 70.6944 59.12C72.9344 58.256 75.3664 57.824 77.9904 57.824C80.6464 57.824 83.0784 58.256 85.2864 59.12C87.5264 59.984 89.4624 61.2 91.0944 62.768C92.7584 64.336 94.0544 66.176 94.9824 68.288C95.9104 70.368 96.3744 72.672 96.3744 75.2C96.3744 77.696 95.9104 80.016 94.9824 82.16C94.0544 84.272 92.7584 86.112 91.0944 87.68C89.4624 89.216 87.5264 90.416 85.2864 91.28C83.0784 92.144 80.6624 92.576 78.0384 92.576ZM77.9904 85.952C79.4944 85.952 80.8704 85.696 82.1184 85.184C83.3984 84.672 84.5184 83.936 85.4784 82.976C86.4384 82.016 87.1744 80.88 87.6864 79.568C88.2304 78.256 88.5024 76.8 88.5024 75.2C88.5024 73.6 88.2304 72.144 87.6864 70.832C87.1744 69.52 86.4384 68.384 85.4784 67.424C84.5504 66.464 83.4464 65.728 82.1664 65.216C80.8864 64.704 79.4944 64.448 77.9904 64.448C76.4864 64.448 75.0944 64.704 73.8144 65.216C72.5664 65.728 71.4624 66.464 70.5024 67.424C69.5424 68.384 68.7904 69.52 68.2464 70.832C67.7344 72.144 67.4784 73.6 67.4784 75.2C67.4784 76.768 67.7344 78.224 68.2464 79.568C68.7904 80.88 69.5264 82.016 70.4544 82.976C71.4144 83.936 72.5344 84.672 73.8144 85.184C75.0944 85.696 76.4864 85.952 77.9904 85.952ZM102.218 92V58.4H109.994V92H102.218ZM117.968 92V58.4H132.512C135.52 58.4 138.112 58.896 140.288 59.888C142.464 60.848 144.144 62.24 145.328 64.064C146.512 65.888 147.104 68.064 147.104 70.592C147.104 73.088 146.512 75.248 145.328 77.072C144.144 78.864 142.464 80.24 140.288 81.2C138.112 82.16 135.52 82.64 132.512 82.64H122.288L125.744 79.232V92H117.968ZM139.328 92L130.928 79.808H139.232L147.728 92H139.328ZM125.744 80.096L122.288 76.448H132.08C134.48 76.448 136.272 75.936 137.456 74.912C138.64 73.856 139.232 72.416 139.232 70.592C139.232 68.736 138.64 67.296 137.456 66.272C136.272 65.248 134.48 64.736 132.08 64.736H122.288L125.744 61.04V80.096ZM166.859 92V58.4H174.635V85.664H191.483V92H166.859ZM202.98 71.936H219.156V77.984H202.98V71.936ZM203.556 85.76H221.844V92H195.828V58.4H221.22V64.64H203.556V85.76ZM239.071 92.576C236.383 92.576 233.807 92.224 231.343 91.52C228.879 90.784 226.895 89.84 225.391 88.688L228.031 82.832C229.471 83.856 231.167 84.704 233.119 85.376C235.103 86.016 237.103 86.336 239.119 86.336C240.655 86.336 241.887 86.192 242.815 85.904C243.775 85.584 244.479 85.152 244.927 84.608C245.375 84.064 245.599 83.44 245.599 82.736C245.599 81.84 245.247 81.136 244.543 80.624C243.839 80.08 242.911 79.648 241.759 79.328C240.607 78.976 239.327 78.656 237.919 78.368C236.543 78.048 235.151 77.664 233.743 77.216C232.367 76.768 231.103 76.192 229.951 75.488C228.799 74.784 227.855 73.856 227.119 72.704C226.415 71.552 226.063 70.08 226.063 68.288C226.063 66.368 226.575 64.624 227.599 63.056C228.655 61.456 230.223 60.192 232.303 59.264C234.415 58.304 237.055 57.824 240.223 57.824C242.335 57.824 244.415 58.08 246.463 58.592C248.511 59.072 250.319 59.808 251.887 60.8L249.487 66.704C247.919 65.808 246.351 65.152 244.783 64.736C243.215 64.288 241.679 64.064 240.175 64.064C238.671 64.064 237.439 64.24 236.479 64.592C235.519 64.944 234.831 65.408 234.415 65.984C233.999 66.528 233.791 67.168 233.791 67.904C233.791 68.768 234.143 69.472 234.847 70.016C235.551 70.528 236.479 70.944 237.631 71.264C238.783 71.584 240.047 71.904 241.423 72.224C242.831 72.544 244.223 72.912 245.599 73.328C247.007 73.744 248.287 74.304 249.439 75.008C250.591 75.712 251.519 76.64 252.223 77.792C252.959 78.944 253.327 80.4 253.327 82.16C253.327 84.048 252.799 85.776 251.743 87.344C250.687 88.912 249.103 90.176 246.991 91.136C244.911 92.096 242.271 92.576 239.071 92.576Z" fill="black"/>
<path d="M298.47 132V69H310.53L347.7 114.36H341.85V69H356.25V132H344.28L307.02 86.64H312.87V132H298.47ZM401.756 133.08C396.776 133.08 392.156 132.27 387.896 130.65C383.696 129.03 380.036 126.75 376.916 123.81C373.856 120.87 371.456 117.42 369.716 113.46C368.036 109.5 367.196 105.18 367.196 100.5C367.196 95.82 368.036 91.5 369.716 87.54C371.456 83.58 373.886 80.13 377.006 77.19C380.126 74.25 383.786 71.97 387.986 70.35C392.186 68.73 396.746 67.92 401.666 67.92C406.646 67.92 411.206 68.73 415.346 70.35C419.546 71.97 423.176 74.25 426.236 77.19C429.356 80.13 431.786 83.58 433.526 87.54C435.266 91.44 436.136 95.76 436.136 100.5C436.136 105.18 435.266 109.53 433.526 113.55C431.786 117.51 429.356 120.96 426.236 123.9C423.176 126.78 419.546 129.03 415.346 130.65C411.206 132.27 406.676 133.08 401.756 133.08ZM401.666 120.66C404.486 120.66 407.066 120.18 409.406 119.22C411.806 118.26 413.906 116.88 415.706 115.08C417.506 113.28 418.886 111.15 419.846 108.69C420.866 106.23 421.376 103.5 421.376 100.5C421.376 97.5 420.866 94.77 419.846 92.31C418.886 89.85 417.506 87.72 415.706 85.92C413.966 84.12 411.896 82.74 409.496 81.78C407.096 80.82 404.486 80.34 401.666 80.34C398.846 80.34 396.236 80.82 393.836 81.78C391.496 82.74 389.426 84.12 387.626 85.92C385.826 87.72 384.416 89.85 383.396 92.31C382.436 94.77 381.956 97.5 381.956 100.5C381.956 103.44 382.436 106.17 383.396 108.69C384.416 111.15 385.796 113.28 387.536 115.08C389.336 116.88 391.436 118.26 393.836 119.22C396.236 120.18 398.846 120.66 401.666 120.66ZM475.083 133.08C466.143 133.08 459.153 130.59 454.113 125.61C449.073 120.63 446.553 113.52 446.553 104.28V69H461.133V103.74C461.133 109.74 462.363 114.06 464.823 116.7C467.283 119.34 470.733 120.66 475.173 120.66C479.613 120.66 483.063 119.34 485.523 116.7C487.983 114.06 489.213 109.74 489.213 103.74V69H503.613V104.28C503.613 113.52 501.093 120.63 496.053 125.61C491.013 130.59 484.023 133.08 475.083 133.08ZM536.921 132L509.741 69H525.491L549.251 124.8H539.981L564.101 69H578.591L551.321 132H536.921ZM597.261 94.38H627.591V105.72H597.261V94.38ZM598.341 120.3H632.631V132H583.851V69H631.461V80.7H598.341V120.3ZM644.232 132V69H658.812V120.12H690.402V132H644.232ZM698.548 132V69H713.128V120.12H744.718V132H698.548ZM766.275 94.38H796.605V105.72H766.275V94.38ZM767.355 120.3H801.645V132H752.865V69H800.475V80.7H767.355V120.3ZM833.945 133.08C828.905 133.08 824.075 132.42 819.455 131.1C814.835 129.72 811.115 127.95 808.295 125.79L813.245 114.81C815.945 116.73 819.125 118.32 822.785 119.58C826.505 120.78 830.255 121.38 834.035 121.38C836.915 121.38 839.225 121.11 840.965 120.57C842.765 119.97 844.085 119.16 844.925 118.14C845.765 117.12 846.185 115.95 846.185 114.63C846.185 112.95 845.525 111.63 844.205 110.67C842.885 109.65 841.145 108.84 838.985 108.24C836.825 107.58 834.425 106.98 831.785 106.44C829.205 105.84 826.595 105.12 823.955 104.28C821.375 103.44 819.005 102.36 816.845 101.04C814.685 99.72 812.915 97.98 811.535 95.82C810.215 93.66 809.555 90.9 809.555 87.54C809.555 83.94 810.515 80.67 812.435 77.73C814.415 74.73 817.355 72.36 821.255 70.62C825.215 68.82 830.165 67.92 836.105 67.92C840.065 67.92 843.965 68.4 847.805 69.36C851.645 70.26 855.035 71.64 857.975 73.5L853.475 84.57C850.535 82.89 847.595 81.66 844.655 80.88C841.715 80.04 838.835 79.62 836.015 79.62C833.195 79.62 830.885 79.95 829.085 80.61C827.285 81.27 825.995 82.14 825.215 83.22C824.435 84.24 824.045 85.44 824.045 86.82C824.045 88.44 824.705 89.76 826.025 90.78C827.345 91.74 829.085 92.52 831.245 93.12C833.405 93.72 835.775 94.32 838.355 94.92C840.995 95.52 843.605 96.21 846.185 96.99C848.825 97.77 851.225 98.82 853.385 100.14C855.545 101.46 857.285 103.2 858.605 105.36C859.985 107.52 860.675 110.25 860.675 113.55C860.675 117.09 859.685 120.33 857.705 123.27C855.725 126.21 852.755 128.58 848.795 130.38C844.895 132.18 839.945 133.08 833.945 133.08Z" fill="black"/>
<rect width="7.06038" height="37.4257" rx="3.53019" transform="matrix(0.953122 0.302586 -0.292739 0.956192 949.633 5.58203)" fill="#8AE190"/>
<rect width="7.07472" height="108.966" rx="3.53736" transform="matrix(0.891744 0.452539 -0.43957 0.898208 896.648 92.3652)" fill="#8AE190"/>
<rect width="7.15077" height="107.808" rx="3.57539" transform="matrix(0.453932 0.891036 -0.884203 0.467103 953.331 154.725)" fill="#8AE190"/>
<rect width="14.9434" height="151.739" rx="7.47171" transform="matrix(0.699905 -0.714236 0.701417 0.712752 897.213 49.8105)" fill="#8AE190"/>
<rect width="17.5032" height="54.2228" rx="8.75162" transform="matrix(0.699905 -0.714236 0.701417 0.712752 832.161 187.729)" fill="#8AE190"/>
<rect width="7.11243" height="37.1559" rx="3.55621" transform="matrix(0.707642 0.706571 -0.693615 0.720346 1002.83 45.4609)" fill="#8AE190"/>
<rect width="7.16668" height="36.8706" rx="3.58334" transform="matrix(0.29196 0.95643 -0.953376 0.301786 1042.75 98.8965)" fill="#8AE190"/>
<path d="M856.627 205.106C853.385 206.48 850.118 203.2 851.422 199.88L909.738 51.4393C910.79 48.7607 914.183 48.0397 916.2 50.0658L1002.83 137.058C1004.85 139.084 1004.18 142.548 1001.57 143.657L856.627 205.106Z" fill="#8AE190"/>
<path d="M880.511 162.379C878.054 164.65 874.329 161.716 875.869 158.723L907.109 98.0202C907.965 96.3565 910.094 95.8893 911.56 97.0433L930.152 111.683C931.618 112.837 931.709 115.053 930.344 116.315L880.511 162.379Z" fill="white"/>
</svg>
