<svg width="601" height="118" viewBox="0 0 601 118" fill="none" xmlns="http://www.w3.org/2000/svg">
<path d="M162.1 81.3V31.1H161.7C159.9 32.7 153.3 32.9 150.5 32.9H145.6V33.3C151.2 36.7 150.4 41.8 150.4 48.1V69.3C150.4 79.9 140 87.4 131.6 87.4C120.5 87.4 115.9 79.5 115.9 66.8V31H115.5C113.7 32.6 107.1 32.8 104.3 32.8H99.5V33.2C105.1 36.6 104.3 41.7 104.3 48V69.2C104.3 88.6 112.7 97.8 127.7 97.8C136.6 97.8 145.8 94.6 150.4 87.1V96.3H166.8V95.9C161.3 92.8 162.1 87.7 162.1 81.3Z" fill="black"/>
<path d="M233.8 62.5004C234.3 44.8004 222.5 31.4004 205.1 31.4004C186.1 31.4004 173.3 45.2004 173.3 64.3004C173.3 83.5004 188.2 98.2004 209.9 98.2004C215.9 98.2004 222 97.3004 227.5 94.8004L233.9 81.9004H233.5C227.6 86.9004 220.3 89.2004 212.6 89.2004C198.2 89.2004 187.4 79.4004 187.1 62.5004M187.5 54.5004C189 45.9004 195.4 40.4004 203.9 40.4004C213.1 40.4004 218.9 44.9004 220.3 54.5004H187.5Z" fill="black"/>
<path d="M243.9 2C246.9 2 253.2 1.8 255.1 0H255.5V86.8C258.9 87.8 262.5 88.4 266 88.4C279.9 88.4 287.9 78.7 287.9 65.1C287.9 51.8 281.7 41.5 268.9 41.5C264.8 41.5 261.7 42.6 258.3 44.5L265.1 32.8C268 31.7 271 31.3 274.1 31.3C288.5 31.3 300.8 43.8 300.8 62.6C300.8 84.1 286.2 98 263.2 98C254.6 98 246.3 96.5 240.1 95.5V95.1C244.3 93.2 243.9 88.6 243.9 84.1V20.9C243.9 14.6 244.7 5.69998 239.2 2.19998V1.79999" fill="black"/>
<path d="M369.6 62.5004C370.1 44.8004 358.3 31.4004 340.9 31.4004C321.9 31.4004 309.1 45.2004 309.1 64.3004C309.1 83.5004 324 98.2004 345.7 98.2004C351.7 98.2004 357.8 97.3004 363.3 94.8004L369.7 81.9004H369.3C363.4 86.9004 356 89.2004 348.4 89.2004C334 89.2004 323.2 79.4004 322.9 62.5004M323.3 54.5004C324.8 45.9004 331.2 40.4004 339.7 40.4004C348.9 40.4004 354.7 44.9004 356.1 54.5004H323.3Z" fill="black"/>
<path d="M426.5 47.0992H426.1C422.4 42.4992 416.3 40.2992 410.6 40.2992C398.2 40.2992 389.3 49.6992 389.3 62.7992C389.3 78.6992 401.7 89.0992 415.8 89.0992C422.3 89.0992 429.4 86.2992 434.4 82.2992H434.8L428.2 95.2992C422.8 97.4992 417 97.9992 411.4 97.9992C391.8 97.9992 376.5 84.1992 376.5 66.2992C376.5 42.5992 393.6 31.1992 412.8 31.1992C417.4 31.1992 422.1 31.6992 426.6 32.7992" fill="black"/>
<path fill-rule="evenodd" clip-rule="evenodd" d="M217.9 19.9992V6.19922C209.6 9.89922 201.8 16.8992 196.6 23.7992V29.1992C209 20.7992 217.9 20.3992 217.9 19.9992Z" fill="black"/>
<path d="M113.1 109.8C98.9 112.1 85.2 107.6 70.7 91C84.7 84 93.4 66.4 93.4 50.2C93.4 50 93.4 48.3 93.4 48.2C93.1 20.3 72.2 2 47.3 2C22.3 2 0.2 21.1 0 49.2C0 49.3 0 51 0 51.1C0 78.4 20.3 98.7 45.1 98.7C48.7 98.7 52.1 98.1 55.5 97.3C71.8 112.5 86.3 119 98.8 117.5C104.7 116.8 111 114.4 114.8 109.5M47.2 88.7C28 88.7 14.6 67 14.6 48.6C14.6 48.4 14.6 46.7 14.6 46.5C14.8 28.6 26.4 11.9 46.6 11.9C67.8 11.9 78.8 32 79 51V53C78.9 73.2 66.3 88.7 47.2 88.7Z" fill="black"/>
<path d="M519.7 2H457.6V40.1H519.7V2Z" fill="#2A5BA9"/>
<path fill-rule="evenodd" clip-rule="evenodd" d="M488.7 4C488.2 4.8 487.2 5.99998 485.5 8.19998C483.5 10.7 483.9 14 484.8 15.9C485.9 18.2 486.5 20 487 21.8C487.7 24.4 487.2 27.8 487.3 27.5H485.6C485.6 23.3 484.3 19.3 481.1 17.6C476.6 15.1 472.1 19.4 473.6 23.9C474.4 26.3 475.7 27.1 476.1 27.1C476.1 27.1 475.5 24.5 477.4 23.2C479.2 22 481.4 22.7 482.4 24.2C483.4 25.6 483.5 27.6 483.5 27.6H480.3V30H486.8C486.8 30 486.6 33.4 483.1 33.1C483.1 33.1 483.5 35.8 486.8 34.4C486.8 34.4 486.6 37.2 488.9 38.6C491.2 37.2 491 34.4 491 34.4C494.3 35.8 494.7 33.1 494.7 33.1C491.1 33.4 491 30 491 30H497.5V27.6H494C494 27.6 494.2 25.7 495.1 24.2C496.1 22.7 498.3 22 500.1 23.2C502 24.5 501.4 27.1 501.4 27.1C501.8 27.1 503.1 26.3 503.9 23.9C505.3 19.4 500.9 15.1 496.4 17.6C493.2 19.4 491.9 23.3 491.9 27.5H490.2C490.2 27.8 489.8 24.4 490.5 21.8C491 20 491.6 18.2 492.7 15.9C493.6 14 494 10.6 492 8.19998C490.2 5.99998 489.1 4.8 488.7 4Z" fill="white"/>
<path d="M600.1 2H537.9V40.1H600.1V2Z" fill="#2A5BA9"/>
<path fill-rule="evenodd" clip-rule="evenodd" d="M568.9 4C568.4 4.8 567.4 5.99998 565.7 8.19998C563.7 10.7 564.1 14 565 15.9C566.1 18.2 566.7 20 567.2 21.8C567.9 24.4 567.4 27.8 567.5 27.5H565.8C565.8 23.3 564.5 19.3 561.3 17.6C556.8 15.1 552.4 19.4 553.8 23.9C554.5 26.3 555.9 27.1 556.2 27.1C556.2 27.1 555.6 24.5 557.5 23.2C559.3 22 561.4 22.7 562.5 24.2C563.5 25.6 563.6 27.6 563.6 27.6H560.4V30H566.9C566.9 30 566.7 33.4 563.2 33.1C563.2 33.1 563.6 35.8 566.9 34.4C566.9 34.4 566.7 37.2 569 38.6C571.2 37.2 571.1 34.4 571.1 34.4C574.4 35.8 574.8 33.1 574.8 33.1C571.2 33.4 571.1 30 571.1 30H577.6V27.6H574.3C574.3 27.6 574.5 25.7 575.4 24.2C576.4 22.7 578.6 22 580.4 23.2C582.3 24.5 581.7 27.1 581.7 27.1C582.1 27.1 583.4 26.3 584.1 23.9C585.5 19.4 581.1 15.1 576.6 17.6C573.4 19.4 572.1 23.3 572.1 27.5H570.4C570.4 27.8 570 24.4 570.7 21.8C571.2 20 571.8 18.2 572.9 15.9C573.8 14 574.2 10.6 572.2 8.19998C570.4 5.99998 569.4 4.8 568.9 4Z" fill="white"/>
<path d="M519.7 58.1992H457.6V96.2992H519.7V58.1992Z" fill="#2A5BA9"/>
<path fill-rule="evenodd" clip-rule="evenodd" d="M488.7 60.1992C488.2 60.9992 487.2 62.1992 485.5 64.3992C483.5 66.8992 483.9 70.1992 484.8 72.0992C485.9 74.3992 486.5 76.1992 487 77.9992C487.7 80.5992 487.2 83.9992 487.3 83.6992H485.6C485.6 79.4992 484.3 75.4992 481.1 73.7992C476.6 71.2992 472.1 75.5992 473.6 80.0992C474.4 82.4992 475.7 83.2992 476.1 83.2992C476.1 83.2992 475.5 80.6992 477.4 79.3992C479.2 78.1992 481.4 78.8992 482.4 80.3992C483.4 81.7992 483.5 83.7992 483.5 83.7992H480.3V86.1992H486.8C486.8 86.1992 486.6 89.5992 483.1 89.2992C483.1 89.2992 483.5 91.9992 486.8 90.5992C486.8 90.5992 486.6 93.3992 488.9 94.7992C491.2 93.3992 491 90.5992 491 90.5992C494.3 91.9992 494.7 89.2992 494.7 89.2992C491.1 89.5992 491 86.1992 491 86.1992H497.5V83.7992H494C494 83.7992 494.2 81.8992 495.1 80.3992C496.1 78.8992 498.3 78.1992 500.1 79.3992C502 80.6992 501.4 83.2992 501.4 83.2992C501.8 83.2992 503.1 82.4992 503.9 80.0992C505.3 75.5992 500.9 71.2992 496.4 73.7992C493.2 75.5992 491.9 79.4992 491.9 83.6992H490.2C490.2 83.9992 489.8 80.5992 490.5 77.9992C491 76.1992 491.6 74.2992 492.7 72.0992C493.6 70.0992 494 66.7992 492 64.3992C490.2 62.1992 489.1 60.9992 488.7 60.1992Z" fill="white"/>
<path d="M600.1 58.1992H537.9V96.2992H600.1V58.1992Z" fill="#2A5BA9"/>
<path fill-rule="evenodd" clip-rule="evenodd" d="M568.9 60.1992C568.4 60.9992 567.4 62.1992 565.7 64.3992C563.7 66.8992 564.1 70.1992 565 72.0992C566.1 74.3992 566.7 76.1992 567.2 77.9992C567.9 80.5992 567.4 83.9992 567.5 83.6992H565.8C565.8 79.4992 564.5 75.4992 561.3 73.7992C556.8 71.2992 552.4 75.5992 553.8 80.0992C554.5 82.4992 555.9 83.2992 556.2 83.2992C556.2 83.2992 555.6 80.6992 557.5 79.3992C559.3 78.1992 561.4 78.8992 562.5 80.3992C563.5 81.7992 563.6 83.7992 563.6 83.7992H560.4V86.1992H566.9C566.9 86.1992 566.7 89.5992 563.2 89.2992C563.2 89.2992 563.6 91.9992 566.9 90.5992C566.9 90.5992 566.7 93.3992 569 94.7992C571.2 93.3992 571.1 90.5992 571.1 90.5992C574.4 91.9992 574.8 89.2992 574.8 89.2992C571.2 89.5992 571.1 86.1992 571.1 86.1992H577.6V83.7992H574.3C574.3 83.7992 574.5 81.8992 575.4 80.3992C576.4 78.8992 578.6 78.1992 580.4 79.3992C582.3 80.6992 581.7 83.2992 581.7 83.2992C582.1 83.2992 583.4 82.4992 584.1 80.0992C585.5 75.5992 581.1 71.2992 576.6 73.7992C573.4 75.5992 572.1 79.4992 572.1 83.6992H570.4C570.4 83.9992 570 80.5992 570.7 77.9992C571.2 76.1992 571.8 74.2992 572.9 72.0992C573.8 70.0992 574.2 66.7992 572.2 64.3992C570.4 62.1992 569.4 60.9992 568.9 60.1992Z" fill="white"/>
</svg>
